<svg width="25" height="25" viewBox="0 0 25 25" fill="none" xmlns="http://www.w3.org/2000/svg">
<g clip-path="url(#clip0_1838_9778)">
<path d="M16.5977 22.9299V19.0599C16.6352 18.583 16.5707 18.1037 16.4087 17.6537C16.2466 17.2036 15.9906 16.7933 15.6577 16.4499C18.7977 16.0999 22.0977 14.9099 22.0977 9.44987C22.0974 8.0537 21.5603 6.71107 20.5977 5.69987C21.0535 4.47838 21.0213 3.12822 20.5077 1.92987C20.5077 1.92987 19.3277 1.57987 16.5977 3.40987C14.3057 2.78869 11.8896 2.78869 9.59766 3.40987C6.86766 1.57987 5.68766 1.92987 5.68766 1.92987C5.17403 3.12822 5.1418 4.47838 5.59766 5.69987C4.62778 6.71857 4.09018 8.07333 4.09766 9.47987C4.09766 14.8999 7.39766 16.0899 10.5377 16.4799C10.2087 16.8198 9.95492 17.2253 9.79296 17.6698C9.63101 18.1143 9.56446 18.5879 9.59766 19.0599V22.9299M9.59766 19.9299C4.59766 21.4299 4.59766 17.4299 2.59766 16.9299L9.59766 19.9299Z" stroke="black" stroke-width="2" stroke-linecap="round" stroke-linejoin="round"/>
</g>
<defs>
<clipPath id="clip0_1838_9778">
<rect width="24" height="24" fill="white" transform="translate(0.597656 0.929932)"/>
</clipPath>
</defs>
</svg>
