<svg xmlns="http://www.w3.org/2000/svg" viewBox="0 -0.5 179 155" shape-rendering="crispEdges">
<metadata>Made with Pixels to Svg https://codepen.io/shshaw/pen/XbxvNj</metadata>
<path stroke="#6f482d" d="M85 0h4M83 1h3M88 1h1M81 2h3M88 2h1M79 3h3M86 3h3M77 4h3M84 4h3M75 5h3M82 5h3M73 6h3M80 6h3M71 7h3M78 7h3M69 8h3M76 8h3M67 9h3M74 9h3M65 10h3M72 10h3M63 11h3M70 11h3M61 12h3M68 12h3M59 13h3M66 13h3M57 14h3M64 14h3M55 15h3M62 15h3M53 16h3M60 16h3M51 17h3M58 17h3M49 18h3M56 18h3M47 19h3M54 19h3M45 20h3M52 20h3M43 21h3M50 21h3M41 22h3M48 22h3M39 23h3M46 23h3M37 24h3M44 24h3M35 25h3M42 25h3M33 26h3M40 26h3M31 27h3M38 27h3M29 28h3M36 28h3M27 29h3M34 29h3M25 30h3M32 30h3M23 31h3M30 31h3M21 32h3M28 32h3M19 33h3M26 33h3M17 34h3M24 34h3M15 35h3M22 35h3M13 36h3M20 36h3M11 37h3M18 37h3M9 38h3M16 38h3M96 38h1M7 39h3M14 39h3M96 39h1M5 40h3M12 40h3M96 40h1M3 41h3M10 41h3M96 41h1M1 42h3M8 42h3M2 43h1M6 43h3M2 44h5M4 45h1M95 45h1M95 46h1M95 47h1M95 48h1M95 49h1M95 50h1M90 52h1M90 53h1M98 54h1M98 55h1M98 56h1M86 57h1M86 58h1M86 59h1M97 61h2M94 62h5M94 63h5M90 64h2M94 64h5M89 65h3M94 65h5M88 66h4M96 66h3M88 67h4M96 67h3M88 68h2M96 68h3M88 69h2M95 69h4M88 70h3M95 70h4M88 71h3M94 71h5M88 72h3M94 72h4M88 73h4M94 73h2M88 74h4M87 75h3" />
<path stroke="#562b1b" d="M89 0h1M92 0h3M89 1h1M94 1h3M89 2h3M96 2h3M89 3h5M98 3h3M92 4h4M100 4h3M94 5h4M102 5h3M96 6h4M104 6h3M98 7h4M106 7h3M100 8h4M108 8h3M102 9h4M110 9h3M104 10h4M112 10h3M106 11h4M114 11h3M108 12h4M116 12h3M110 13h4M118 13h3M112 14h4M120 14h3M114 15h4M122 15h3M116 16h4M124 16h3M118 17h4M126 17h3M120 18h4M128 18h3M122 19h4M130 19h3M124 20h4M132 20h3M126 21h4M134 21h3M128 22h4M136 22h3M130 23h4M138 23h3M132 24h4M140 24h3M134 25h4M142 25h3M136 26h4M144 26h3M138 27h4M146 27h2M140 28h4M148 28h3M142 29h4M150 29h3M144 30h4M152 30h3M146 31h4M154 31h3M148 32h4M156 32h3M150 33h4M158 33h3M152 34h4M160 34h3M154 35h4M162 35h3M156 36h4M164 36h3M158 37h4M166 37h2M160 38h4M168 38h3M162 39h4M170 39h3M164 40h4M172 40h3M166 41h4M174 41h3M168 42h4M176 42h3M170 43h4M177 43h2M172 44h7M174 45h3M178 45h1M175 46h2M178 46h1M175 47h2M178 47h1M175 48h2M178 48h1M175 49h2M178 49h1M175 50h2M178 50h1M175 51h2M178 51h1M175 52h2M178 52h1M175 53h2M178 53h1M175 54h2M178 54h1M175 55h2M178 55h1M175 56h2M178 56h1M175 57h2M178 57h1M175 58h2M178 58h1M175 59h2M178 59h1M175 60h2M178 60h1M175 61h2M178 61h1M175 62h2M178 62h1M175 63h2M178 63h1M175 64h2M178 64h1M175 65h2M178 65h1M175 66h2M178 66h1M175 67h2M178 67h1M175 68h2M178 68h1M175 69h2M178 69h1M175 70h2M178 70h1M175 71h2M178 71h1M175 72h2M178 72h1M175 73h2M178 73h1M175 74h2M178 74h1M175 75h2M178 75h1M175 76h2M178 76h1M175 77h2M178 77h1M175 78h2M178 78h1M175 79h2M178 79h1M175 80h2M178 80h1M175 81h2M178 81h1M175 82h2M178 82h1M175 83h2M178 83h1M175 84h2M178 84h1M175 85h2M178 85h1M175 86h2M178 86h1M175 87h2M178 87h1M175 88h2M178 88h1M175 89h2M178 89h1M175 90h2M178 90h1M175 91h2M178 91h1M175 92h2M178 92h1M175 93h2M178 93h1M175 94h2M178 94h1M175 95h2M178 95h1M175 96h2M178 96h1M175 97h2M178 97h1M175 98h2M178 98h1M175 99h2M178 99h1M175 100h2M178 100h1M175 101h2M178 101h1M175 102h2M178 102h1M175 103h2M178 103h1M175 104h2M178 104h1M175 105h2M178 105h1M175 106h2M178 106h1M175 107h2M178 107h1M175 108h2M178 108h1M175 109h4M176 110h3M177 111h1" />
<path stroke="#68432b" d="M90 0h2M90 1h4M92 2h4M94 3h4M96 4h4M98 5h4M100 6h4M102 7h4M104 8h4M106 9h4M108 10h4M110 11h4M112 12h4M114 13h4M116 14h4M118 15h4M120 16h4M122 17h4M124 18h4M126 19h4M128 20h4M130 21h4M132 22h4M134 23h4M136 24h4M138 25h4M140 26h4M142 27h4M144 28h4M146 29h4M148 30h4M150 31h4M152 32h4M154 33h4M156 34h4M158 35h4M160 36h4M162 37h4M164 38h4M166 39h4M168 40h4M170 41h4M172 42h4M174 43h3M177 45h1M177 46h1M177 47h1M177 48h1M177 49h1M177 50h1M177 51h1M177 52h1M177 53h1M177 54h1M177 55h1M177 56h1M177 57h1M177 58h1M177 59h1M177 60h1M177 61h1M177 62h1M177 63h1M177 64h1M177 65h1M177 66h1M177 67h1M177 68h1M177 69h1M177 70h1M177 71h1M177 72h1M177 73h1M177 74h1M177 75h1M177 76h1M177 77h1M177 78h1M177 79h1M177 80h1M177 81h1M177 82h1M177 83h1M177 84h1M177 85h1M177 86h1M177 87h1M177 88h1M177 89h1M177 90h1M177 91h1M177 92h1M177 93h1M177 94h1M177 95h1M177 96h1M177 97h1M177 98h1M177 99h1M177 100h1M177 101h1M177 102h1M177 103h1M177 104h1M177 105h1M177 106h1" />
<path stroke="#876148" d="M86 1h2M84 2h4M82 3h4M80 4h4M78 5h4M76 6h4M74 7h4M72 8h4M70 9h4M68 10h4M66 11h4M64 12h4M62 13h4M60 14h4M58 15h4M56 16h4M54 17h4M52 18h4M50 19h4M48 20h4M46 21h4M44 22h4M42 23h4M40 24h4M38 25h4M36 26h4M34 27h4M32 28h4M30 29h4M28 30h4M26 31h4M24 32h4M22 33h4M20 34h4M18 35h4M16 36h4M14 37h4M12 38h4M10 39h4M8 40h4M6 41h4M4 42h4M3 43h3" />
<path stroke="#8a725d" d="M87 4h2M85 5h4M83 6h6M81 7h8M79 8h10M77 9h12M75 10h14M73 11h16M71 12h18M69 13h20M67 14h22M65 15h24M63 16h26M61 17h28M59 18h30M57 19h21M83 19h6M55 20h23M84 20h5M53 21h26M87 21h2M51 22h28M88 22h1M49 23h30M47 24h32M45 25h31M43 26h33M41 27h33M39 28h35M37 29h37M35 30h29M68 30h6M33 31h29M69 31h5M31 32h29M69 32h6M29 33h29M69 33h6M27 34h29M69 34h6M25 35h29M69 35h6M23 36h31M69 36h6M21 37h32M69 37h6M19 38h28M50 38h3M69 38h6M17 39h28M51 39h2M69 39h6M15 40h28M51 40h2M69 40h6M13 41h29M51 41h2M69 41h6M11 42h29M51 42h2M69 42h6M9 43h29M51 43h2M69 43h6M7 44h29M51 44h2M69 44h6M5 45h29M51 45h2M69 45h6M4 46h30M51 46h2M69 46h6M4 47h24M33 47h1M51 47h2M69 47h6M4 48h21M33 48h1M51 48h2M69 48h6M4 49h20M33 49h1M51 49h2M69 49h6M4 50h19M33 50h1M51 50h2M69 50h6M4 51h17M33 51h1M51 51h2M69 51h6M4 52h16M33 52h1M51 52h2M69 52h6M4 53h14M33 53h1M51 53h2M69 53h6M4 54h13M33 54h1M51 54h2M69 54h6M4 55h13M33 55h1M49 55h4M69 55h6M4 56h13M33 56h1M47 56h6M68 56h7M4 57h13M33 57h1M45 57h8M67 57h8M4 58h13M33 58h1M43 58h8M66 58h9M4 59h13M33 59h1M41 59h8M64 59h11M4 60h13M33 60h2M39 60h8M62 60h13M4 61h13M33 61h12M60 61h15M4 62h13M33 62h10M59 62h16M4 63h13M33 63h8M59 63h16M4 64h13M33 64h6M59 64h16M4 65h13M33 65h4M59 65h16M4 66h13M33 66h4M59 66h16M4 67h13M33 67h4M60 67h15M4 68h13M33 68h4M61 68h14M4 69h13M33 69h4M63 69h12M4 70h13M33 70h4M64 70h11M4 71h13M33 71h4M63 71h1M65 71h10M4 72h13M33 72h4M66 72h9M4 73h13M31 73h6M68 73h6M4 74h13M30 74h7M70 74h2M4 75h13M29 75h8M4 76h13M27 76h10M4 77h13M25 77h12M4 78h14M22 78h15M4 79h10M16 79h21M4 80h10M17 80h20M4 81h10M18 81h3M23 81h13M4 82h10M18 82h2M24 82h10M4 83h10M18 83h2M24 83h8M4 84h10M18 84h2M24 84h6M4 85h4M11 85h5M17 85h3M23 85h5M4 86h4M11 86h5M17 86h3M23 86h3M4 87h4M11 87h5M19 87h1M22 87h4M4 88h4M11 88h5M19 88h1M21 88h4M4 89h4M11 89h4M19 89h1M21 89h4M4 90h4M11 90h3M19 90h1M24 90h1M4 91h5M11 91h2M18 91h2M24 91h1M4 92h5M12 92h2M15 92h1M24 92h1M4 93h6M15 93h2M22 93h3M32 93h2M4 94h6M16 94h2M22 94h3M32 94h1M4 95h8M16 95h2M22 95h3M4 96h8M24 96h1M4 97h2M10 97h4M24 97h1M4 98h2M11 98h4M17 98h2M24 98h1M4 99h2M12 99h4M17 99h2M23 99h1M4 100h2M13 100h3M17 100h2M4 101h7M14 101h1M17 101h1M4 102h7M4 103h7M4 104h7M4 105h7M4 106h6M4 107h4M4 108h3" />
<path stroke="#2c1616" d="M89 4h1M89 5h1M89 6h1M89 7h1M89 8h1M89 9h1M89 10h1M89 11h1M89 12h1M89 13h1M89 14h1M89 15h1M89 16h1M89 17h1M89 18h1M89 19h1M89 20h1M89 21h1M89 22h1M11 108h1M20 108h1M12 109h1M18 109h3M13 110h7" />
<path stroke="#73533d" d="M90 4h2M90 5h4M90 6h6M90 7h8M90 8h10M90 9h12M90 10h14M90 11h16M90 12h18M90 13h20M90 14h22M90 15h24M90 16h26M90 17h1M92 17h26M90 18h1M94 18h26M95 19h27M95 20h29M95 21h31M94 22h34M94 23h36M91 24h1M95 24h37M91 25h1M96 25h38M91 26h1M97 26h39M98 27h14M115 27h23M98 28h14M116 28h24M98 29h14M118 29h24M98 30h16M120 30h24M98 31h16M122 31h24M99 32h15M119 32h2M124 32h24M101 33h13M119 33h4M126 33h24M101 34h12M119 34h6M129 34h23M101 35h12M122 35h5M131 35h23M101 36h12M124 36h5M133 36h23M101 37h12M126 37h5M135 37h23M101 38h12M128 38h5M137 38h23M101 39h12M130 39h5M139 39h23M101 40h12M132 40h5M141 40h23M101 41h12M134 41h5M143 41h23M101 42h12M136 42h5M145 42h23M101 43h12M138 43h5M147 43h23M101 44h12M140 44h5M149 44h23M101 45h12M142 45h6M151 45h23M101 46h12M144 46h6M154 46h21M101 47h12M146 47h4M156 47h19M101 48h12M148 48h2M158 48h17M101 49h12M160 49h15M101 50h12M160 50h15M101 51h12M158 51h17M101 52h12M158 52h17M101 53h12M157 53h6M165 53h10M101 54h12M157 54h6M165 54h10M101 55h12M157 55h5M163 55h2M166 55h9M101 56h12M157 56h4M162 56h4M167 56h8M101 57h12M157 57h3M161 57h6M168 57h7M101 58h12M157 58h2M160 58h8M169 58h6M101 59h12M157 59h2M161 59h7M169 59h6M101 60h12M157 60h2M163 60h3M169 60h6M101 61h12M157 61h2M169 61h6M101 62h12M157 62h2M169 62h6M101 63h12M157 63h2M169 63h6M101 64h12M157 64h2M169 64h6M101 65h12M157 65h2M169 65h6M101 66h12M120 66h1M157 66h2M169 66h6M101 67h12M120 67h3M157 67h2M169 67h6M101 68h12M120 68h5M157 68h2M169 68h6M101 69h7M113 69h1M120 69h6M157 69h2M169 69h6M101 70h5M120 70h7M157 70h3M168 70h7M101 71h4M120 71h7M130 71h1M157 71h1M159 71h1M167 71h1M169 71h6M103 72h1M121 72h7M130 72h1M157 72h4M165 72h3M169 72h6M121 73h8M130 73h1M134 73h1M157 73h4M162 73h1M164 73h1M166 73h9M121 74h8M130 74h1M135 74h2M157 74h6M164 74h11M121 75h5M130 75h1M136 75h3M157 75h18M121 76h5M130 76h2M137 76h2M158 76h17M121 77h5M134 77h1M136 77h2M141 77h2M159 77h16M118 78h10M133 78h2M140 78h5M159 78h16M118 79h10M132 79h2M140 79h9M159 79h16M118 80h10M132 80h2M138 80h11M160 80h5M167 80h8M120 81h6M138 81h11M160 81h5M168 81h7M122 82h4M136 82h4M144 82h5M157 82h1M160 82h5M168 82h7M124 83h2M131 83h2M135 83h4M144 83h5M157 83h8M168 83h7M126 84h1M131 84h2M134 84h4M144 84h1M148 84h1M157 84h9M168 84h7M131 85h2M134 85h3M157 85h18M132 86h1M135 86h1M157 86h18M157 87h2M161 87h14M157 88h1M162 88h13M162 89h13M163 90h2M166 90h1M168 90h7M162 91h1M164 91h1M167 91h1M169 91h6M166 92h1M169 92h6M169 93h6M168 94h7M170 95h5M172 96h3M172 97h3M172 98h3M173 99h2M172 100h3M172 101h3M165 102h1M172 102h3M172 103h3M172 104h3M172 105h3M172 106h3M173 107h2M173 108h2" />
<path stroke="#543925" d="M91 17h1M90 19h1M94 21h1M93 22h1M93 23h1M93 24h2M94 25h2M97 27h1M97 28h1M97 29h1M97 30h1" />
<path stroke="#281616" d="M91 18h3M78 19h1M82 19h1M91 19h1M94 19h1M78 20h2M82 20h1M93 20h2M79 21h1M93 21h1M80 22h2M84 22h2M91 22h2M83 23h3M85 25h1M84 26h1M94 27h1M81 28h1M94 28h1M74 29h1M77 29h1M79 29h1M81 29h1M74 30h1M77 30h1M79 30h1M74 31h1M77 31h1M80 31h2M84 31h1M86 31h2M89 31h1M77 32h1M84 32h1M87 32h1M89 32h1M81 33h2M87 33h1M89 33h1M88 34h1M82 35h2M82 36h2M93 36h2M92 37h3M93 38h2M77 39h1M81 39h1M93 39h2M77 40h1M81 40h1M86 40h1M88 40h1M77 41h1M86 41h1M88 41h1M77 42h2M88 42h1M78 43h4M88 43h1M2 46h1M2 47h1M2 48h1M2 49h1M2 50h1M2 51h1M2 52h1M2 53h1M2 54h1M2 55h1M92 55h1M2 56h1M2 57h1M2 58h1M65 58h1M2 59h1M63 59h1M92 59h1M2 60h1M61 60h1M2 61h1M59 61h1M2 62h1M2 63h1M87 63h1M2 64h1M2 65h1M133 65h1M2 66h1M127 66h2M134 66h2M2 67h1M126 67h1M128 67h2M134 67h2M2 68h1M126 68h1M128 68h2M134 68h1M2 69h1M126 69h1M129 69h1M2 70h1M129 70h1M139 70h3M2 71h1M127 71h1M129 71h1M139 71h1M141 71h1M2 72h1M128 72h1M133 72h1M139 72h3M2 73h1M133 73h1M141 73h1M2 74h1M131 74h1M134 74h1M141 74h1M2 75h1M131 75h1M134 75h1M141 75h1M2 76h1M134 76h1M140 76h1M2 77h1M140 77h1M2 78h1M129 78h1M135 78h3M2 79h1M128 79h4M134 79h1M137 79h1M2 80h1M16 80h1M129 80h3M134 80h4M2 81h1M14 81h2M21 81h2M126 81h2M130 81h1M133 81h1M136 81h2M2 82h1M14 82h2M20 82h2M23 82h1M135 82h1M140 82h1M143 82h1M2 83h1M15 83h1M20 83h2M23 83h1M133 83h2M139 83h2M143 83h1M2 84h1M20 84h1M23 84h1M139 84h2M2 85h1M8 85h3M20 85h1M137 85h2M2 86h1M8 86h1M10 86h1M20 86h1M22 86h1M137 86h1M2 87h1M8 87h3M16 87h1M21 87h1M2 88h1M8 88h1M16 88h1M2 89h1M8 89h1M15 89h1M18 89h1M2 90h1M8 90h1M15 90h1M18 90h1M165 90h1M167 90h1M2 91h1M9 91h1M15 91h1M163 91h1M165 91h2M168 91h1M2 92h1M9 92h1M162 92h4M167 92h2M2 93h1M12 93h3M20 93h1M163 93h1M166 93h3M2 94h1M12 94h1M15 94h1M18 94h4M163 94h1M2 95h1M12 95h4M18 95h3M2 96h1M12 96h2M16 96h1M19 96h1M22 96h2M2 97h1M6 97h1M9 97h1M14 97h1M2 98h1M6 98h1M9 98h2M15 98h2M2 99h1M9 99h2M2 100h1M10 100h3M148 100h1M2 101h1M11 101h2M149 101h2M2 102h1M151 102h1M2 103h1M138 103h2M152 103h2M2 104h1M138 104h1M154 104h2M2 105h1M138 105h1M2 106h1M154 106h1M2 107h1M143 107h1M151 107h3M2 108h1M144 108h2M148 108h3M145 109h3" />
<path stroke="#51481e" d="M79 19h1M93 19h1M80 20h1M91 20h2M80 21h3M91 21h2M82 22h1M90 22h1M88 24h2M87 25h2M79 26h1M86 26h3M94 26h3M76 27h1M79 27h2M91 27h1M95 27h2M75 28h2M79 28h2M91 28h1M95 28h2M75 29h2M80 29h1M91 29h2M96 29h1M75 30h2M80 30h1M86 30h3M91 30h2M75 31h2M88 31h1M91 31h1M76 32h1M88 32h1M83 33h1M88 33h1M82 34h1M79 38h2M79 39h2M79 40h2M80 41h2M81 42h1M135 64h1M134 65h2M127 67h1M127 68h1M140 71h1M131 72h2M131 73h2M130 77h2M130 78h2M14 79h2M135 79h2M14 80h2M128 80h1M22 82h1M126 82h2M141 82h2M22 83h1M126 83h2M141 83h2M127 84h1M9 86h1M128 86h2M17 87h2M17 88h2M18 92h2M18 93h2M13 94h2M21 95h1M7 97h2M22 97h2M7 98h2M22 98h2M22 99h1M20 101h2" />
<path stroke="#382318" d="M80 19h2M92 19h1M81 20h1M90 20h1M90 21h1M81 26h1M92 28h1M94 29h2M92 31h1M75 32h1M80 32h2M86 32h1M86 33h1M83 34h1M95 35h2M95 36h2M95 37h2M90 38h1M95 38h1M90 39h1M95 39h1M78 40h1M90 40h1M95 40h1M78 41h2M92 41h1M94 41h2M79 42h2M92 42h1M94 42h1M92 43h1M87 45h2M86 46h3M86 47h1M95 53h2M96 54h1M96 55h1M89 56h1M92 56h1M96 56h1M89 57h1M92 57h1M96 57h2M89 58h1M92 58h1M96 58h1M88 59h2M88 60h2M86 61h1M88 61h1M86 62h1M86 63h1M132 66h2M132 67h2M132 68h2M135 68h1M127 69h2M132 69h4M127 70h2M128 71h1M139 73h2M132 74h2M139 74h2M132 75h2M139 75h2M132 76h2M139 76h1M16 81h2M128 81h2M134 81h2M16 82h2M128 82h2M133 82h2M14 83h1M16 83h2M128 83h1M14 84h4M21 84h2M128 84h2M141 84h3M21 85h2M128 85h2M141 85h3M21 86h1M9 88h2M9 89h2M16 89h2M9 90h2M16 90h2M10 91h1M16 91h2M14 96h2M20 96h2M15 97h2M20 97h2M21 98h1M6 99h3M20 99h2M6 100h4M20 100h2" />
<path stroke="#735a44" d="M83 20h1M83 21h4M79 22h1M83 22h1M86 22h2M79 23h1M79 24h1M76 25h2M76 26h1M74 27h2M74 28h1M78 28h1M78 29h1M78 30h1M78 31h1" />
<path stroke="#141414" d="M80 23h3M88 23h5M80 24h2M83 24h3M87 24h1M90 24h1M92 24h1M78 25h3M82 25h3M86 25h1M89 25h2M92 25h2M77 26h2M80 26h1M82 26h2M85 26h1M89 26h1M92 26h2M77 27h2M81 27h9M92 27h2M112 27h3M77 28h1M82 28h1M84 28h6M93 28h1M112 28h3M82 29h1M84 29h6M93 29h1M112 29h2M81 30h2M84 30h2M119 30h1M85 31h1M94 31h1M119 31h3M82 32h1M85 32h1M121 32h3M97 33h2M123 33h3M78 34h1M96 34h5M125 34h4M76 35h3M94 35h1M97 35h4M127 35h4M76 36h1M78 36h2M91 36h2M97 36h4M129 36h4M76 37h1M78 37h1M80 37h2M89 37h1M91 37h1M97 37h4M131 37h4M76 38h1M78 38h1M82 38h2M86 38h2M89 38h1M97 38h4M133 38h4M76 39h1M78 39h1M84 39h4M89 39h1M92 39h1M97 39h4M135 39h4M76 40h1M85 40h1M87 40h1M89 40h1M92 40h2M97 40h4M137 40h4M76 41h1M85 41h1M87 41h1M89 41h1M93 41h1M97 41h4M139 41h4M76 42h1M85 42h1M87 42h1M89 42h1M93 42h1M95 42h6M141 42h4M45 43h2M76 43h1M85 43h1M89 43h1M93 43h8M143 43h4M43 44h4M76 44h1M85 44h1M91 44h5M97 44h4M145 44h4M41 45h6M76 45h1M85 45h1M89 45h4M97 45h4M148 45h3M40 46h7M76 46h1M85 46h1M89 46h4M97 46h4M150 46h4M38 47h6M76 47h1M85 47h1M89 47h2M97 47h4M154 47h2M38 48h4M46 48h1M76 48h1M85 48h1M89 48h2M97 48h4M157 48h1M38 49h3M46 49h1M76 49h1M85 49h1M87 49h2M97 49h4M158 49h2M38 50h2M45 50h2M76 50h1M85 50h1M87 50h4M97 50h4M158 50h2M38 51h1M43 51h3M76 51h1M85 51h1M87 51h4M94 51h7M38 52h1M42 52h4M76 52h1M85 52h1M88 52h1M93 52h4M98 52h3M38 53h1M41 53h3M76 53h1M85 53h1M88 53h1M91 53h4M98 53h3M163 53h2M38 54h3M76 54h1M85 54h1M89 54h6M99 54h2M163 54h2M76 55h1M85 55h1M88 55h4M93 55h2M99 55h2M76 56h1M85 56h4M90 56h2M93 56h2M99 56h2M53 57h1M76 57h1M85 57h1M87 57h2M90 57h2M93 57h3M98 57h3M51 58h2M76 58h1M85 58h1M87 58h2M90 58h2M93 58h3M97 58h4M49 59h2M76 59h1M85 59h1M90 59h2M93 59h5M99 59h2M47 60h2M76 60h1M85 60h1M90 60h6M100 60h1M45 61h2M76 61h1M85 61h1M90 61h4M100 61h1M43 62h2M76 62h1M85 62h1M88 62h6M100 62h1M41 63h2M76 63h1M85 63h1M88 63h3M92 63h2M100 63h1M27 64h2M39 64h2M76 64h1M85 64h4M92 64h2M100 64h1M26 65h3M37 65h2M76 65h1M85 65h2M92 65h2M100 65h1M24 66h5M37 66h1M76 66h1M85 66h2M92 66h4M100 66h1M23 67h6M76 67h1M85 67h2M92 67h4M99 67h2M164 67h1M21 68h8M76 68h1M85 68h2M91 68h5M99 68h2M164 68h1M21 69h8M76 69h1M85 69h2M90 69h4M99 69h2M163 69h1M21 70h7M76 70h1M85 70h2M91 70h4M99 70h2M133 70h1M21 71h6M76 71h1M85 71h2M91 71h3M100 71h1M133 71h1M21 72h4M76 72h1M85 72h2M92 72h2M98 72h2M129 72h1M21 73h2M76 73h1M85 73h2M92 73h2M96 73h4M129 73h1M77 74h2M85 74h2M92 74h6M129 74h1M79 75h1M85 75h2M91 75h5M129 75h1M80 76h3M85 76h9M103 76h1M129 76h1M82 77h9M103 77h1M128 77h2M132 77h2M135 77h1M138 77h2M83 78h6M103 78h2M128 78h1M132 78h1M138 78h1M103 79h2M74 80h2M104 80h3M72 81h4M104 81h4M116 81h1M67 82h1M71 82h5M105 82h11M130 82h1M72 83h4M106 83h9M129 83h2M63 84h2M72 84h4M109 84h4M130 84h1M133 84h1M138 84h1M145 84h3M16 85h1M63 85h2M73 85h3M130 85h1M133 85h1M144 85h6M16 86h1M62 86h1M73 86h3M130 86h2M133 86h2M136 86h1M138 86h1M142 86h10M20 87h1M62 87h1M73 87h3M129 87h9M144 87h10M20 88h1M26 88h1M62 88h1M73 88h3M128 88h10M145 88h11M20 89h1M25 89h3M62 89h1M73 89h3M128 89h9M145 89h12M20 90h1M25 90h5M62 90h1M73 90h3M128 90h9M147 90h10M20 91h1M25 91h6M62 91h1M73 91h3M128 91h9M147 91h11M159 91h2M10 92h2M14 92h1M16 92h2M20 92h2M25 92h7M62 92h1M72 92h3M128 92h9M147 92h11M11 93h1M17 93h1M21 93h1M25 93h7M62 93h1M71 93h3M129 93h8M147 93h11M162 93h1M164 93h2M25 94h7M62 94h1M70 94h4M129 94h8M147 94h16M164 94h4M25 95h7M55 95h4M62 95h1M69 95h2M130 95h7M147 95h23M25 96h7M53 96h6M62 96h1M66 96h2M69 96h1M132 96h2M136 96h2M147 96h25M19 97h1M25 97h7M52 97h9M63 97h4M69 97h1M136 97h3M147 97h25M19 98h2M25 98h7M52 98h15M69 98h1M136 98h4M147 98h25M11 99h1M16 99h1M19 99h1M25 99h7M52 99h3M56 99h11M69 99h1M136 99h5M147 99h25M16 100h1M19 100h1M25 100h7M52 100h3M58 100h7M69 100h1M136 100h5M142 100h2M147 100h1M149 100h23M13 101h1M15 101h2M18 101h2M25 101h7M40 101h4M45 101h1M52 101h3M60 101h3M69 101h1M72 101h2M136 101h5M143 101h4M151 101h15M167 101h5M11 102h10M26 102h6M40 102h6M52 102h3M69 102h5M136 102h5M152 102h13M167 102h5M11 103h1M13 103h9M27 103h4M40 103h6M51 103h5M68 103h4M136 103h2M140 103h1M154 103h9M167 103h5M11 104h1M15 104h3M21 104h1M40 104h6M51 104h8M67 104h4M137 104h1M140 104h1M156 104h7M167 104h5M11 105h1M21 105h1M40 105h6M51 105h5M58 105h4M65 105h3M136 105h2M140 105h1M155 105h1M157 105h6M167 105h5M11 106h1M21 106h1M40 106h6M52 106h4M60 106h7M69 106h1M136 106h5M155 106h1M158 106h5M167 106h5M11 107h1M21 107h1M40 107h6M58 107h2M62 107h4M68 107h3M138 107h4M154 107h1M158 107h5M168 107h4M40 108h6M57 108h3M68 108h3M139 108h4M151 108h3M158 108h5M168 108h4M41 109h5M57 109h3M142 109h3M148 109h4M158 109h5M169 109h2M41 110h4M140 110h1M143 110h7M158 110h5M126 111h1M139 111h3M144 111h4M150 111h2M158 111h5M126 112h1M139 112h3M150 112h3M158 112h5M126 113h1M150 113h3M158 113h5M158 114h5M105 116h1M113 116h2M125 116h1M105 117h1M113 117h2M124 117h1M105 118h1M123 118h1M105 119h2M122 119h1M105 120h3M120 120h2M105 121h5M119 121h1M106 122h10M117 122h1M111 123h2M114 123h3" />
<path stroke="#4e2d1b" d="M86 23h2M82 24h1M86 24h1M81 25h1M90 26h1M90 27h1M83 28h1M90 28h1M83 29h1M83 30h1M89 30h1M82 31h2M91 38h1M88 39h1M91 39h1M93 45h2M93 46h2M92 47h1M92 48h1M92 49h1M92 50h3M92 51h2M97 52h1M97 53h1M95 54h1M97 54h1M95 55h1M97 55h1M95 56h1M97 56h1M126 75h3M135 75h1M126 76h3M135 76h2M126 77h2M139 78h1M138 79h2M131 81h2M131 82h2M14 90h1M21 90h3M13 91h2M21 91h3M22 92h2M10 93h1M10 94h2M17 96h2M17 97h2" />
<path stroke="#51211c" d="M148 27h1M168 37h1" />
<path stroke="#877b71" d="M115 28h1M114 29h4M114 30h5M114 31h2M118 31h1M117 33h2M117 34h2M117 35h2M117 36h2M117 37h2M117 38h2M117 39h2M113 40h2M117 40h2M113 41h2M117 41h2M113 42h2M117 42h1M113 43h2M117 43h1M113 44h2M113 45h2M150 47h4M114 48h1M150 48h7M114 49h1M152 49h6M113 50h2M155 50h3M113 51h3M151 51h2M113 52h3M151 52h2M113 53h3M151 53h1M113 54h1M115 54h1M115 55h1M150 55h1M115 56h1M150 56h1M115 57h2M150 57h1M115 58h2M150 58h1M154 58h2M113 59h4M150 59h1M154 59h2M113 60h2M116 60h1M150 60h1M153 60h3M113 61h2M150 61h2M153 61h3M113 62h2M150 62h2M153 62h1M155 62h1M113 63h2M116 63h2M150 63h2M153 63h1M155 63h1M113 64h1M116 64h2M150 64h2M153 64h3M116 65h2M150 65h2M153 65h3M116 66h2M150 66h2M153 66h3M117 67h1M150 67h2M154 67h2M117 68h2M150 68h2M154 68h2M114 69h1M116 69h3M155 69h1M115 70h3M117 71h1M117 72h2M118 73h1M118 74h1M118 75h1M154 75h1M118 76h1M154 76h1M154 77h1M151 78h2M154 78h1M151 79h2M154 79h1M150 81h2M150 82h1M150 83h1M150 84h1M150 85h1" />
<path stroke="#561919" d="M90 29h1M90 30h1M90 31h1M93 31h1M83 32h1M90 32h5M80 33h1M84 33h2M90 33h7M79 34h3M84 34h4M89 34h6M80 35h2M84 35h8M81 36h1M84 36h7M79 37h1M82 37h7M81 38h1M85 38h1M82 39h2M82 40h3M84 41h1M84 42h1M84 43h1M84 44h1M84 45h1M84 46h1M84 47h1M84 48h1M84 49h1M84 50h1M84 51h1M84 52h1M84 53h1M84 54h1M84 55h1M84 56h1M84 57h1M84 58h1M84 59h1M84 60h1M84 61h1M84 62h1M84 63h1M84 64h1M84 65h1M84 66h1M84 67h1M84 68h1M84 69h1M84 70h1M84 71h1M84 72h1M84 73h1M84 74h1M83 75h2M83 76h2" />
<path stroke="#5f371d" d="M64 30h1M62 31h1M60 32h1M58 33h2M56 34h2M54 35h2M53 37h1M53 38h1M53 39h1M53 40h1M53 41h1M53 42h1M53 43h1M53 44h1M53 45h1M53 46h1M53 47h1M53 48h1M53 49h1M53 50h1M53 51h1M53 52h1M53 53h1M53 54h1M53 55h1M53 56h1" />
<path stroke="#191515" d="M65 30h3M63 31h3M67 31h1M61 32h3M67 32h1M60 33h2M67 33h1M58 34h2M67 34h1M56 35h2M54 36h3M54 37h1M54 38h1M54 39h1M54 40h1M67 40h1M54 41h1M67 41h1M54 42h1M67 42h1M54 43h1M67 43h1M54 44h1M54 45h1M54 46h1M54 47h1M54 48h1M54 49h1M67 49h1M54 50h1M67 50h1M54 51h1M67 51h1M54 52h1M67 52h1M54 53h1M67 53h1M54 54h1M67 54h1M54 55h1M67 55h1M54 56h1M67 56h1M65 57h2M64 58h1M61 59h2M60 60h1" />
<path stroke="#4d1818" d="M93 30h1M78 32h2M95 32h2M78 33h2M76 34h2M95 34h1M79 35h1M92 35h2M80 36h1M90 37h1M84 38h1M88 38h1M44 41h2M82 41h2M44 42h1M82 42h2M41 43h2M82 43h2M40 44h2M78 44h6M39 45h2M47 45h2M78 45h6M38 46h1M47 46h2M78 46h6M47 47h1M78 47h6M35 48h1M47 48h1M78 48h6M35 49h1M47 49h1M78 49h6M35 50h1M47 50h1M78 50h6M35 51h1M47 51h1M78 51h6M35 52h2M78 52h6M35 53h2M44 53h2M78 53h6M35 54h2M41 54h3M78 54h6M35 55h2M41 55h2M78 55h6M35 56h2M78 56h6M35 57h1M78 57h6M78 58h6M78 59h6M78 60h6M78 61h6M78 62h6M78 63h6M78 64h6M78 65h6M78 66h6M78 67h6M78 68h6M78 69h6M78 70h6M78 71h6M78 72h6M79 73h5M81 74h3M36 85h3M85 85h1M36 86h2M39 86h1M36 87h3M81 87h1M36 88h2M76 89h1M78 89h1M76 90h1M48 104h2M46 105h1M48 105h3M46 106h1M48 106h1M131 118h2M130 119h1M127 120h2M125 121h1M123 122h2M119 124h1M117 125h1M115 126h1M114 127h2M110 128h1M112 128h3M111 129h1M108 130h1M106 131h1M102 132h1M104 132h1M101 133h3M98 134h1M95 136h3M96 137h2" />
<path stroke="#743934" d="M94 30h2M95 31h1M98 32h1M76 33h2" />
<path stroke="#503432" d="M96 30h1M79 31h1M96 31h2M97 32h1M75 33h1M99 33h2M75 34h1M75 35h1M75 36h1M75 37h1M75 38h1M75 39h1M75 40h1M75 41h1M75 42h1M75 43h1M75 44h1M75 45h1M75 46h1M75 47h1M75 48h1M75 49h1M75 50h1M75 51h1M75 52h1M75 53h1M75 54h1M75 55h1M75 56h1M75 57h1M75 58h1M75 59h1M75 60h1M75 61h1M75 62h1M75 63h1M75 64h1M75 65h1M75 66h1M75 67h1M75 68h1M75 69h1M75 70h1M75 71h1M75 72h1" />
<path stroke="#2b1616" d="M66 31h1M62 33h1M65 33h2M62 34h1M58 35h2M57 36h1M55 37h1M55 38h1M55 39h1M65 40h2M66 41h1M55 42h1M66 42h1M55 43h1M55 44h1M55 45h1M55 46h1M59 57h1M60 59h1M59 60h1" />
<path stroke="#483721" d="M68 31h1M68 55h1" />
<path stroke="#88827d" d="M116 31h2M114 32h1M116 32h3M114 33h1M116 33h1M116 34h1M116 35h1M115 36h2M115 37h2M115 38h2M115 39h2M115 40h2M115 41h2M115 42h2M118 42h1M115 43h2M118 43h1M115 44h4M115 45h4M115 46h4M117 47h2M117 48h1M117 49h1M150 49h2M117 50h1M150 50h5M116 51h2M150 51h1M153 51h5M116 52h2M150 52h1M153 52h5M116 53h2M150 53h1M152 53h5M114 54h1M116 54h2M152 54h5M113 55h2M116 55h2M152 55h5M113 56h2M116 56h1M152 56h5M113 57h2M152 57h5M113 58h2M117 58h2M152 58h2M156 58h1M117 59h2M153 59h1M156 59h1M115 60h1M117 60h2M156 60h1M115 61h4M152 61h1M156 61h1M115 62h4M152 62h1M154 62h1M156 62h1M115 63h1M118 63h1M152 63h1M154 63h1M156 63h1M118 64h1M152 64h1M156 64h1M118 65h2M152 65h1M156 65h1M118 66h2M152 66h1M156 66h1M115 67h2M118 67h2M152 67h1M156 67h1M115 68h2M119 68h1M152 68h1M156 68h1M115 69h1M119 69h1M152 69h1M154 69h1M156 69h1M118 70h2M154 70h3M116 71h1M118 71h2M150 71h2M154 71h3M119 72h2M150 72h2M153 72h4M120 73h1M150 73h1M153 73h4M120 74h1M150 74h1M153 74h1M120 75h1M150 75h1M153 75h1M155 75h1M120 76h1M150 76h1M153 76h1M155 76h2M118 77h3M150 77h1M153 77h1M155 77h2M153 78h1M155 78h2M153 79h1M155 79h2M149 80h1M151 80h6M149 81h1M153 81h4M149 82h1M153 82h4M149 83h1M153 83h4M149 84h1M152 84h5M152 85h5M152 86h5M154 87h3M156 88h1" />
<path stroke="#361717" d="M64 32h3M63 33h2M60 34h2M63 34h4M60 35h5M58 36h6M56 37h6M63 37h1M56 38h3M63 38h1M92 38h1M56 39h2M63 39h1M55 40h3M63 40h2M91 40h1M94 40h1M55 41h2M64 41h2M56 42h1M64 42h2M56 43h1M63 43h2M86 43h2M56 44h1M61 44h3M90 44h1M56 45h1M59 45h4M56 46h7M55 47h5M62 47h1M55 48h1M62 48h1M55 49h1M62 49h1M66 49h1M55 50h1M62 50h5M55 51h1M62 51h1M66 51h1M55 52h1M55 53h1M55 54h6M55 55h7M55 56h1M57 56h5M66 56h1M57 57h2M60 57h1M58 58h3M59 59h1" />
<path stroke="#291616" d="M68 32h1M68 33h1M68 34h1M68 35h1M68 39h1M68 40h1M68 41h1M68 42h1M68 43h1M68 44h1M68 45h1M68 46h1M68 47h1M68 48h1M68 49h1M68 50h1M68 51h1M68 52h1M68 53h1M68 54h1" />
<path stroke="#867571" d="M115 32h1M115 33h1M113 34h3M113 35h3M113 36h2M113 37h2M113 38h2M113 39h2M113 46h2M113 47h4M113 48h1M115 48h2M118 48h1M113 49h1M115 49h2M118 49h1M115 50h2M118 50h1M118 51h1M118 52h1M118 53h1M118 54h1M150 54h2M118 55h1M151 55h1M117 56h2M151 56h1M117 57h2M151 57h1M151 58h1M151 59h2M151 60h2M114 64h2M113 65h3M113 66h3M113 67h2M153 67h1M113 68h2M153 68h1M150 69h2M153 69h1M150 70h4M152 71h2M152 72h1M119 73h1M151 73h2M119 74h1M151 74h2M154 74h3M119 75h1M151 75h2M156 75h1M119 76h1M151 76h2M151 77h2M150 78h1M149 79h2M150 80h1M152 81h1M151 82h2M151 83h2M151 84h1M151 85h1" />
<path stroke="#1c1515" d="M65 35h3M64 36h1M67 36h2M64 37h1M68 37h1M64 38h1M68 38h1M61 39h2M64 39h4M59 40h2M62 40h1M57 41h2M62 41h1M57 42h1M62 42h1M57 43h1M61 43h2M66 43h1M57 44h1M59 44h2M65 44h3M57 45h2M64 45h1M67 45h1M63 46h1M67 46h1M63 47h1M67 47h1M58 48h4M63 48h1M66 48h2M56 49h3M61 49h1M63 49h3M56 50h1M61 50h1M56 51h1M60 51h2M56 52h1M59 52h3M63 52h4M56 53h4M62 53h2M66 53h1M61 54h1M66 54h1M66 55h1M65 56h1M61 57h1M64 57h1M61 58h3" />
<path stroke="#321616" d="M119 35h2M119 36h1M121 36h1M119 37h1M121 37h1M119 38h1M121 38h1M119 39h1M121 39h1M124 39h1M119 40h1M121 40h1M124 40h1M119 41h1M121 41h1M124 41h1M119 42h1M121 42h1M124 42h1M119 43h1M121 43h1M124 43h1M119 44h1M121 44h1M124 44h1M136 44h1M119 45h1M121 45h1M124 45h1M137 45h1M121 46h1M124 46h1M137 46h1M121 47h1M124 47h1M137 47h1M121 48h1M124 48h1M137 48h1M121 49h1M124 49h1M137 49h1M121 50h1M124 50h1M137 50h1M149 50h1M121 51h1M124 51h1M137 51h1M149 51h1M121 52h1M124 52h1M137 52h1M149 52h1M121 53h1M124 53h1M137 53h1M149 53h1M121 54h1M124 54h1M137 54h1M149 54h1M121 55h1M124 55h1M137 55h1M149 55h1M162 55h1M165 55h1M121 56h1M124 56h1M137 56h1M149 56h1M161 56h1M166 56h1M121 57h1M124 57h1M137 57h1M149 57h1M160 57h1M167 57h1M121 58h1M124 58h1M137 58h1M149 58h1M159 58h1M168 58h1M121 59h1M124 59h1M137 59h1M149 59h1M168 59h1M121 60h1M124 60h1M137 60h1M149 60h1M121 61h1M124 61h3M137 61h1M149 61h1M121 62h1M123 62h6M137 62h1M149 62h1M121 63h2M127 63h4M137 63h1M149 63h1M120 64h2M129 64h4M137 64h1M149 64h1M120 65h4M131 65h2M137 65h1M149 65h1M122 66h4M137 66h1M149 66h1M124 67h2M137 67h3M149 67h1M138 68h4M149 68h1M130 69h2M140 69h4M149 69h1M130 70h3M142 70h4M149 70h1M132 71h1M134 71h2M144 71h4M149 71h1M134 72h4M147 72h1M149 72h1M136 73h3M147 73h1M149 73h1M138 74h1M147 74h1M149 74h1M142 75h2M147 75h1M149 75h1M142 76h4M144 77h5M146 78h3M173 109h2M172 110h4M170 111h7M168 112h8M167 113h7M164 114h8M162 115h8M160 116h8M158 117h8M156 118h8M154 119h8M152 120h8M150 121h8M148 122h8M146 123h8M144 124h8M142 125h8M140 126h8M138 127h8M136 128h8M134 129h8M132 130h8M130 131h8M128 132h8M126 133h8M124 134h8M122 135h8M120 136h8M118 137h8M116 138h8M114 139h8M112 140h8M110 141h8M108 142h8M106 143h8M104 144h8M102 145h8M100 146h8M98 147h8M96 148h8M94 149h8M92 150h8M89 151h9M90 152h6M90 153h4M90 154h2" />
<path stroke="#5e4330" d="M121 35h1M122 36h2M124 37h2M126 38h2M128 39h2M130 40h2M132 41h2M134 42h2M136 43h2M137 44h3M140 45h2M142 46h2M144 47h2M146 48h2M148 49h2M121 66h1M123 67h1M125 68h1M131 71h1M135 73h1M137 74h1M141 76h1M143 77h1M145 78h1" />
<path stroke="#887a6d" d="M65 36h2M65 37h1M66 38h2M61 40h1M59 41h3M58 42h1M61 42h1M59 43h2M58 44h1M65 45h2M64 46h3M66 47h1M64 48h2M59 49h1M57 50h3M57 52h2M64 53h1M62 54h3M64 56h1" />
<path stroke="#3c1717" d="M77 36h1M77 37h1M77 38h1M77 43h1M77 44h1M77 45h1M77 46h1M77 47h1M77 48h1M77 49h1M77 50h1M77 51h1M77 52h1M77 53h1M77 54h1M77 55h1M77 56h1M77 57h1M77 58h1M77 59h1M77 60h1M77 61h1M77 62h1M77 63h1M77 64h1M77 65h1M77 66h1M77 67h1M77 68h1M77 69h1M77 70h1M77 71h1M77 72h1M77 73h2M79 74h2M80 75h3M137 110h1" />
<path stroke="#543927" d="M120 36h1M120 37h1M120 38h1M120 39h1M120 40h1M120 41h1M120 42h1M120 43h1M120 44h1M120 45h1M120 46h1M120 47h1M120 48h1M120 49h1M120 50h1M120 51h1M120 52h1M120 53h1M120 54h1M120 55h1M120 56h1M120 57h1M120 58h1M120 59h1M120 60h1M120 61h1M120 62h1M120 63h1" />
<path stroke="#3d1717" d="M62 37h1M59 38h4M58 39h3M58 40h1M63 41h1M63 42h1M65 43h1M64 44h1M63 45h1M60 47h2M56 48h2M63 51h3M62 52h1M60 53h2M35 85h1M35 86h1M35 87h1" />
<path stroke="#47423c" d="M66 37h2M65 38h1M59 42h2M58 43h1M64 47h2M60 49h1M60 50h1M57 51h3M65 53h1M65 54h1M62 55h4M62 56h2M62 57h2" />
<path stroke="#4a2d1a" d="M122 37h2M122 38h4M122 39h2M126 39h2M122 40h2M128 40h2M122 41h2M130 41h2M122 42h2M132 42h2M122 43h2M134 43h2M122 44h2M135 44h1M122 45h2M135 45h1M138 45h2M122 46h2M135 46h1M140 46h2M122 47h2M135 47h1M142 47h2M122 48h2M135 48h1M144 48h2M122 49h2M135 49h1M146 49h2M122 50h2M135 50h1M148 50h1M122 51h2M135 51h1M148 51h1M122 52h2M135 52h1M148 52h1M122 53h2M135 53h1M148 53h1M122 54h2M135 54h1M148 54h1M122 55h2M135 55h1M148 55h1M122 56h2M135 56h1M148 56h1M122 57h2M135 57h1M148 57h1M122 58h2M135 58h1M148 58h1M122 59h2M135 59h1M148 59h1M122 60h2M135 60h1M148 60h1M122 61h2M135 61h1M148 61h1M122 62h1M135 62h1M148 62h1M123 63h4M135 63h1M148 63h1M122 64h7M148 64h1M124 65h7M148 65h1M126 66h1M129 66h3M136 66h1M148 66h1M130 67h2M136 67h1M148 67h1M130 68h2M136 68h2M148 68h1M136 69h4M148 69h1M134 70h5M148 70h1M136 71h3M142 71h2M148 71h1M138 72h1M142 72h5M148 72h1M142 73h5M148 73h1M142 74h5M148 74h1M144 75h3M148 75h1M146 76h3" />
<path stroke="#72483f" d="M47 38h3M45 39h2M50 39h1M43 40h2M50 40h1M42 41h1M50 41h1M40 42h2M50 42h1M38 43h2M50 43h1M36 44h2M50 44h1M34 45h2M50 45h1M34 46h1M50 46h1M34 47h1M50 47h1M34 48h1M50 48h1M34 49h1M50 49h1M34 50h1M50 50h1M34 51h1M50 51h1M34 52h1M50 52h1M34 53h1M50 53h1M34 54h1M49 54h2M34 55h1M47 55h2M34 56h1M45 56h2M34 57h1M43 57h2M34 58h1M41 58h2M34 59h1M39 59h2M35 60h1M38 60h1" />
<path stroke="#621a19" d="M47 39h2M45 40h2M43 41h1M42 42h1M40 43h1M36 45h2M46 55h1M44 56h1M42 57h1M38 59h1M36 60h2" />
<path stroke="#1a1515" d="M49 39h1M47 42h1M47 43h1M47 44h1M37 48h1M37 49h1M37 50h1M37 51h1M37 52h1M46 52h1M37 53h1M49 53h1M37 54h1M47 54h2M37 55h4M38 56h1M43 56h1M39 58h2M37 59h1" />
<path stroke="#0e0f1b" d="M125 39h1M125 40h3M125 41h5M125 42h7M125 43h9M125 44h10M125 45h2M128 45h7M125 46h4M130 46h5M138 46h2M125 47h10M138 47h4M125 48h10M138 48h6M125 49h10M138 49h8M125 50h7M133 50h2M138 50h10M125 51h6M132 51h3M138 51h10M125 52h6M132 52h3M138 52h10M125 53h2M128 53h4M133 53h2M138 53h3M142 53h6M125 54h10M138 54h10M125 55h10M138 55h10M125 56h10M138 56h10M125 57h8M134 57h1M138 57h10M125 58h10M138 58h10M125 59h10M138 59h10M125 60h10M138 60h10M127 61h8M138 61h10M129 62h6M138 62h7M146 62h2M131 63h4M138 63h1M140 63h8M133 64h2M138 64h10M138 65h10M138 66h10M140 67h8M142 68h6M144 69h4M146 70h2" />
<path stroke="#481818" d="M47 40h3M46 41h4M43 42h1M45 42h2M48 42h2M43 43h2M48 43h2M38 44h2M42 44h1M48 44h2M38 45h1M49 45h1M35 46h3M39 46h1M49 46h1M35 47h3M48 47h2M36 48h1M48 48h2M36 49h1M48 49h2M36 50h1M48 50h2M36 51h1M48 51h2M47 52h3M46 53h3M44 54h3M43 55h3M37 56h1M39 56h4M36 57h6M35 58h4M35 59h2M95 85h1M92 86h1M95 86h3M90 87h3M95 87h5M89 88h4M95 88h4M100 88h2M87 89h6M95 89h4M103 89h1M85 90h7M97 90h2M103 90h3M99 91h3M103 91h5M79 93h2M83 93h1M87 93h6M94 93h6M104 93h2M78 94h3M83 94h1M85 94h7M94 94h6M104 94h2M111 94h2M76 95h5M83 95h9M94 95h8M103 95h7M111 95h4M74 96h1M79 96h2M83 96h9M94 96h2M97 96h5M103 96h5M111 96h1M114 96h3M82 97h10M94 97h8M103 97h7M112 97h1M117 97h2M100 98h1M103 98h7M112 98h9M79 99h2M83 99h7M120 99h2M77 100h4M83 100h9M94 100h7M103 100h5M111 100h1M75 101h6M85 101h6M94 101h2M100 101h1M103 101h5M111 101h7M123 101h3M75 102h6M82 102h1M85 102h3M89 102h2M93 102h8M103 102h7M111 102h4M116 102h2M123 102h1M126 102h2M73 103h8M82 103h1M85 103h2M89 103h2M93 103h8M103 103h7M111 103h11M123 103h1M128 103h2M73 104h8M82 104h1M84 104h2M89 104h2M93 104h8M103 104h1M106 104h4M111 104h7M119 104h2M123 104h3M130 104h2M70 105h1M73 105h7M82 105h4M88 105h3M93 105h8M102 105h2M106 105h4M111 105h10M123 105h5M130 105h4M70 106h1M73 106h7M82 106h9M92 106h7M111 106h1M115 106h6M123 106h9M134 106h1M67 107h1M73 107h2M131 107h3M82 108h9M92 108h9M102 108h7M111 108h6M69 109h1M72 109h5M79 109h1M81 109h4M90 109h1M92 109h9M102 109h7M111 109h6M126 109h1M130 109h5M139 109h1M52 110h5M67 110h2M72 110h5M79 110h1M81 110h3M87 110h2M90 110h1M92 110h3M96 110h5M102 110h1M105 110h5M111 110h2M134 110h1M49 111h3M56 111h3M60 111h4M66 111h3M72 111h5M79 111h1M81 111h4M86 111h2M90 111h1M92 111h3M97 111h4M102 111h1M106 111h3M127 111h2M132 111h3M48 112h4M57 112h2M61 112h10M72 112h5M79 112h1M81 112h10M92 112h3M97 112h4M102 112h2M107 112h1M127 112h8M53 113h2M57 113h2M60 113h11M72 113h8M81 113h9M92 113h8M102 113h3M127 113h6M127 114h4M54 115h5M60 115h3M66 115h4M72 115h1M76 115h3M81 115h9M92 115h8M102 115h3M56 116h2M60 116h2M69 116h1M72 116h1M76 116h3M81 116h9M92 116h2M97 116h3M102 116h3M126 116h1M60 117h2M64 117h6M72 117h7M81 117h9M92 117h2M95 117h5M102 117h3M125 117h1M60 118h2M66 118h2M69 118h1M74 118h5M80 118h10M92 118h6M99 118h1M103 118h2M62 119h2M66 119h4M71 119h8M80 119h10M91 119h9M102 119h3M64 120h5M73 120h4M78 120h1M80 120h1M83 120h2M91 120h9M101 120h4M65 121h4M74 121h2M78 121h1M80 121h1M83 121h2M91 121h3M67 122h2M71 122h2M82 123h8M92 123h1M98 123h2M101 123h7M71 124h7M80 124h10M92 124h8M101 124h8M110 124h2M73 125h5M79 125h11M92 125h8M101 125h1M105 125h4M75 126h3M79 126h1M81 126h9M92 126h8M101 126h1M104 126h4M77 127h1M79 127h1M82 127h2M86 127h4M92 127h8M101 127h5M79 128h2M86 128h4M91 128h5M99 128h1M101 128h3M88 130h2M91 130h1M84 131h6M91 131h7M87 132h2M93 132h4M88 133h1M93 133h2M92 134h1" />
<path stroke="#211515" d="M90 41h2M86 42h1M90 42h2M90 43h2M86 44h4M96 44h1M86 45h1M96 45h1M96 46h1M87 47h2M91 47h1M93 47h2M96 47h1M31 48h1M86 48h3M91 48h1M93 48h2M96 48h1M27 49h1M31 49h1M86 49h1M89 49h3M93 49h2M96 49h1M26 50h1M31 50h1M86 50h1M91 50h1M96 50h1M24 51h1M31 51h1M86 51h1M91 51h1M22 52h1M31 52h1M86 52h2M89 52h1M91 52h2M20 53h1M31 53h1M86 53h2M89 53h1M20 54h1M31 54h1M86 54h3M18 55h2M31 55h1M86 55h2M18 56h2M31 56h1M18 57h2M31 57h1M18 58h2M31 58h1M18 59h2M31 59h1M87 59h1M18 60h2M31 60h1M86 60h2M18 61h2M31 61h1M87 61h1M89 61h1M18 62h2M31 62h1M87 62h1M18 63h2M31 63h1M19 64h1M31 64h1M19 65h1M31 65h1M19 66h1M31 66h1M19 67h1M31 67h1M19 68h1M31 68h1M19 69h1M31 69h1M19 70h1M31 70h1M19 71h1M19 72h1M19 73h1M19 74h1" />
<path stroke="#391b17" d="M0 42h1M0 43h2M0 44h2M0 45h4M0 46h2M3 46h1M0 47h2M3 47h1M0 48h2M3 48h1M0 49h2M3 49h1M0 50h2M3 50h1M0 51h2M3 51h1M0 52h2M3 52h1M0 53h2M3 53h1M0 54h2M3 54h1M0 55h2M3 55h1M0 56h2M3 56h1M0 57h2M3 57h1M0 58h2M3 58h1M0 59h2M3 59h1M0 60h2M3 60h1M0 61h2M3 61h1M0 62h2M3 62h1M0 63h2M3 63h1M0 64h2M3 64h1M0 65h2M3 65h1M0 66h2M3 66h1M0 67h2M3 67h1M0 68h2M3 68h1M0 69h2M3 69h1M0 70h2M3 70h1M0 71h2M3 71h1M0 72h2M3 72h1M0 73h2M3 73h1M0 74h2M3 74h1M0 75h2M3 75h1M0 76h2M3 76h1M0 77h2M3 77h1M0 78h2M3 78h1M0 79h2M3 79h1M0 80h2M3 80h1M0 81h2M3 81h1M0 82h2M3 82h1M0 83h2M3 83h1M0 84h2M3 84h1M0 85h2M3 85h1M0 86h2M3 86h1M0 87h2M3 87h1M0 88h2M3 88h1M0 89h2M3 89h1M0 90h2M3 90h1M0 91h2M3 91h1M0 92h2M3 92h1M0 93h2M3 93h1M0 94h2M3 94h1M0 95h2M3 95h1M0 96h2M3 96h1M0 97h2M3 97h1M0 98h2M3 98h1M0 99h2M3 99h1M0 100h2M3 100h1M0 101h2M3 101h1M0 102h2M3 102h1M0 103h2M3 103h1M0 104h2M3 104h1M0 105h2M3 105h1M0 106h2M3 106h1M0 107h2M3 107h1M0 108h2M3 108h1M0 109h4M0 110h3" />
<path stroke="#8b8280" d="M127 45h1M129 46h1M132 50h1M131 51h1M131 52h1M127 53h1M132 53h1M141 53h1M133 57h1M145 62h1M139 63h1" />
<path stroke="#422419" d="M136 45h1M136 46h1M136 47h1M136 48h1M136 49h1M136 50h1M136 51h1M136 52h1M136 53h1M136 54h1M136 55h1M136 56h1M136 57h1M136 58h1M136 59h1M136 60h1M136 61h1M136 62h1M136 63h1M136 64h1M136 65h1" />
<path stroke="#7a736f" d="M119 46h1M119 47h1M119 51h1M119 52h1M119 53h1M119 54h1M119 55h1M119 56h1M119 57h1M119 58h1M119 59h1M119 60h1M119 61h1M119 62h1M119 63h1M119 64h1M149 76h1M149 77h1" />
<path stroke="#5a4635" d="M28 47h2M32 47h1M25 48h2M32 48h1M24 49h2M32 49h1M23 50h1M32 50h1M21 51h2M32 51h1M20 52h1M32 52h1M18 53h1M32 53h1M18 54h1M32 54h1M32 55h1M32 56h1M32 57h1M32 58h1M32 59h1M32 60h1M32 61h1M32 62h1M32 63h1M32 64h1M32 65h1M32 66h1M32 67h1M32 68h1M32 69h1M32 70h1M31 71h2M31 72h2M30 73h1M28 74h2M26 75h3M24 76h3M22 77h3M18 78h4" />
<path stroke="#161515" d="M30 47h2M27 48h2M26 49h1M24 50h2M23 51h1M21 52h1M19 53h1M19 54h1M18 64h1M18 65h1M18 66h1M18 67h1M18 68h1M18 69h1M18 70h1M18 71h1M18 72h1M30 72h1M18 73h1M29 73h1M18 74h1M27 74h1M18 75h1M25 75h1M18 76h1M23 76h1M18 77h4M70 83h2M68 84h4M67 85h6M65 86h8M64 87h9M138 87h2M64 88h9M138 88h4M64 89h9M137 89h6M64 90h9M137 90h8M64 91h9M137 91h9M64 92h8M137 92h9M64 93h7M137 93h9M64 94h6M137 94h9M64 95h5M137 95h9M64 96h2M68 96h1M138 96h8M68 97h1M139 97h7M68 98h1M140 98h6M68 99h1M141 99h5M68 100h1M141 100h1M144 100h2M68 101h1M141 101h1M68 102h1M141 102h1M141 103h1M141 104h1M141 105h1M141 106h1" />
<path stroke="#182e33" d="M44 47h3M42 48h4M41 49h5M40 50h5M39 51h4M46 51h1M39 52h3M39 53h2" />
<path stroke="#341c17" d="M29 48h2M28 49h1M30 71h1M29 72h1M28 73h1M25 74h2M19 75h1M24 75h1M19 76h2M22 76h1" />
<path stroke="#786763" d="M119 48h1M119 49h1M119 50h1M149 78h1" />
<path stroke="#786f67" d="M29 49h2M30 50h1M25 51h1M30 51h1M23 52h1M25 52h1M21 53h3M21 54h1M20 69h1M20 70h1M30 70h1M20 71h1M29 71h1M20 72h1M28 72h1M20 73h1M25 73h3M20 74h1M23 74h2M20 75h2M23 75h1M21 76h1" />
<path stroke="#897f76" d="M27 50h3M26 51h4M24 52h1M26 52h5M24 53h7M22 54h2M26 54h1M28 54h3M20 55h4M26 55h5M20 56h2M23 56h1M26 56h1M29 56h2M20 57h4M29 57h2M20 58h3M28 58h3M20 59h1M26 59h5M20 60h1M23 60h1M26 60h5M20 61h4M26 61h1M28 61h3M20 62h2M23 62h1M26 62h5M20 63h11M20 64h7M29 64h2M20 65h6M29 65h2M20 66h4M29 66h2M20 67h3M29 67h2M20 68h1M29 68h2M29 69h2M28 70h2M27 71h2M25 72h3M23 73h2M21 74h2M22 75h1" />
<path stroke="#503a29" d="M17 54h1M17 55h1M17 56h1M17 57h1M17 58h1M17 59h1M17 60h1M17 61h1M17 62h1M17 63h1M17 64h1M17 65h1M17 66h1M17 67h1M17 68h1M17 69h1M17 70h1M17 71h1M17 72h1M17 73h1M17 74h1M17 75h1M17 76h1M17 77h1" />
<path stroke="#621a1a" d="M24 54h2M27 54h1M24 55h2M22 56h1M24 56h2M27 56h2M24 57h5M23 58h5M21 59h5M21 60h2M24 60h2M24 61h2M27 61h1M22 62h1M24 62h2M12 104h3M18 104h2M13 105h6M13 106h7M12 107h1M14 107h5M13 108h4M15 109h1M17 109h1" />
<path stroke="#2c031d" d="M56 56h1M58 59h1M58 60h1" />
<path stroke="#00001b" d="M54 57h3M37 67h1M37 68h1M37 69h1M37 70h1M37 71h1M57 71h1M37 72h1M55 72h2M37 73h1M53 73h2M37 74h1M51 74h2M37 75h1M49 75h2M37 76h1M47 76h2M37 77h1M45 77h2M37 78h1M43 78h2M37 79h1M41 79h2M37 80h4" />
<path stroke="#0d132f" d="M53 58h4M51 59h4M56 59h1M49 60h4M56 60h1M47 61h4M46 62h3M44 63h3M42 64h3M40 65h3M38 66h3M38 67h2M38 68h1M38 69h1M38 70h1M38 71h1M38 72h1M38 73h1M38 74h1M38 75h1M38 76h1" />
<path stroke="#232221" d="M57 58h1" />
<path stroke="#d5c3b9" d="M55 59h1M53 60h3M51 61h5M49 62h3M55 62h1M47 63h4M55 63h1M45 64h6M55 64h1M43 65h8M55 65h1M41 66h10M54 66h2M40 67h11M52 67h4M40 68h16M40 69h16M40 70h15M40 71h13M40 72h11M40 73h9M40 74h7M40 75h5M40 76h3M40 77h1" />
<path stroke="#131c38" d="M57 59h1M57 60h1M57 61h1M57 62h1M57 63h1M57 64h1M57 65h1M57 66h1M57 67h1M57 68h1M57 69h1M57 70h1M49 76h1M47 77h3M47 78h2M48 79h1" />
<path stroke="#2a1616" d="M98 59h1" />
<path stroke="#8c7e65" d="M159 59h2M159 60h1M167 60h2M160 61h9M159 62h10M159 63h1M167 63h1M159 64h3M163 64h2M167 64h2M159 65h1M167 65h2M159 66h1M166 66h1M168 66h1M159 67h1M161 67h1M167 67h2M159 68h3M167 68h2M159 69h1M167 69h2M162 70h1M165 70h3M158 71h1M160 71h2M164 71h3M168 71h1M161 72h1M164 72h1M168 72h1M161 73h1M163 73h1M165 73h1M163 74h1" />
<path stroke="#725350" d="M96 60h3M95 61h2M89 64h1M87 65h2M87 66h1M87 67h1M87 68h1M87 69h1M87 70h1M87 71h1M87 72h1M87 73h1M87 74h1M90 75h1" />
<path stroke="#251616" d="M99 60h1M99 61h1M99 62h1M99 63h1M99 71h1" />
<path stroke="#8a7b63" d="M160 60h1M166 63h1" />
<path stroke="#836f58" d="M161 60h1" />
<path stroke="#7e6f54" d="M162 60h1M166 60h1M159 61h1M168 63h1M160 66h2M166 68h1M160 69h2M166 69h1M160 70h2M162 71h2M162 72h2M157 79h1M157 80h1M166 82h1M166 83h2M166 84h2" />
<path stroke="#1d2b6a" d="M56 61h1M56 62h1M56 63h1M56 64h1M56 65h1M56 66h1M56 67h1M39 68h1M56 68h1M39 69h1M56 69h1M39 70h1M55 70h2M39 71h1M53 71h4M39 72h1M51 72h4M39 73h1M49 73h4M39 74h1M47 74h4M39 75h1M45 75h4M39 76h1M43 76h4M38 77h2M41 77h4M38 78h5M38 79h3" />
<path stroke="#09001d" d="M58 61h1" />
<path stroke="#533330" d="M94 61h1M91 63h1" />
<path stroke="#1c1918" d="M45 62h1M43 63h1M41 64h1M39 65h1M158 91h1M161 91h1M158 92h4M158 93h4" />
<path stroke="#314455" d="M52 62h3M51 63h4M51 64h4M51 65h4M51 66h3M51 67h1" />
<path stroke="#876960" d="M58 62h1M58 63h1M58 64h1M58 65h1M58 66h1M58 67h2M58 68h3M58 69h5M62 70h2M64 71h1M65 72h1M67 73h1M69 74h1" />
<path stroke="#897b62" d="M160 63h1" />
<path stroke="#602e1c" d="M161 63h1M164 63h1M164 65h1M166 67h1" />
<path stroke="#847059" d="M162 63h1M165 63h1" />
<path stroke="#85715b" d="M163 63h1" />
<path stroke="#371717" d="M99 64h1M99 65h1M99 66h1" />
<path stroke="#75281c" d="M162 64h1M165 64h2M162 65h2M165 65h1M163 66h1" />
<path stroke="#897961" d="M160 65h1" />
<path stroke="#612e1c" d="M161 65h1M158 80h2M158 81h2M158 82h2" />
<path stroke="#651a1a" d="M166 65h1" />
<path stroke="#261616" d="M162 66h1M164 66h2M162 67h2M165 67h1M90 68h1M162 68h2M165 68h1M94 69h1M162 69h1M164 69h2M163 70h2M91 72h1M159 87h2M158 88h2M161 88h1M157 89h1M159 89h3M157 90h4M162 90h1M138 109h1" />
<path stroke="#8a7c63" d="M167 66h1" />
<path stroke="#8b7d65" d="M160 67h1M157 76h1M157 77h2M157 78h2M158 79h1M165 80h2M157 81h1M165 81h3M165 82h1M167 82h1M165 83h1M160 88h1M158 89h1M161 90h1" />
<path stroke="#161c2e" d="M108 69h2M107 70h2M114 70h1M106 71h5M114 71h2M105 72h2M112 72h2M115 72h2M104 73h2M109 73h1M103 74h2M109 74h1M113 74h2M103 75h2M109 75h1M114 75h2M104 76h1M109 76h1M114 76h2M117 76h1M104 77h2M109 77h1M117 77h1M105 78h1M109 78h1M115 78h1M117 78h1M105 79h1M115 79h1M117 79h1M109 81h2M119 107h2M122 107h2M117 108h2M124 108h2M124 109h2M117 110h1M125 110h1M114 111h2M117 111h1M125 111h1M111 112h1M111 113h1M113 113h1M107 114h1M114 114h1M107 115h5M115 115h2M106 116h2M110 116h2M119 116h1M123 116h1M106 117h2M117 117h1M120 117h4M111 118h2M117 118h1M120 118h2M111 119h2M114 119h2M108 120h4M116 120h2M108 123h3M113 123h1" />
<path stroke="#182b3e" d="M110 69h3M106 70h1M109 70h5M58 71h2M105 71h1M111 71h3M57 72h2M60 72h1M104 72h1M107 72h5M114 72h1M55 73h4M103 73h1M106 73h3M110 73h8M53 74h6M105 74h4M110 74h3M115 74h3M51 75h8M105 75h4M110 75h4M116 75h2M51 76h8M105 76h4M110 76h4M116 76h1M51 77h8M106 77h3M110 77h7M45 78h1M54 78h1M106 78h3M110 78h5M116 78h1M43 79h3M106 79h9M116 79h1M41 80h5M107 80h11M38 81h6M71 81h1M108 81h1M111 81h5M38 82h5M37 83h7M35 84h9M33 85h2M39 85h3M31 86h4M38 86h1M40 86h2M29 87h5M40 87h1M29 88h5M39 88h2M30 89h5M38 89h3M32 90h8M34 91h6M36 92h3M38 93h1M121 107h1M119 108h5M117 109h7M113 110h4M118 110h7M126 110h1M109 111h5M116 111h1M118 111h7M108 112h3M112 112h14M107 113h4M112 113h1M114 113h12M106 114h1M108 114h6M115 114h12M105 115h2M112 115h3M117 115h9M108 116h2M112 116h1M115 116h4M120 116h3M124 116h1M108 117h5M115 117h2M118 117h2M106 118h5M113 118h4M118 118h2M122 118h1M107 119h4M113 119h1M116 119h6M112 120h4M118 120h2M110 121h9M116 122h1" />
<path stroke="#161f31" d="M58 70h4M60 71h3M61 72h4M66 73h1M67 74h2M67 75h4M69 76h4M71 77h4M73 78h3M73 79h3M36 81h2M34 82h4M32 83h5M30 84h5M28 85h5M26 86h5M26 87h3M25 88h1M27 88h2M28 89h2M30 90h2M31 91h3M32 92h4M34 93h4M36 94h2" />
<path stroke="#735727" d="M59 72h1M59 73h1M59 74h1M60 75h1M61 76h1" />
<path stroke="#6c2a1c" d="M100 72h3M100 73h3M98 74h5M96 75h6M73 76h5M94 76h7M75 77h5M91 77h9M76 78h5M89 78h11M76 79h24M76 80h24M76 81h25M117 81h3M76 82h25M116 82h6M76 83h26M115 83h9M76 84h12M89 84h1M95 84h7M114 84h12M76 85h9M86 85h1M88 85h1M96 85h8M112 85h16M76 86h8M86 86h1M98 86h30M76 87h5M82 87h1M84 87h2M100 87h29M76 88h5M82 88h2M102 88h26M77 89h1M80 89h2M104 89h24M77 90h1M106 90h22M108 91h20M75 92h1M109 92h19M111 93h18M113 94h16M115 95h14M117 96h12M119 97h11M121 98h14M123 99h12M124 100h11M23 101h2M126 101h9M22 102h4M32 102h2M128 102h7M22 103h5M31 103h8M130 103h5M23 104h17M132 104h3M23 105h17M23 106h17M23 107h17M46 107h1M23 108h17M46 108h1M9 109h1M23 109h18M8 110h3M22 110h19M10 111h2M21 111h26M12 112h36M14 113h36M16 114h36M137 114h1M154 114h4M18 115h36M137 115h5M149 115h13M20 116h36M133 116h1M135 116h25M22 117h36M133 117h25M24 118h36M133 118h23M26 119h36M127 119h3M131 119h23M28 120h36M129 120h23M30 121h35M123 121h1M126 121h24M32 122h35M125 122h23M34 123h35M119 123h1M121 123h1M124 123h22M36 124h35M117 124h1M120 124h24M38 125h35M116 125h1M118 125h24M40 126h35M114 126h1M116 126h24M42 127h35M113 127h1M116 127h22M44 128h35M111 128h1M115 128h21M46 129h35M108 129h1M110 129h1M112 129h22M48 130h34M107 130h1M109 130h23M50 131h34M103 131h3M107 131h23M52 132h34M103 132h1M105 132h23M54 133h34M100 133h1M104 133h22M56 134h34M99 134h25M58 135h34M96 135h1M100 135h22M60 136h35M98 136h22M62 137h34M98 137h20M64 138h52M66 139h48M68 140h44M70 141h40M72 142h36M74 143h32M76 144h28M78 145h24M80 146h20M82 147h16M84 148h12M86 149h8M88 150h4" />
<path stroke="#5b441d" d="M60 73h6M60 74h3M61 75h1M66 79h1M62 81h2M65 81h1M62 82h3" />
<path stroke="#461818" d="M74 73h2M72 74h5M71 75h8M102 75h1M78 76h2M101 76h2M80 77h2M100 77h3M81 78h2M100 78h3M100 79h3M100 80h4M101 81h3M101 82h4M102 83h4M102 84h7M113 84h1M104 85h8M33 94h3M32 95h4M53 95h2M129 95h1M32 96h4M51 96h2M129 96h3M134 96h2M32 97h4M50 97h2M130 97h6M32 98h4M48 98h4M135 98h1M24 99h1M32 99h5M47 99h5M135 99h1M22 100h3M32 100h8M46 100h6M135 100h1M22 101h1M32 101h8M46 101h6M135 101h1M21 102h1M34 102h6M46 102h6M135 102h1M39 103h1M46 103h4M135 103h1M163 103h3M22 104h1M46 104h2M135 104h2M163 104h3M22 105h1M47 105h1M134 105h2M156 105h1M163 105h4M10 106h1M22 106h1M47 106h1M49 106h2M156 106h2M163 106h4M8 107h3M22 107h1M47 107h1M156 107h2M163 107h5M172 107h1M7 108h4M21 108h2M155 108h3M163 108h5M172 108h1M7 109h2M10 109h2M21 109h2M154 109h4M163 109h6M171 109h2M11 110h2M20 110h2M153 110h5M163 110h9M12 111h9M152 111h6M163 111h7M143 112h1M147 112h3M153 112h5M163 112h5M139 113h1M141 113h9M153 113h5M163 113h4M140 114h14M142 115h7" />
<path stroke="#453721" d="M63 74h3M64 75h2M65 76h2M60 77h3M62 78h1M62 79h1M65 79h1M62 80h1M65 80h2" />
<path stroke="#28201d" d="M66 74h1M66 75h1" />
<path stroke="#af8a7d" d="M59 75h1M59 76h1M60 78h2M58 79h3M58 80h3M59 81h2M60 82h2M50 87h2M50 88h3M50 89h2" />
<path stroke="#4d3b20" d="M62 75h2M62 76h3M63 77h4M63 78h4M63 79h2M63 80h2M64 81h1" />
<path stroke="#00001a" d="M50 76h1M50 77h1M46 78h1M49 78h5M59 78h1M46 79h2M49 79h5M46 80h2M49 80h3M44 81h8M43 82h6M44 83h3M57 94h2M40 97h2M45 97h1M40 98h4M45 98h1M40 99h4M45 99h1M40 100h4M45 100h1" />
<path stroke="#6e5733" d="M60 76h1M61 79h1M61 80h1M61 81h1" />
<path stroke="#19121d" d="M67 76h1M67 77h1M67 78h1M67 79h1M67 80h1" />
<path stroke="#002355" d="M68 76h1M68 77h3M68 78h5M70 79h3M61 86h1" />
<path stroke="#cebab2" d="M59 77h1" />
<path stroke="#0048ae" d="M55 78h4M54 79h4M68 79h2M52 80h4M68 80h5M52 81h2M68 81h1M49 82h3M47 83h3M60 83h1M44 84h5M60 84h1M42 85h5M58 85h2M42 86h3M57 86h2M41 87h3M56 87h2M41 88h3M54 88h3M41 89h3M55 89h1M40 90h6M40 91h7M49 91h2M39 92h12M39 93h10M40 94h6M42 95h2" />
<path stroke="#28304c" d="M48 80h1" />
<path stroke="#111e6f" d="M56 80h2M54 81h2M52 82h2M50 83h2M49 84h1M58 84h2M47 85h2M57 85h1M45 86h2M55 86h2M44 87h1M53 87h3M44 88h1M53 88h1M44 89h2M46 90h1M49 90h2M47 91h2" />
<path stroke="#002a87" d="M73 80h1M51 92h2M49 93h4M39 94h1M46 94h5M38 95h4M44 95h5M40 96h7M42 97h2" />
<path stroke="#34374a" d="M56 81h3M54 82h1M59 82h1M52 83h2M57 83h1M59 83h1M50 84h1M57 84h1M49 85h1M53 85h1M56 85h1M47 86h1M50 86h2M53 86h2M45 87h1M49 87h1M52 87h1M45 88h1M47 88h1M46 89h1M47 90h2" />
<path stroke="#18141d" d="M66 81h2M65 82h2M61 83h5" />
<path stroke="#1f1515" d="M69 81h2M68 82h3M66 83h4M65 84h3M65 85h2M139 85h2M63 86h2M139 86h3M63 87h1M140 87h4M63 88h1M142 88h3M63 89h1M143 89h2M63 90h1M145 90h2M63 91h1M146 91h1M63 92h1M146 92h1M63 93h1M146 93h1M63 94h1M146 94h1M63 95h1M146 95h1M63 96h1M146 96h1M146 97h1M146 98h1M146 99h1M146 100h1" />
<path stroke="#262839" d="M55 82h4M54 83h3M58 83h1M51 84h6M50 85h3M54 85h2M48 86h2M52 86h1M46 87h3M46 88h1M48 88h2M47 89h3" />
<path stroke="#483534" d="M61 84h2" />
<path stroke="#401717" d="M88 84h1M90 84h5M87 85h1M89 85h6M84 86h2M87 86h5M93 86h2M83 87h1M86 87h4M93 87h2M81 88h1M84 88h5M93 88h2M79 89h1M82 89h5M93 89h2M102 89h1M78 90h7M94 90h1M102 90h1M76 91h23M102 91h1M76 92h33M74 93h5M81 93h2M93 93h1M102 93h1M110 93h1M74 94h4M81 94h2M92 94h2M102 94h1M110 94h1M71 95h5M81 95h2M92 95h2M102 95h1M110 95h1M70 96h4M81 96h2M92 96h2M102 96h1M110 96h1M70 97h12M92 97h2M102 97h1M110 97h1M70 98h1M72 98h2M75 98h25M101 98h2M110 98h1M72 99h2M90 99h30M122 99h1M72 100h2M92 100h1M101 100h2M110 100h1M112 100h12M82 101h1M92 101h1M101 101h2M110 101h1M122 101h1M81 102h1M91 102h2M101 102h2M110 102h1M122 102h1M81 103h1M91 103h2M101 103h2M110 103h1M122 103h1M72 104h1M81 104h1M91 104h2M101 104h2M110 104h1M121 104h2M71 105h2M80 105h2M91 105h2M101 105h1M110 105h1M121 105h2M51 106h1M56 106h1M71 106h2M80 106h2M91 106h1M99 106h12M112 106h3M121 106h2M135 106h1M48 107h8M71 107h2M75 107h34M110 107h9M124 107h7M134 107h3M47 108h6M60 108h3M66 108h2M71 108h11M91 108h1M101 108h1M110 108h1M126 108h12M46 109h11M60 109h5M71 109h1M80 109h1M91 109h1M101 109h1M110 109h1M135 109h2M45 110h7M59 110h2M71 110h1M80 110h1M91 110h1M101 110h1M110 110h1M135 110h2M139 110h1M47 111h2M59 111h1M71 111h1M80 111h1M91 111h1M101 111h1M135 111h3M142 111h1M59 112h2M80 112h1M91 112h1M101 112h1M135 112h4M142 112h1M50 113h3M59 113h1M71 113h1M80 113h1M90 113h2M100 113h2M133 113h6M140 113h1M52 114h54M131 114h6M138 114h2M59 115h1M70 115h2M79 115h2M90 115h2M100 115h2M126 115h11M58 116h1M79 116h2M90 116h2M100 116h2M127 116h6M134 116h1M58 117h1M79 117h2M90 117h1M100 117h2M128 117h5M79 118h1M100 118h1M124 118h7M70 119h1M79 119h1M90 119h1M100 119h2M123 119h4M69 120h2M79 120h1M90 120h1M100 120h1M122 120h5M69 121h2M79 121h1M90 121h1M94 121h11M120 121h3M124 121h1M69 122h2M73 122h33M118 122h5M69 123h13M90 123h2M100 123h1M117 123h2M120 123h1M122 123h2M78 124h2M90 124h2M100 124h1M109 124h1M112 124h1M115 124h2M118 124h1M78 125h1M100 125h1M109 125h7M78 126h1M100 126h1M108 126h1M111 126h3M78 127h1M90 127h1M100 127h1M106 127h3M111 127h2M90 128h1M100 128h1M104 128h6M81 129h27M109 129h1M82 130h6M90 130h1M92 130h15M90 131h1M98 131h5M90 132h1M97 132h5M90 133h1M95 133h5M90 134h2M93 134h5M92 135h4M97 135h3" />
<path stroke="#7a7c7f" d="M60 85h3M60 86h1M59 87h2M58 88h3M52 89h1M58 89h2M51 90h4M57 90h2M54 91h5M56 92h2" />
<path stroke="#06061d" d="M59 86h1M58 87h1M53 89h2M57 89h1M60 89h1M55 90h2M59 90h1M51 91h3M59 91h1M54 92h2M58 92h1M57 93h2" />
<path stroke="#141416" d="M34 87h1M39 87h1M34 88h2M38 88h1M35 89h3M74 100h1M74 101h1" />
<path stroke="#001339" d="M61 87h1" />
<path stroke="#100e24" d="M57 88h1M56 89h1M60 90h1M53 92h1M55 93h2" />
<path stroke="#6d3a1b" d="M61 88h1M61 89h1M61 90h1M61 91h1M61 92h1M61 93h1" />
<path stroke="#4e1818" d="M99 88h1M99 89h3M99 90h3M84 93h3M100 93h2M103 93h1M106 93h4M84 94h1M100 94h2M103 94h1M106 94h4M96 96h1M108 96h2M112 96h2M113 97h4M74 98h1M74 99h1M108 100h2M108 101h2M118 101h4M88 102h1M115 102h1M118 102h4M124 102h2M87 103h2M124 103h4M86 104h3M104 104h2M118 104h1M126 104h4M86 105h2M104 105h2M128 105h2M132 106h2M70 109h1M85 109h5M127 109h3M69 110h2M89 110h1M95 110h1M103 110h2M127 110h7M69 111h2M88 111h2M95 111h2M103 111h3M129 111h3M95 112h2M104 112h3M105 113h2M95 116h2M81 120h2M81 121h2M93 123h5" />
<path stroke="#3e1717" d="M92 90h2M95 90h2M75 96h4M111 97h1M71 98h1M111 98h1M75 99h4M81 99h2M75 100h2M81 100h2M93 100h1M81 101h1M83 101h2M91 101h1M93 101h1M96 101h4M74 102h1M83 102h2M83 103h2M83 104h1M56 107h2M109 107h1M53 108h4M109 108h1M65 109h4M77 109h2M109 109h1M57 110h2M61 110h6M77 110h2M84 110h3M52 111h4M64 111h2M77 111h2M85 111h1M138 111h1M52 112h5M71 112h1M77 112h2M55 113h2M63 115h3M73 115h3M59 116h1M62 116h7M70 116h2M73 116h3M94 116h1M59 117h1M62 117h2M70 117h2M91 117h1M94 117h1M126 117h2M62 118h4M68 118h1M70 118h4M90 118h2M98 118h1M101 118h2M64 119h2M71 120h2M77 120h1M85 120h5M71 121h3M76 121h2M85 121h5M113 124h2M90 125h2M102 125h3M80 126h1M90 126h2M102 126h2M109 126h2M80 127h2M84 127h2M91 127h1M109 127h2M81 128h5M96 128h3M86 132h1M89 132h1M91 132h2M89 133h1M91 133h2" />
<path stroke="#5e626d" d="M60 91h1M60 92h1M60 93h1M60 94h1" />
<path stroke="#16213e" d="M59 92h1M59 93h1M59 94h1" />
<path stroke="#40041c" d="M53 93h2M51 94h6M36 95h2M49 95h4M36 96h4M47 96h4M36 97h4M46 97h4M36 98h4M46 98h2M37 99h3M46 99h1" />
<path stroke="#00174a" d="M38 94h1" />
<path stroke="#6f441f" d="M61 94h1M61 95h1M61 96h1M61 97h2M55 99h1M70 99h2M55 100h3M65 100h1M71 100h1M57 101h3M63 101h1M71 101h1M55 102h1M59 102h1M61 102h2M66 102h1M56 103h3M66 103h1M59 104h3M64 104h2M62 105h3" />
<path stroke="#262626" d="M59 95h1M59 96h1" />
<path stroke="#67676a" d="M60 95h1M60 96h1" />
<path stroke="#000022" d="M44 97h1M44 98h1M44 99h1M44 100h1M44 101h1" />
<path stroke="#191816" d="M67 97h1M67 98h1M67 99h1M67 100h1M67 101h1M67 102h1M67 103h1M72 103h1M66 104h1M71 104h1M56 105h2M68 105h2M57 106h3M67 106h2M60 107h2M66 107h1M137 107h1M142 107h1M155 107h1M63 108h3M138 108h1M143 108h1M154 108h1M140 109h2M152 109h2M141 110h2M150 110h3M143 111h1M148 111h2M144 112h3" />
<path stroke="#71513c" d="M172 99h1" />
<path stroke="#845a23" d="M66 100h1M70 100h1M55 101h2M64 101h3M70 101h1M56 102h3M60 102h1M63 102h3M59 103h7M62 104h2" />
<path stroke="#5c231a" d="M142 101h1M142 102h1M142 103h1M142 104h1M142 105h1M142 106h1" />
<path stroke="#633020" d="M147 101h1M145 102h3M143 103h8M139 104h1M143 104h8M139 105h1M143 105h10M143 106h11M144 107h5" />
<path stroke="#4b1e19" d="M148 101h1M143 102h2M148 102h3M151 103h1M151 104h3M153 105h2M149 107h2M146 108h2" />
<path stroke="#311f17" d="M166 101h1" />
<path stroke="#624029" d="M166 102h1" />
<path stroke="#511818" d="M12 103h1M19 105h2M20 106h1M13 107h1M19 107h1M17 108h3" />
<path stroke="#151414" d="M50 103h1M50 104h1" />
<path stroke="#6b4730" d="M166 103h1" />
<path stroke="#441818" d="M20 104h1M12 105h1M12 106h1M20 107h1M12 108h1M13 109h2M16 109h1" />
<path stroke="#451818" d="M166 104h1" />
<path stroke="#654835" d="M177 107h1M177 108h1" />
<path stroke="#181515" d="M4 109h3M3 110h5M2 111h8M4 112h8M6 113h8M8 114h8M10 115h8M12 116h8M15 117h7M16 118h8M18 119h8M20 120h8M22 121h8M24 122h8M26 123h8M28 124h8M30 125h8M32 126h8M34 127h8M36 128h8M38 129h8M40 130h8M42 131h8M44 132h8M46 133h8M48 134h8M50 135h8M52 136h8M54 137h8M56 138h8M58 139h8M60 140h8M62 141h8M64 142h8M66 143h8M68 144h8M70 145h8M72 146h8M74 147h8M76 148h8M78 149h8M80 150h8M82 151h7M84 152h6M86 153h4M88 154h2" />
<path stroke="#3b1717" d="M137 109h1" />
<path stroke="#1d1515" d="M138 110h1" />
<path stroke="#5c201a" d="M163 114h1" />
<path stroke="#08001d" d="M14 117h1" />
</svg>