<svg xmlns="http://www.w3.org/2000/svg" viewBox="0 -0.5 260 171" shape-rendering="crispEdges">
<metadata>Made with Pixels to Svg https://codepen.io/shshaw/pen/XbxvNj</metadata>
<path stroke="#e7b695" d="M129 5h2M127 6h4M125 7h3M130 7h1M123 8h3M130 8h1M121 9h3M128 9h3M119 10h3M126 10h3M117 11h3M124 11h3M115 12h3M122 12h3M113 13h3M120 13h3M111 14h3M118 14h3M109 15h3M116 15h3M107 16h3M114 16h3M105 17h3M112 17h3M103 18h3M110 18h3M101 19h3M108 19h3M99 20h3M106 20h3M97 21h3M104 21h3M95 22h3M102 22h3M93 23h3M100 23h3M91 24h3M98 24h3M89 25h3M96 25h3M87 26h3M94 26h3M85 27h3M92 27h3M83 28h3M90 28h3M81 29h3M88 29h3M79 30h3M86 30h3M77 31h3M84 31h3M75 32h3M82 32h3M73 33h3M80 33h3M71 34h3M78 34h3M69 35h3M76 35h3M67 36h3M74 36h3M65 37h3M72 37h3M63 38h3M70 38h3M61 39h3M68 39h3M59 40h3M66 40h3M57 41h3M64 41h3M55 42h3M62 42h3M53 43h3M60 43h3M51 44h3M58 44h3M138 44h1M49 45h3M56 45h3M138 45h1M47 46h3M54 46h3M138 46h1M45 47h3M52 47h3M138 47h1M43 48h3M50 48h3M44 49h1M48 49h3M44 50h5M46 51h1M137 51h1M137 52h1M137 53h1M137 54h1M137 55h1M137 56h1M132 58h1M132 59h1M140 60h1M140 61h1M140 62h1M128 63h1M128 64h1M128 65h1M139 67h2M136 68h5M136 69h5M132 70h2M136 70h5M131 71h3M136 71h5M130 72h4M138 72h3M130 73h4M138 73h3M130 74h2M138 74h3M130 75h2M137 75h4M130 76h3M137 76h4M130 77h3M136 77h5M130 78h3M136 78h4M130 79h4M136 79h2M130 80h4M129 81h3" />
<path stroke="#ce9975" d="M131 5h4M131 6h1M134 6h3M131 7h1M136 7h3M131 8h3M138 8h3M131 9h5M140 9h3M134 10h4M142 10h3M136 11h4M144 11h3M138 12h4M146 12h3M140 13h4M148 13h3M142 14h4M150 14h3M144 15h4M152 15h3M146 16h4M154 16h3M148 17h4M156 17h3M150 18h4M158 18h3M152 19h4M160 19h3M154 20h4M162 20h3M156 21h4M164 21h3M158 22h4M166 22h3M160 23h4M168 23h3M162 24h4M170 24h3M164 25h4M172 25h3M166 26h4M174 26h3M168 27h4M176 27h3M170 28h4M178 28h3M172 29h4M180 29h3M174 30h4M182 30h3M176 31h4M184 31h3M178 32h4M186 32h3M180 33h4M188 33h3M182 34h4M190 34h3M184 35h4M192 35h3M186 36h4M194 36h3M188 37h4M196 37h3M190 38h4M198 38h3M192 39h4M200 39h3M194 40h4M202 40h3M196 41h4M204 41h3M198 42h4M206 42h3M200 43h4M208 43h3M202 44h4M210 44h3M204 45h4M212 45h3M206 46h4M214 46h3M208 47h4M216 47h3M210 48h4M218 48h3M212 49h4M219 49h2M214 50h7M216 51h3M220 51h1M217 52h2M220 52h1M217 53h2M220 53h1M217 54h2M220 54h1M217 55h2M220 55h1M217 56h2M220 56h1M217 57h2M220 57h1M217 58h2M220 58h1M217 59h2M220 59h1M217 60h2M220 60h1M217 61h2M220 61h1M217 62h2M220 62h1M217 63h2M220 63h1M217 64h2M220 64h1M217 65h2M220 65h1M217 66h2M220 66h1M217 67h2M220 67h1M217 68h2M220 68h1M217 69h2M220 69h1M217 70h2M220 70h1M217 71h2M220 71h1M217 72h2M220 72h1M217 73h2M220 73h1M217 74h2M220 74h1M217 75h2M220 75h1M217 76h2M220 76h1M217 77h2M220 77h1M217 78h2M220 78h1M217 79h2M220 79h1M217 80h2M220 80h1M217 81h2M220 81h1M217 82h2M220 82h1M217 83h2M220 83h1M217 84h2M220 84h1M217 85h2M220 85h1M217 86h2M220 86h1M217 87h2M220 87h1M217 88h2M220 88h1M217 89h2M220 89h1M217 90h2M220 90h1M217 91h2M220 91h1M217 92h2M220 92h1M217 93h2M220 93h1M217 94h2M220 94h1M217 95h2M220 95h1M217 96h2M220 96h1M217 97h2M220 97h1M217 98h2M220 98h1M217 99h2M220 99h1M217 100h2M220 100h1M217 101h2M220 101h1M217 102h2M220 102h1M217 103h2M220 103h1M217 104h2M220 104h1M217 105h2M220 105h1M217 106h2M220 106h1M217 107h2M220 107h1M217 108h2M220 108h1M217 109h2M220 109h1M217 110h2M220 110h1M217 111h2M220 111h1M217 112h2M220 112h1M217 113h2M220 113h1M217 114h2M220 114h1M217 115h4M218 116h3M219 117h1" />
<path stroke="#dfb294" d="M132 6h2M132 7h4M134 8h4M136 9h4M138 10h4M140 11h4M142 12h4M144 13h4M146 14h4M148 15h4M150 16h4M152 17h4M154 18h4M156 19h4M158 20h4M160 21h4M162 22h4M164 23h4M166 24h4M168 25h4M170 26h4M172 27h4M174 28h4M176 29h4M178 30h4M180 31h4M182 32h4M184 33h4M186 34h4M188 35h4M190 36h4M192 37h4M194 38h4M196 39h4M198 40h4M200 41h4M202 42h4M204 43h4M206 44h4M208 45h4M210 46h4M212 47h4M214 48h4M216 49h3M219 51h1M219 52h1M219 53h1M219 54h1M219 55h1M219 56h1M219 57h1M219 58h1M219 59h1M219 60h1M219 61h1M219 62h1M219 63h1M219 64h1M219 65h1M219 66h1M219 67h1M219 68h1M219 69h1M219 70h1M219 71h1M219 72h1M219 73h1M219 74h1M219 75h1M219 76h1M219 77h1M219 78h1M219 79h1M219 80h1M219 81h1M219 82h1M219 83h1M219 84h1M219 85h1M219 86h1M219 87h1M219 88h1M219 89h1M219 90h1M219 91h1M219 92h1M219 93h1M219 94h1M219 95h1M219 96h1M219 97h1M219 98h1M219 99h1M219 100h1M219 101h1M219 102h1M219 103h1M219 104h1M219 105h1M219 106h1M219 107h1M219 108h1M219 109h1M219 110h1M219 111h1M219 112h1" />
<path stroke="#ffd0b1" d="M128 7h2M126 8h4M124 9h4M122 10h4M120 11h4M118 12h4M116 13h4M114 14h4M112 15h4M110 16h4M108 17h4M106 18h4M104 19h4M102 20h4M100 21h4M98 22h4M96 23h4M94 24h4M92 25h4M90 26h4M88 27h4M86 28h4M84 29h4M82 30h4M80 31h4M78 32h4M76 33h4M74 34h4M72 35h4M70 36h4M68 37h4M66 38h4M64 39h4M62 40h4M60 41h4M58 42h4M56 43h4M54 44h4M52 45h4M50 46h4M48 47h4M46 48h4M45 49h3" />
<path stroke="#ffe1c7" d="M129 10h2M127 11h4M125 12h6M123 13h8M121 14h10M119 15h12M117 16h14M115 17h16M113 18h18M111 19h20M109 20h22M107 21h24M105 22h26M103 23h28M101 24h30M99 25h21M125 25h6M97 26h23M126 26h5M95 27h26M129 27h2M93 28h28M130 28h1M91 29h30M89 30h32M87 31h31M85 32h33M83 33h33M81 34h35M79 35h37M77 36h29M110 36h6M75 37h29M111 37h5M73 38h29M111 38h6M71 39h29M111 39h6M69 40h29M111 40h6M67 41h29M111 41h6M65 42h31M111 42h6M63 43h32M111 43h6M61 44h28M92 44h3M111 44h6M59 45h28M93 45h2M111 45h6M57 46h28M93 46h2M111 46h6M55 47h29M93 47h2M111 47h6M53 48h29M93 48h2M111 48h6M51 49h29M93 49h2M111 49h6M49 50h29M93 50h2M111 50h6M47 51h29M93 51h2M111 51h6M46 52h30M93 52h2M111 52h6M46 53h24M75 53h1M93 53h2M111 53h6M46 54h21M75 54h1M93 54h2M111 54h6M46 55h20M75 55h1M93 55h2M111 55h6M46 56h19M75 56h1M93 56h2M111 56h6M46 57h17M75 57h1M93 57h2M111 57h6M46 58h16M75 58h1M93 58h2M111 58h6M46 59h14M75 59h1M93 59h2M111 59h6M46 60h13M75 60h1M93 60h2M111 60h6M46 61h13M75 61h1M91 61h4M111 61h6M46 62h13M75 62h1M89 62h6M110 62h7M46 63h13M75 63h1M87 63h8M109 63h8M46 64h13M75 64h1M85 64h8M108 64h9M46 65h13M75 65h1M83 65h8M106 65h11M46 66h13M75 66h2M81 66h8M104 66h13M46 67h13M75 67h12M102 67h15M46 68h13M75 68h10M100 68h17M46 69h13M75 69h8M100 69h17M46 70h13M75 70h6M100 70h17M46 71h13M75 71h4M100 71h17M46 72h13M75 72h4M100 72h17M46 73h13M75 73h4M100 73h17M46 74h13M75 74h4M100 74h17M46 75h13M75 75h4M100 75h17M46 76h13M75 76h4M104 76h13M46 77h13M75 77h4M105 77h12M46 78h13M75 78h4M107 78h10M46 79h13M73 79h6M109 79h7M46 80h13M72 80h7M111 80h3M46 81h13M71 81h8M46 82h13M69 82h10M46 83h13M67 83h12M46 84h14M64 84h15M46 85h10M58 85h21M46 86h10M59 86h20M46 87h10M60 87h3M65 87h13M46 88h10M60 88h2M66 88h10M46 89h10M60 89h2M66 89h8M46 90h10M60 90h2M66 90h6M46 91h4M53 91h5M59 91h3M65 91h5M46 92h4M53 92h5M59 92h3M65 92h3M46 93h4M53 93h5M61 93h1M64 93h4M46 94h4M53 94h5M61 94h1M63 94h4M46 95h4M53 95h4M61 95h1M63 95h4M46 96h4M53 96h3M61 96h1M66 96h1M46 97h5M53 97h2M60 97h2M66 97h1M46 98h5M54 98h2M57 98h1M66 98h1M46 99h6M57 99h2M64 99h3M74 99h2M46 100h6M58 100h2M64 100h3M74 100h1M46 101h8M58 101h2M64 101h3M46 102h8M66 102h1M46 103h2M52 103h4M66 103h1M46 104h2M53 104h4M59 104h2M66 104h1M46 105h2M54 105h4M59 105h2M65 105h1M46 106h2M55 106h3M59 106h2M46 107h7M56 107h1M59 107h1M46 108h7M46 109h7M46 110h7M46 111h7M46 112h6M46 113h4M46 114h3" />
<path stroke="#a07a60" d="M131 10h1M131 11h1M131 12h1M131 13h1M131 14h1M131 15h1M131 16h1M131 17h1M131 18h1M131 19h1M131 20h1M131 21h1M131 22h1M131 23h1M131 24h1M131 25h1M131 26h1M131 27h1M131 28h1" />
<path stroke="#e9c2a7" d="M132 10h2M132 11h4M132 12h6M132 13h8M132 14h10M132 15h12M132 16h14M132 17h16M132 18h18M132 19h20M132 20h22M132 21h24M132 22h26M132 23h1M134 23h26M132 24h1M136 24h26M137 25h27M137 26h29M137 27h31M136 28h34M136 29h36M133 30h1M137 30h37M133 31h1M138 31h38M133 32h1M139 32h39M140 33h14M157 33h23M140 34h14M158 34h24M140 35h14M160 35h24M140 36h16M162 36h24M140 37h16M164 37h24M141 38h15M161 38h2M166 38h24M143 39h13M161 39h4M168 39h24M143 40h12M161 40h6M171 40h23M143 41h12M164 41h5M173 41h23M143 42h12M166 42h5M175 42h23M143 43h12M168 43h5M177 43h23M143 44h12M170 44h5M179 44h23M143 45h12M172 45h5M181 45h23M143 46h12M174 46h5M183 46h23M143 47h12M176 47h5M185 47h23M143 48h12M178 48h5M187 48h23M143 49h12M180 49h5M189 49h23M143 50h12M182 50h5M191 50h23M143 51h12M184 51h6M193 51h23M143 52h12M186 52h6M196 52h21M143 53h12M188 53h4M198 53h19M143 54h12M190 54h2M200 54h17M143 55h12M202 55h15M143 56h12M202 56h15M143 57h12M200 57h17M143 58h12M200 58h17M143 59h12M199 59h6M207 59h10M143 60h12M199 60h6M207 60h10M143 61h12M199 61h5M205 61h2M208 61h9M143 62h12M199 62h4M204 62h4M209 62h8M143 63h12M199 63h3M203 63h6M210 63h7M143 64h12M199 64h2M202 64h8M211 64h6M143 65h12M199 65h2M203 65h7M211 65h6M143 66h12M199 66h2M205 66h3M211 66h6M143 67h12M199 67h2M211 67h6M143 68h12M199 68h2M211 68h6M143 69h12M199 69h2M211 69h6M143 70h12M199 70h2M211 70h6M143 71h12M199 71h2M211 71h6M143 72h12M162 72h1M199 72h2M211 72h6M143 73h12M162 73h3M199 73h2M211 73h6M143 74h12M162 74h5M199 74h2M211 74h6M143 75h7M155 75h1M162 75h6M199 75h2M211 75h6M143 76h5M162 76h7M199 76h3M210 76h7M143 77h4M162 77h7M172 77h1M199 77h1M201 77h1M209 77h1M211 77h6M145 78h1M163 78h7M172 78h1M199 78h4M207 78h3M211 78h6M163 79h8M172 79h1M176 79h1M199 79h4M204 79h1M206 79h1M208 79h9M163 80h8M172 80h1M177 80h2M199 80h6M206 80h11M163 81h5M172 81h1M178 81h3M199 81h18M163 82h5M172 82h2M179 82h2M200 82h17M163 83h5M176 83h1M178 83h2M183 83h2M201 83h16M160 84h10M175 84h2M182 84h5M201 84h16M160 85h10M174 85h2M182 85h9M201 85h16M160 86h10M174 86h2M180 86h11M202 86h5M209 86h8M162 87h6M180 87h11M202 87h5M210 87h7M164 88h4M178 88h4M186 88h5M199 88h1M202 88h5M210 88h7M166 89h2M173 89h2M177 89h4M186 89h5M199 89h8M210 89h7M168 90h1M173 90h2M176 90h4M186 90h1M190 90h1M199 90h9M210 90h7M173 91h2M176 91h3M199 91h18M174 92h1M177 92h1M199 92h18M199 93h2M203 93h14M199 94h1M204 94h13M204 95h13M205 96h2M208 96h1M210 96h7M204 97h1M206 97h1M209 97h1M211 97h6M208 98h1M211 98h6M211 99h6M210 100h7M212 101h5M214 102h3M214 103h3M214 104h3M215 105h2M214 106h3M214 107h3M207 108h1M214 108h3M214 109h3M214 110h3M214 111h3M214 112h3M215 113h2M215 114h2" />
<path stroke="#caa890" d="M133 23h1M132 25h1M136 27h1M135 28h1M135 29h1M135 30h2M136 31h2M139 33h1M139 34h1M139 35h1M139 36h1" />
<path stroke="#9c802a" d="M133 24h3M120 25h1M124 25h1M133 25h1M136 25h1M120 26h2M124 26h1M135 26h2M121 27h1M135 27h1M122 28h2M126 28h2M133 28h2M125 29h3M127 31h1M126 32h1M136 33h1M123 34h1M136 34h1M116 35h1M119 35h1M121 35h1M123 35h1M116 36h1M119 36h1M121 36h1M116 37h1M119 37h1M122 37h2M126 37h1M128 37h2M131 37h1M119 38h1M126 38h1M129 38h1M131 38h1M123 39h2M129 39h1M131 39h1M130 40h1M124 41h2M124 42h2M135 42h2M134 43h3M135 44h2M119 45h1M123 45h1M135 45h2M119 46h1M123 46h1M128 46h1M130 46h1M119 47h1M128 47h1M130 47h1M119 48h2M130 48h1M120 49h4M130 49h1M134 61h1M134 65h1M129 69h1M175 71h1M169 72h2M176 72h2M168 73h1M170 73h2M176 73h2M168 74h1M170 74h2M176 74h1M168 75h1M171 75h1M171 76h1M181 76h3M169 77h1M171 77h1M181 77h1M183 77h1M170 78h1M175 78h1M181 78h3M175 79h1M183 79h1M173 80h1M176 80h1M183 80h1M173 81h1M176 81h1M183 81h1M176 82h1M182 82h1M182 83h1M171 84h1M177 84h3M170 85h4M176 85h1M179 85h1M58 86h1M171 86h3M176 86h4M56 87h2M63 87h2M168 87h2M172 87h1M175 87h1M178 87h2M56 88h2M62 88h2M65 88h1M177 88h1M182 88h1M185 88h1M57 89h1M62 89h2M65 89h1M175 89h2M181 89h2M185 89h1M62 90h1M65 90h1M181 90h2M50 91h3M62 91h1M179 91h2M50 92h1M52 92h1M62 92h1M64 92h1M179 92h1M50 93h3M58 93h1M63 93h1M50 94h1M58 94h1M50 95h1M57 95h1M60 95h1M50 96h1M57 96h1M60 96h1M207 96h1M209 96h1M51 97h1M57 97h1M205 97h1M207 97h2M210 97h1M51 98h1M204 98h4M209 98h2M54 99h3M62 99h1M205 99h1M208 99h3M54 100h1M57 100h1M60 100h4M205 100h1M54 101h4M60 101h3M54 102h2M58 102h1M61 102h1M64 102h2M48 103h1M51 103h1M56 103h1M48 104h1M51 104h2M57 104h2M51 105h2M52 106h3M53 107h2" />
<path stroke="#c4b954" d="M121 25h1M135 25h1M122 26h1M133 26h2M122 27h3M133 27h2M124 28h1M132 28h1M130 30h2M129 31h2M121 32h1M128 32h3M136 32h3M118 33h1M121 33h2M133 33h1M137 33h2M117 34h2M121 34h2M133 34h1M137 34h2M117 35h2M122 35h1M133 35h2M138 35h1M117 36h2M122 36h1M128 36h3M133 36h2M117 37h2M130 37h1M133 37h1M118 38h1M130 38h1M125 39h1M130 39h1M124 40h1M121 44h2M121 45h2M121 46h2M122 47h2M123 48h1M176 70h2M176 71h2M169 73h1M169 74h1M182 77h1M173 78h2M173 79h2M172 83h2M172 84h2M56 85h2M177 85h2M56 86h2M170 86h1M64 88h1M168 88h2M183 88h2M64 89h1M168 89h2M183 89h2M169 90h1M51 92h1M170 92h2M59 93h2M59 94h2M60 98h2M60 99h2M55 100h2M63 101h1M49 103h2M64 103h2M49 104h2M64 104h2M64 105h1M62 107h2" />
<path stroke="#ac9238" d="M122 25h2M134 25h1M123 26h1M132 26h1M132 27h1M123 32h1M134 34h1M136 35h2M134 37h1M117 38h1M122 38h2M128 38h1M128 39h1M125 40h1M137 41h2M137 42h2M137 43h2M132 44h1M137 44h1M132 45h1M137 45h1M120 46h1M132 46h1M137 46h1M120 47h2M134 47h1M136 47h2M121 48h2M134 48h1M136 48h1M134 49h1M129 51h2M128 52h3M128 53h1M137 59h2M138 60h1M138 61h1M131 62h1M134 62h1M138 62h1M131 63h1M134 63h1M138 63h2M131 64h1M134 64h1M138 64h1M130 65h2M130 66h2M128 67h1M130 67h1M128 68h1M128 69h1M174 72h2M174 73h2M174 74h2M177 74h1M169 75h2M174 75h4M169 76h2M170 77h1M181 79h2M174 80h2M181 80h2M174 81h2M181 81h2M174 82h2M181 82h1M58 87h2M170 87h2M176 87h2M58 88h2M170 88h2M175 88h2M56 89h1M58 89h2M170 89h1M56 90h4M63 90h2M170 90h2M183 90h3M63 91h2M170 91h2M183 91h3M63 92h1M51 94h2M51 95h2M58 95h2M51 96h2M58 96h2M52 97h1M58 97h2M56 102h2M62 102h2M57 103h2M62 103h2M63 104h1M48 105h3M62 105h2M48 106h4M62 106h2M161 113h3M160 114h3M160 115h5M158 116h7M156 117h2M163 117h2M152 118h4M157 118h1M161 118h4M155 119h1M161 119h3M156 120h2M158 121h2M158 122h5" />
<path stroke="#e8c9ae" d="M125 26h1M125 27h4M121 28h1M125 28h1M128 28h2M121 29h1M121 30h1M118 31h2M118 32h1M116 33h2M116 34h1M120 34h1M120 35h1M120 36h1M120 37h1" />
<path stroke="#365054" d="M122 29h3M129 30h1M132 30h1M122 31h1M128 31h1M132 31h1M122 32h1M131 35h1M123 36h1M178 93h1M170 94h5M176 94h2M170 95h1M174 95h3M170 96h1M170 97h1M170 98h1M171 99h1M171 100h2M206 100h1M209 100h1M172 101h6M206 101h1M209 101h1M209 102h1M206 103h2M209 103h1" />
<path stroke="#c49c54" d="M128 29h2M124 30h1M128 30h1M123 31h1M132 32h1M132 33h1M125 34h1M132 34h1M125 35h1M125 36h1M131 36h1M124 37h2M133 44h1M130 45h1M133 45h1M135 51h2M135 52h2M134 53h1M134 54h1M134 55h1M134 56h3M134 57h2M139 58h1M139 59h1M137 60h1M139 60h1M137 61h1M139 61h1M137 62h1M139 62h1M168 81h3M177 81h1M168 82h3M177 82h2M168 83h2M181 84h1M180 85h2M173 87h2M173 88h2M56 96h1M63 96h3M55 97h2M63 97h3M64 98h2M52 99h1M52 100h2M59 102h2M59 103h2" />
<path stroke="#78573c" d="M130 29h5M122 30h2M125 30h3M134 30h1M120 31h2M124 31h3M134 31h2M119 32h2M124 32h2M134 32h2M119 33h2M124 33h2M134 33h2M119 34h1M124 34h1M127 34h1M135 34h1M124 35h1M127 35h1M124 36h1M127 36h1M127 37h1M124 38h1M127 38h1M120 40h1M120 41h1M120 42h1M120 43h1M120 44h1M120 45h1M175 76h1M175 77h1M171 78h1M171 79h1M171 80h1M171 81h1M171 82h1M170 83h2M174 83h2M177 83h1M180 83h2M170 84h1M174 84h1M180 84h1M172 88h1M171 89h2M172 90h1M175 90h1M180 90h1M58 91h1M172 91h1M175 91h1M58 92h1M172 92h1M175 92h1M62 93h1M172 93h1M175 93h1M62 94h1M175 94h1M62 95h1M62 96h1M62 97h1M52 98h2M56 98h1M58 98h2M62 98h2M53 99h1M59 99h1M63 99h1M207 99h1M61 103h1M61 104h2M53 105h1M58 105h1M61 105h1M58 106h1M61 106h1M58 107h1M61 107h1M58 108h1M61 108h1M58 109h1" />
<path stroke="#456368" d="M131 31h1M131 32h1M123 33h1M131 33h1M130 34h2M128 35h3M171 95h1M171 96h2M171 97h1M171 98h2M172 99h3M175 100h1M177 100h1M208 100h1M208 101h1" />
<path stroke="#54777d" d="M127 32h1M126 33h5M126 34h1M128 34h2M126 35h1M126 36h1M87 49h1M85 50h4M83 51h1M86 51h1M88 51h1M83 52h1M86 52h3M82 53h4M82 54h1M81 55h2M80 56h2M80 57h1M85 59h1M172 95h2M177 95h1M173 96h5M172 97h6M173 98h5M175 99h3M173 100h2M176 100h1M207 100h1M207 101h1M96 102h3M206 102h3M95 103h2M98 103h3M208 103h1M95 104h1M100 104h3M95 105h1M102 105h4M103 106h1" />
<path stroke="#514c47" d="M154 33h3M154 34h3M154 35h2M161 36h1M161 37h3M163 38h3M165 39h3M167 40h4M169 41h4M171 42h4M173 43h4M175 44h4M177 45h4M179 46h4M181 47h4M183 48h4M185 49h4M187 50h4M190 51h3M192 52h4M196 53h2M199 54h1M200 55h2M200 56h2" />
<path stroke="#faebdf" d="M157 34h1M156 35h4M156 36h5M156 37h2M160 37h1M159 39h2M159 40h2M159 41h2M159 42h2M159 43h2M159 44h2M159 45h2M155 46h2M159 46h2M155 47h2M159 47h2M155 48h2M159 48h1M155 49h2M159 49h1M155 50h2M155 51h2M192 53h4M156 54h1M192 54h7M156 55h1M194 55h6M155 56h2M197 56h3M155 57h3M193 57h2M155 58h3M193 58h2M155 59h3M193 59h1M155 60h1M157 60h1M157 61h1M192 61h1M157 62h1M192 62h1M157 63h2M192 63h1M157 64h2M192 64h1M196 64h2M155 65h4M192 65h1M196 65h2M155 66h2M158 66h1M192 66h1M195 66h3M155 67h2M192 67h2M195 67h3M155 68h2M192 68h2M195 68h1M197 68h1M155 69h2M158 69h2M192 69h2M195 69h1M197 69h1M155 70h1M158 70h2M192 70h2M195 70h3M158 71h2M192 71h2M195 71h3M158 72h2M192 72h2M195 72h3M159 73h1M192 73h2M196 73h2M159 74h2M192 74h2M196 74h2M156 75h1M158 75h3M197 75h1M157 76h3M159 77h1M159 78h2M160 79h1M160 80h1M160 81h1M196 81h1M160 82h1M196 82h1M196 83h1M193 84h2M196 84h1M193 85h2M196 85h1M192 87h2M192 88h1M192 89h1M192 90h1M192 91h1" />
<path stroke="#d14d42" d="M132 35h1M132 36h1M132 37h1M135 37h1M125 38h1M132 38h5M122 39h1M126 39h2M132 39h7M121 40h3M126 40h4M131 40h6M122 41h2M126 41h8M123 42h1M126 42h7M121 43h1M124 43h7M123 44h1M127 44h1M124 45h2M124 46h3M126 47h1M126 48h1M126 49h1M126 50h1M126 51h1M126 52h1M126 53h1M126 54h1M126 55h1M126 56h1M126 57h1M126 58h1M126 59h1M126 60h1M126 61h1M126 62h1M126 63h1M126 64h1M126 65h1M126 66h1M126 67h1M126 68h1M126 69h1M126 70h1M126 71h1M126 72h1M126 73h1M126 74h1M126 75h1M126 76h1M126 77h1M126 78h1M126 79h1M126 80h1M125 81h2M125 82h2" />
<path stroke="#802922" d="M135 35h1M136 37h1M139 39h1M138 40h1M118 41h1M136 41h1M118 42h1M133 42h2M118 43h1M131 43h1M133 43h1M118 44h1M128 44h2M118 45h1M128 45h2M118 46h1M118 47h1M127 47h1M118 48h1M127 48h1M118 49h1M118 50h1M118 51h1M118 52h1M118 53h1M118 54h1M118 55h1M118 56h1M118 57h1M118 58h1M127 58h1M118 59h1M118 60h1M118 61h1M127 61h1M118 62h1M127 62h1M118 63h1M127 63h1M118 64h1M127 64h1M118 65h1M127 65h1M118 66h1M118 67h1M127 67h1M118 68h1M127 68h1M118 69h1M118 70h1M118 71h1M127 71h1M127 72h1M118 73h1M127 73h1M118 74h1M127 74h1M127 76h1M119 80h2M121 81h1M122 82h2M127 83h1" />
<path stroke="#d7a566" d="M106 36h1M104 37h1M102 38h1M100 39h2M98 40h2M96 41h2M95 43h1M95 44h1M95 45h1M95 46h1M95 47h1M95 48h1M95 49h1M95 50h1M95 51h1M95 52h1M95 53h1M95 54h1M95 55h1M95 56h1M95 57h1M95 58h1M95 59h1M95 60h1M95 61h1M95 62h1" />
<path stroke="#8a5f28" d="M107 36h3M105 37h3M109 37h1M103 38h3M109 38h1M102 39h2M109 39h1M100 40h2M109 40h1M98 41h2M96 42h3M96 43h1M96 44h1M96 45h1M96 46h1M109 46h1M96 47h1M109 47h1M96 48h1M109 48h1M96 49h1M109 49h1M96 50h1M96 51h1M96 52h1M96 53h1M96 54h1M96 55h1M109 55h1M96 56h1M109 56h1M96 57h1M109 57h1M96 58h1M109 58h1M96 59h1M109 59h1M96 60h1M109 60h1M96 61h1M109 61h1M96 62h1M109 62h1M107 63h2M106 64h1M103 65h2M102 66h1M100 67h1" />
<path stroke="#c6463b" d="M135 36h1M120 38h2M137 38h2M120 39h2M118 40h2M137 40h1M121 41h1M134 41h2M122 42h1M132 43h1M126 44h1M130 44h1M86 47h2M124 47h2M86 48h1M124 48h2M83 49h2M124 49h2M82 50h2M120 50h6M81 51h2M89 51h2M120 51h6M80 52h1M89 52h2M120 52h6M89 53h1M120 53h6M77 54h1M89 54h1M120 54h6M77 55h1M89 55h1M120 55h6M77 56h1M89 56h1M120 56h6M77 57h1M89 57h1M120 57h6M77 58h2M120 58h6M77 59h2M86 59h2M120 59h6M77 60h2M83 60h3M120 60h6M77 61h2M83 61h2M120 61h6M77 62h2M120 62h6M77 63h1M120 63h6M120 64h6M120 65h6M120 66h6M120 67h6M120 68h6M120 69h6M120 70h6M120 71h6M120 72h6M120 73h6M120 74h6M120 75h6M120 76h6M120 77h6M120 78h6M121 79h5M123 80h3M78 91h3M127 91h1M78 92h2M81 92h1M78 93h3M123 93h1M78 94h2M118 95h1M120 95h1M118 96h1M90 110h2M88 111h1M90 111h3M88 112h1M90 112h1M173 124h2M172 125h1M169 126h2M167 127h1M165 128h2M161 130h1M159 131h1M157 132h1M156 133h2M152 134h1M154 134h3M153 135h1M150 136h1M148 137h1M144 138h1M146 138h1M143 139h3M140 140h1M137 142h3M138 143h2" />
<path stroke="#eea5a0" d="M136 36h2M137 37h1M140 38h1M118 39h2" />
<path stroke="#c5a3a0" d="M138 36h1M121 37h1M138 37h2M139 38h1M117 39h1M141 39h2M117 40h1M117 41h1M117 42h1M117 43h1M117 44h1M117 45h1M117 46h1M117 47h1M117 48h1M117 49h1M117 50h1M117 51h1M117 52h1M117 53h1M117 54h1M117 55h1M117 56h1M117 57h1M117 58h1M117 59h1M117 60h1M117 61h1M117 62h1M117 63h1M117 64h1M117 65h1M117 66h1M117 67h1M117 68h1M117 69h1M117 70h1M117 71h1M117 72h1M117 73h1M117 74h1M117 75h1M117 76h1M117 77h1M117 78h1" />
<path stroke="#9f6f31" d="M108 37h1M104 39h1M107 39h2M104 40h1M100 41h2M99 42h1M97 43h1M97 44h1M97 45h1M107 46h2M108 47h1M97 48h1M108 48h1M97 49h1M97 50h1M97 51h1M97 52h1M101 63h1M102 65h1M101 66h1" />
<path stroke="#bca78c" d="M110 37h1M110 61h1" />
<path stroke="#faf2ec" d="M158 37h2M156 38h1M158 38h3M156 39h1M158 39h1M158 40h1M158 41h1M157 42h2M157 43h2M157 44h2M157 45h2M157 46h2M157 47h2M157 48h2M160 48h1M157 49h2M160 49h1M157 50h4M157 51h4M157 52h4M159 53h2M159 54h1M159 55h1M192 55h2M159 56h1M192 56h5M158 57h2M192 57h1M195 57h5M158 58h2M192 58h1M195 58h5M158 59h2M192 59h1M194 59h5M156 60h1M158 60h2M194 60h5M155 61h2M158 61h2M194 61h5M155 62h2M158 62h1M194 62h5M155 63h2M194 63h5M155 64h2M159 64h2M194 64h2M198 64h1M159 65h2M195 65h1M198 65h1M157 66h1M159 66h2M198 66h1M157 67h4M194 67h1M198 67h1M157 68h4M194 68h1M196 68h1M198 68h1M157 69h1M160 69h1M194 69h1M196 69h1M198 69h1M160 70h1M194 70h1M198 70h1M160 71h2M194 71h1M198 71h1M160 72h2M194 72h1M198 72h1M157 73h2M160 73h2M194 73h1M198 73h1M157 74h2M161 74h1M194 74h1M198 74h1M157 75h1M161 75h1M194 75h1M196 75h1M198 75h1M160 76h2M196 76h3M158 77h1M160 77h2M192 77h2M196 77h3M161 78h2M192 78h2M195 78h4M162 79h1M192 79h1M195 79h4M162 80h1M192 80h1M195 80h1M162 81h1M192 81h1M195 81h1M197 81h1M162 82h1M192 82h1M195 82h1M160 83h3M192 83h1M195 83h1M195 84h1M195 85h1M191 86h1M193 86h4M191 87h1M195 87h3M191 88h1M195 88h4M191 89h1M195 89h4M191 90h1M194 90h5M194 91h5M194 92h5M196 93h3M198 94h1" />
<path stroke="#ac7938" d="M106 38h3M105 39h2M102 40h2M105 40h4M102 41h5M100 42h6M98 43h6M105 43h1M98 44h3M105 44h1M134 44h1M98 45h2M105 45h1M97 46h3M105 46h2M133 46h1M136 46h1M97 47h2M106 47h2M98 48h1M106 48h2M98 49h1M105 49h2M128 49h2M98 50h1M103 50h3M132 50h1M98 51h1M101 51h4M98 52h7M97 53h5M104 53h1M97 54h1M104 54h1M97 55h1M104 55h1M108 55h1M97 56h1M104 56h5M97 57h1M104 57h1M108 57h1M97 58h1M97 59h1M97 60h6M97 61h7M97 62h7M108 62h1M99 63h2M102 63h1M100 64h3M100 65h2M100 66h1" />
<path stroke="#9d805b" d="M110 38h1M110 39h1M110 40h1M110 41h1M110 45h1M110 46h1M110 47h1M110 48h1M110 49h1M110 50h1M110 51h1M110 52h1M110 53h1M110 54h1M110 55h1M110 56h1M110 57h1M110 58h1M110 59h1M110 60h1" />
<path stroke="#fae5df" d="M157 38h1M157 39h1M155 40h3M155 41h3M155 42h2M155 43h2M155 44h2M155 45h2M155 52h2M155 53h4M155 54h1M157 54h2M160 54h1M155 55h1M157 55h2M160 55h1M157 56h2M160 56h1M160 57h1M160 58h1M160 59h1M160 60h1M192 60h2M160 61h1M193 61h1M159 62h2M193 62h1M159 63h2M193 63h1M193 64h1M193 65h2M193 66h2M156 70h2M155 71h3M155 72h3M155 73h2M195 73h1M155 74h2M195 74h1M192 75h2M195 75h1M192 76h4M194 77h2M194 78h1M161 79h1M193 79h2M161 80h1M193 80h2M196 80h3M161 81h1M193 81h2M198 81h1M161 82h1M193 82h2M193 83h2M192 84h1M191 85h2M192 86h1M194 87h1M193 88h2M193 89h2M193 90h1M193 91h1" />
<path stroke="#591f1a" d="M140 39h1M139 40h3M119 41h1M139 41h3M121 42h1M139 42h3M122 43h2M139 43h3M124 44h2M139 44h3M126 45h2M139 45h3M127 46h1M139 46h3M139 47h3M137 48h2M140 48h2M136 49h2M139 49h3M136 50h2M139 50h3M131 51h1M139 51h3M131 52h4M139 52h3M139 53h3M139 54h3M139 55h3M139 56h3M137 57h5M135 58h2M140 58h2M135 59h2M140 59h2M131 60h1M141 60h1M131 61h1M141 61h1M141 63h1M141 64h1M137 65h2M141 65h1M136 66h2M135 67h1M118 76h1M127 77h1M118 78h1M118 79h1M127 80h1M124 82h1M124 83h3M125 84h2" />
<path stroke="#35100d" d="M142 40h1M142 41h1M142 42h1M142 43h1M142 44h1M142 45h1M142 46h1M142 47h1M142 48h1M142 49h1M142 50h1M142 51h1M142 52h1M142 53h1M142 54h1M142 55h1M142 56h1M142 57h1M142 58h1M142 59h1M142 60h1M142 61h1M142 62h1M142 63h1M142 64h1M142 65h1M142 66h1M142 67h1M142 68h1M142 69h1M142 70h1M142 71h1M142 72h1M142 73h1M142 74h1M142 75h1M142 76h1M142 77h1" />
<path stroke="#8e642e" d="M107 41h3M106 42h1M109 42h2M106 43h1M110 43h1M106 44h1M110 44h1M103 45h2M106 45h4M101 46h2M104 46h1M99 47h2M104 47h1M99 48h1M104 48h1M99 49h1M103 49h2M108 49h1M99 50h1M101 50h2M107 50h3M99 51h2M106 51h1M109 51h1M105 52h1M109 52h1M105 53h1M109 53h1M100 54h4M105 54h1M108 54h2M98 55h3M103 55h1M105 55h3M98 56h1M103 56h1M98 57h1M102 57h2M98 58h1M101 58h3M105 58h4M98 59h4M104 59h2M108 59h1M103 60h1M108 60h1M108 61h1M107 62h1M103 63h1M106 63h1M103 64h3" />
<path stroke="#a78066" d="M161 41h2M161 42h1M163 42h1M161 43h1M163 43h1M161 44h1M163 44h1M161 45h1M163 45h1M166 45h1M161 46h1M163 46h1M166 46h1M161 47h1M163 47h1M166 47h1M161 48h1M163 48h1M166 48h1M161 49h1M163 49h1M166 49h1M161 50h1M163 50h1M166 50h1M178 50h1M161 51h1M163 51h1M166 51h1M179 51h1M163 52h1M166 52h1M179 52h1M163 53h1M166 53h1M179 53h1M163 54h1M166 54h1M179 54h1M163 55h1M166 55h1M179 55h1M163 56h1M166 56h1M179 56h1M191 56h1M163 57h1M166 57h1M179 57h1M191 57h1M163 58h1M166 58h1M179 58h1M191 58h1M163 59h1M166 59h1M179 59h1M191 59h1M163 60h1M166 60h1M179 60h1M191 60h1M163 61h1M166 61h1M179 61h1M191 61h1M204 61h1M207 61h1M163 62h1M166 62h1M179 62h1M191 62h1M203 62h1M208 62h1M163 63h1M166 63h1M179 63h1M191 63h1M202 63h1M209 63h1M163 64h1M166 64h1M179 64h1M191 64h1M201 64h1M210 64h1M163 65h1M166 65h1M179 65h1M191 65h1M210 65h1M163 66h1M166 66h1M179 66h1M191 66h1M163 67h1M166 67h3M179 67h1M191 67h1M163 68h1M165 68h6M179 68h1M191 68h1M163 69h2M169 69h4M179 69h1M191 69h1M162 70h2M171 70h4M179 70h1M191 70h1M162 71h4M173 71h2M179 71h1M191 71h1M164 72h4M179 72h1M191 72h1M166 73h2M179 73h3M191 73h1M180 74h4M191 74h1M172 75h2M182 75h4M191 75h1M172 76h3M184 76h4M191 76h1M174 77h1M176 77h2M186 77h4M191 77h1M176 78h4M189 78h1M191 78h1M178 79h3M189 79h1M191 79h1M180 80h1M189 80h1M191 80h1M184 81h2M189 81h1M191 81h1M184 82h4M186 83h5M188 84h3M215 115h2M214 116h4M212 117h7M210 118h8M209 119h7M206 120h8M204 121h8M202 122h8M200 123h8M198 124h8M196 125h8M194 126h8M192 127h8M190 128h8M188 129h8M186 130h8M184 131h8M182 132h8M180 133h8M178 134h8M176 135h8M174 136h8M172 137h8M170 138h8M168 139h8M166 140h8M164 141h8M162 142h8M160 143h8M158 144h8M156 145h8M154 146h8M152 147h8M150 148h8M148 149h8M146 150h8M144 151h8M142 152h8M140 153h8M138 154h8M136 155h8M134 156h8M131 157h9M132 158h6M132 159h4M132 160h2" />
<path stroke="#d4b29b" d="M163 41h1M164 42h2M166 43h2M168 44h2M170 45h2M172 46h2M174 47h2M176 48h2M178 49h2M179 50h3M182 51h2M184 52h2M186 53h2M188 54h2M190 55h2M163 72h1M165 73h1M167 74h1M173 77h1M177 79h1M179 80h1M183 82h1M185 83h1M187 84h1" />
<path stroke="#fbeada" d="M107 42h2M107 43h1M108 44h2M103 46h1M101 47h3M100 48h1M103 48h1M101 49h2M100 50h1M107 51h2M106 52h3M108 53h1M106 54h2M101 55h1M99 56h3M99 58h2M106 59h1M104 60h3M106 62h1" />
<path stroke="#b34137" d="M119 42h1M119 43h1M119 44h1M119 49h1M119 50h1M119 51h1M119 52h1M119 53h1M119 54h1M119 55h1M119 56h1M119 57h1M119 58h1M119 59h1M119 60h1M119 61h1M119 62h1M119 63h1M119 64h1M119 65h1M119 66h1M119 67h1M119 68h1M119 69h1M119 70h1M119 71h1M119 72h1M119 73h1M119 74h1M119 75h1M119 76h1M119 77h1M119 78h1M119 79h2M121 80h2M122 81h3" />
<path stroke="#c9a892" d="M162 42h1M162 43h1M162 44h1M162 45h1M162 46h1M162 47h1M162 48h1M162 49h1M162 50h1M162 51h1M162 52h1M162 53h1M162 54h1M162 55h1M162 56h1M162 57h1M162 58h1M162 59h1M162 60h1M162 61h1M162 62h1M162 63h1M162 64h1M162 65h1M162 66h1M162 67h1M162 68h1M162 69h1" />
<path stroke="#b4813f" d="M104 43h1M101 44h4M100 45h3M100 46h1M105 47h1M105 48h1M107 49h1M106 50h1M105 51h1M102 53h2M98 54h2M105 57h3M104 58h1M102 59h2" />
<path stroke="#b9b2ab" d="M108 43h2M107 44h1M101 48h2M100 49h1M106 53h2M102 55h1M102 56h1M99 57h3M107 59h1M107 60h1M104 61h4M104 62h2M104 63h2" />
<path stroke="#c09c84" d="M164 43h2M164 44h4M164 45h2M168 45h2M164 46h2M170 46h2M164 47h2M172 47h2M164 48h2M174 48h2M164 49h2M176 49h2M164 50h2M177 50h1M164 51h2M177 51h1M180 51h2M164 52h2M177 52h1M182 52h2M164 53h2M177 53h1M184 53h2M164 54h2M177 54h1M186 54h2M164 55h2M177 55h1M188 55h2M164 56h2M177 56h1M190 56h1M164 57h2M177 57h1M190 57h1M164 58h2M177 58h1M190 58h1M164 59h2M177 59h1M190 59h1M164 60h2M177 60h1M190 60h1M164 61h2M177 61h1M190 61h1M164 62h2M177 62h1M190 62h1M164 63h2M177 63h1M190 63h1M164 64h2M177 64h1M190 64h1M164 65h2M177 65h1M190 65h1M164 66h2M177 66h1M190 66h1M164 67h2M177 67h1M190 67h1M164 68h1M177 68h1M190 68h1M165 69h4M177 69h1M190 69h1M164 70h7M190 70h1M166 71h7M190 71h1M168 72h1M171 72h3M178 72h1M190 72h1M172 73h2M178 73h1M190 73h1M172 74h2M178 74h2M190 74h1M178 75h4M190 75h1M176 76h5M190 76h1M178 77h3M184 77h2M190 77h1M180 78h1M184 78h5M190 78h1M184 79h5M190 79h1M184 80h5M190 80h1M186 81h3M190 81h1M188 82h3" />
<path stroke="#eab6ab" d="M89 44h3M87 45h2M92 45h1M85 46h2M92 46h1M84 47h1M92 47h1M82 48h2M92 48h1M80 49h2M92 49h1M78 50h2M92 50h1M76 51h2M92 51h1M76 52h1M92 52h1M76 53h1M92 53h1M76 54h1M92 54h1M76 55h1M92 55h1M76 56h1M92 56h1M76 57h1M92 57h1M76 58h1M92 58h1M76 59h1M92 59h1M76 60h1M91 60h2M76 61h1M89 61h2M76 62h1M87 62h2M76 63h1M85 63h2M76 64h1M83 64h2M76 65h1M81 65h2M77 66h1M80 66h1" />
<path stroke="#664a34" d="M131 44h1M131 45h1M134 45h1M129 46h1M131 46h1M134 46h2M129 47h1M131 47h1M135 47h1M129 48h1M131 48h1M135 48h1M131 49h1M131 53h2M131 54h2M129 55h2M129 56h4M129 57h4M130 58h1M130 59h1M135 60h2M132 61h2M135 61h2M132 62h2M135 62h2M129 63h2M132 63h2M135 63h3M129 64h2M132 64h2M135 64h3M132 65h2M135 65h2M132 66h2M132 67h1M130 68h1M93 110h2M94 111h4" />
<path stroke="#de8470" d="M89 45h2M87 46h2M85 47h1M84 48h1M82 49h1M78 51h2M88 61h1M86 62h1M84 63h1M80 65h1M78 66h2" />
<path stroke="#8b5d4d" d="M91 45h1M89 48h1M89 49h1M89 50h1M79 54h1M79 55h1M79 56h1M79 57h1M79 58h1M88 58h1M79 59h1M91 59h1M79 60h1M89 60h2M79 61h4M80 62h1M85 62h1M81 64h2M79 65h1" />
<path stroke="#fff6ee" d="M167 45h1M167 46h3M167 47h5M167 48h7M167 49h9M167 50h10M167 51h10M167 52h2M170 52h7M180 52h2M167 53h2M170 53h7M180 53h4M167 54h3M173 54h4M181 54h5M167 55h1M175 55h2M181 55h7M167 56h1M175 56h2M182 56h8M167 57h3M173 57h4M182 57h8M167 58h3M174 58h3M183 58h7M167 59h3M172 59h1M175 59h2M186 59h4M167 60h3M173 60h4M189 60h1M167 61h3M173 61h4M180 61h1M189 61h1M167 62h4M174 62h3M180 62h2M187 62h3M167 63h2M175 63h2M180 63h3M188 63h2M167 64h4M174 64h3M180 64h5M188 64h2M167 65h5M175 65h2M180 65h6M188 65h2M167 66h6M175 66h2M180 66h7M188 66h2M169 67h8M180 67h2M185 67h5M171 68h6M180 68h3M186 68h4M173 69h4M187 69h3M175 70h1M188 70h2M183 71h1M188 71h2M180 72h10M182 73h4M187 73h3M184 74h6M186 75h4M188 76h2" />
<path stroke="#c05e49" d="M89 46h3M88 47h4M85 48h1M87 48h2M90 48h2M85 49h2M90 49h2M80 50h2M84 50h1M90 50h2M80 51h1M91 51h1M77 52h3M81 52h1M91 52h1M77 53h3M90 53h2M78 54h1M90 54h2M78 55h1M90 55h2M78 56h1M90 56h2M78 57h1M90 57h2M89 58h3M88 59h3M86 60h3M85 61h3M79 62h1M81 62h4M78 63h6M77 64h4M77 65h2M137 91h1M134 92h1M137 92h3M132 93h3M137 93h5M131 94h4M137 94h4M142 94h2M129 95h6M137 95h4M145 95h1M127 96h7M139 96h2M145 96h3M141 97h3M145 97h5M121 99h2M125 99h1M129 99h6M136 99h6M146 99h2M120 100h3M125 100h1M127 100h7M136 100h6M146 100h2M153 100h2M118 101h5M125 101h9M136 101h8M145 101h7M153 101h4M116 102h1M121 102h2M125 102h9M136 102h2M139 102h5M145 102h5M153 102h1M156 102h3M124 103h10M136 103h8M145 103h7M154 103h1M159 103h2M142 104h1M145 104h7M154 104h9M121 105h2M125 105h7M119 106h4M125 106h9M136 106h7M145 106h5M153 106h1M117 107h6M127 107h6M136 107h2M142 107h1M145 107h5M153 107h7M167 107h1M117 108h6M124 108h1M127 108h3M131 108h2M135 108h8M145 108h7M153 108h4M158 108h2M168 108h2M115 109h8M124 109h1M127 109h2M131 109h2M135 109h8M145 109h7M155 109h5M170 109h2M115 110h8M124 110h1M126 110h2M131 110h2M135 110h8M145 110h1M148 110h4M156 110h3M167 110h1M172 110h2M112 111h1M115 111h7M124 111h4M132 111h1M135 111h8M144 111h2M148 111h4M157 111h3M167 111h3M172 111h4M112 112h1M115 112h7M124 112h6M134 112h7M158 112h3M167 112h7M176 112h1M109 113h1M115 113h2M173 113h3M124 114h7M136 114h7M144 114h7M153 114h1M111 115h1M114 115h5M121 115h1M123 115h4M136 115h7M144 115h7M153 115h1M158 115h1M168 115h1M172 115h5M181 115h1M94 116h5M109 116h2M114 116h5M121 116h1M123 116h3M129 116h2M138 116h5M144 116h1M147 116h5M153 116h2M176 116h1M91 117h3M98 117h3M102 117h4M108 117h3M114 117h5M121 117h1M123 117h4M128 117h2M136 117h1M139 117h4M144 117h1M148 117h3M169 117h2M174 117h3M90 118h4M99 118h2M103 118h10M114 118h5M121 118h1M123 118h9M134 118h3M139 118h4M144 118h2M149 118h1M169 118h8M95 119h2M99 119h2M102 119h11M114 119h8M123 119h9M136 119h6M144 119h3M169 119h6M169 120h4M96 121h5M102 121h3M108 121h4M114 121h1M118 121h3M123 121h8M140 121h2M144 121h3M98 122h2M102 122h2M111 122h1M114 122h1M118 122h3M123 122h8M135 122h1M139 122h3M144 122h3M168 122h1M102 123h2M106 123h6M114 123h7M123 123h8M135 123h1M139 123h3M144 123h3M167 123h1M102 124h2M108 124h2M111 124h1M116 124h5M122 124h9M139 124h1M141 124h1M145 124h2M104 125h2M108 125h4M113 125h8M122 125h7M138 125h3M144 125h1M106 126h5M115 126h4M120 126h1M122 126h1M125 126h2M137 126h3M143 126h1M107 127h4M116 127h2M120 127h1M122 127h1M125 127h2M142 127h2M109 128h2M113 128h2M124 129h4M140 129h2M143 129h1M113 130h7M122 130h9M138 130h4M143 130h2M115 131h5M121 131h11M134 131h8M143 131h1M147 131h1M117 132h3M121 132h1M123 132h9M134 132h8M143 132h1M146 132h4M119 133h1M121 133h1M124 133h2M128 133h4M134 133h8M143 133h5M121 134h2M128 134h4M133 134h5M141 134h1M143 134h3M130 136h2M133 136h1M126 137h6M133 137h7M129 138h2M135 138h4M130 139h1M135 139h2M134 140h1" />
<path stroke="#947654" d="M132 47h2M128 48h1M132 48h2M132 49h2M128 50h4M138 50h1M128 51h1M138 51h1M138 52h1M129 53h2M133 53h1M135 53h2M138 53h1M73 54h1M128 54h3M133 54h1M135 54h2M138 54h1M69 55h1M73 55h1M128 55h1M131 55h3M135 55h2M138 55h1M68 56h1M73 56h1M128 56h1M133 56h1M138 56h1M66 57h1M73 57h1M128 57h1M133 57h1M64 58h1M73 58h1M128 58h2M131 58h1M133 58h2M62 59h1M73 59h1M128 59h2M131 59h1M62 60h1M73 60h1M128 60h3M60 61h2M73 61h1M128 61h2M60 62h2M73 62h1M60 63h2M73 63h1M60 64h2M73 64h1M60 65h2M73 65h1M129 65h1M60 66h2M73 66h1M128 66h2M60 67h2M73 67h1M129 67h1M131 67h1M60 68h2M73 68h1M129 68h1M60 69h2M73 69h1M61 70h1M73 70h1M61 71h1M73 71h1M61 72h1M73 72h1M61 73h1M73 73h1M61 74h1M73 74h1M61 75h1M73 75h1M61 76h1M73 76h1M61 77h1M61 78h1M61 79h1M61 80h1" />
<path stroke="#af896f" d="M42 48h1M42 49h2M42 50h2M42 51h4M42 52h2M45 52h1M42 53h2M45 53h1M42 54h2M45 54h1M42 55h2M45 55h1M42 56h2M45 56h1M42 57h2M45 57h1M42 58h2M45 58h1M42 59h2M45 59h1M42 60h2M45 60h1M42 61h2M45 61h1M42 62h2M45 62h1M42 63h2M45 63h1M42 64h2M45 64h1M42 65h2M45 65h1M42 66h2M45 66h1M42 67h2M45 67h1M42 68h2M45 68h1M42 69h2M45 69h1M42 70h2M45 70h1M42 71h2M45 71h1M42 72h2M45 72h1M42 73h2M45 73h1M42 74h2M45 74h1M42 75h2M45 75h1M42 76h2M45 76h1M42 77h2M45 77h1M42 78h2M45 78h1M42 79h2M45 79h1M42 80h2M45 80h1M42 81h2M45 81h1M42 82h2M45 82h1M42 83h2M45 83h1M42 84h2M45 84h1M42 85h2M45 85h1M42 86h2M45 86h1M42 87h2M45 87h1M42 88h2M45 88h1M42 89h2M45 89h1M42 90h2M45 90h1M42 91h2M45 91h1M42 92h2M45 92h1M42 93h2M45 93h1M42 94h2M45 94h1M42 95h2M45 95h1M42 96h2M45 96h1M42 97h2M45 97h1M42 98h2M45 98h1M42 99h2M45 99h1M42 100h2M45 100h1M42 101h2M45 101h1M42 102h2M45 102h1M42 103h2M45 103h1M42 104h2M45 104h1M42 105h2M45 105h1M42 106h2M45 106h1M42 107h2M45 107h1M42 108h2M45 108h1M42 109h2M45 109h1M42 110h2M45 110h1M42 111h2M45 111h1M42 112h2M45 112h1M42 113h2M45 113h1M42 114h2M45 114h1M42 115h4M42 116h3" />
<path stroke="#45140f" d="M139 48h1M138 49h1M135 50h1M137 58h2M133 59h2M132 60h3M130 61h1M128 62h3M141 62h1M140 63h1M140 64h1M131 68h1M130 69h2M128 70h3M128 71h1" />
<path stroke="#385c62" d="M88 49h1M87 51h1M82 52h1M80 53h2M80 54h2M80 55h1M88 55h1M87 56h2M85 57h3M84 58h4M83 59h2M81 60h2" />
<path stroke="#711d16" d="M127 49h1M127 50h1M127 54h1M127 55h1M118 72h1M118 75h1M118 77h1M127 81h1M127 82h1M127 84h1" />
<path stroke="#663d36" d="M135 49h1M133 50h2M132 51h3M136 57h1M139 64h1M139 65h1M134 66h2M133 67h2M132 68h2M128 72h1M128 73h1M128 74h1M128 75h1M128 76h1M128 77h1M128 78h1M140 78h2M128 79h1M138 79h1M128 80h1M136 80h1M138 80h1M128 81h1M133 81h4M128 82h2M131 82h1M128 83h2" />
<path stroke="#346f79" d="M84 51h2M84 52h2M83 54h1M88 54h1M80 58h1M80 59h1M80 60h1" />
<path stroke="#78241d" d="M127 51h1M127 52h1M127 53h1M127 66h1M127 69h1M127 70h1M127 75h1M127 78h1M127 79h1" />
<path stroke="#b8937a" d="M178 51h1M178 52h1M178 53h1M178 54h1M178 55h1M178 56h1M178 57h1M178 58h1M178 59h1M178 60h1M178 61h1M178 62h1M178 63h1M178 64h1M178 65h1M178 66h1M178 67h1M178 68h1M178 69h1M178 70h1M178 71h1" />
<path stroke="#9c7860" d="M44 52h1M44 53h1M44 54h1M44 55h1M44 56h1M44 57h1M44 58h1M44 59h1M44 60h1M44 61h1M44 62h1M44 63h1M44 64h1M44 65h1M44 66h1M44 67h1M44 68h1M44 69h1M44 70h1M44 71h1M44 72h1M44 73h1M44 74h1M44 75h1M44 76h1M44 77h1M44 78h1M44 79h1M44 80h1M44 81h1M44 82h1M44 83h1M44 84h1M44 85h1M44 86h1M44 87h1M44 88h1M44 89h1M44 90h1M44 91h1M44 92h1M44 93h1M44 94h1M44 95h1M44 96h1M44 97h1M44 98h1M44 99h1M44 100h1M44 101h1M44 102h1M44 103h1M44 104h1M44 105h1M44 106h1M44 107h1M44 108h1M44 109h1M44 110h1M44 111h1M44 112h1M44 113h1M44 114h1" />
<path stroke="#ece3de" d="M161 52h1M161 53h1M161 57h1M161 58h1M161 59h1M161 60h1M161 61h1M161 62h1M161 63h1M161 64h1M161 65h1M161 66h1M161 67h1M161 68h1M161 69h1M161 70h1M191 82h1M191 83h1" />
<path stroke="#fff7ef" d="M169 52h1M169 53h1M172 54h1M180 54h1M173 55h2M180 55h1M173 56h2M180 56h2M180 57h2M170 58h1M180 58h1M170 59h2M180 59h1M170 60h3M181 60h2M170 61h3M181 61h1M171 62h3M186 62h1M172 63h3M183 63h1M186 65h2M187 66h1M182 67h3M183 68h3M180 69h1M186 69h1M180 70h1M186 70h2M180 71h3M187 71h1M186 73h1" />
<path stroke="#ceb6a0" d="M70 53h2M74 53h1M67 54h2M74 54h1M66 55h2M74 55h1M65 56h1M74 56h1M63 57h2M74 57h1M62 58h1M74 58h1M60 59h1M74 59h1M60 60h1M74 60h1M74 61h1M74 62h1M74 63h1M74 64h1M74 65h1M74 66h1M74 67h1M74 68h1M74 69h1M74 70h1M74 71h1M74 72h1M74 73h1M74 74h1M74 75h1M74 76h1M73 77h2M73 78h2M72 79h1M70 80h2M68 81h3M66 82h3M64 83h3M60 84h4" />
<path stroke="#876845" d="M72 53h2M69 54h2M68 55h1M66 56h2M65 57h1M63 58h1M61 59h1M61 60h1M60 70h1M60 71h1M60 72h1M60 73h1M60 74h1M60 75h1M60 76h1M60 77h1M60 78h1M72 78h1M60 79h1M71 79h1M60 80h1M69 80h1M60 81h1M67 81h1M60 82h1M65 82h1M60 83h4" />
<path stroke="#6ba0a6" d="M86 53h3M84 54h4M83 55h5M82 56h5M81 57h4M88 57h1M81 58h3M81 59h2" />
<path stroke="#a98b69" d="M71 54h2M70 55h1M72 77h1M71 78h1M70 79h1M67 80h2M61 81h1M66 81h1M61 82h2M64 82h1" />
<path stroke="#ecd7d1" d="M161 54h1M161 55h1M161 56h1M191 84h1" />
<path stroke="#ffffff" d="M170 54h2M168 55h5M168 56h5M170 57h3M171 58h3M181 58h2M173 59h2M181 59h5M183 60h6M182 61h7M182 62h4M169 63h3M184 63h4M171 64h3M185 64h3M172 65h3M173 66h2M181 69h5M181 70h5M184 71h3" />
<path stroke="#eadfd5" d="M71 55h2M72 56h1M67 57h1M72 57h1M65 58h1M67 58h1M63 59h3M63 60h1M62 75h1M62 76h1M72 76h1M62 77h1M71 77h1M62 78h1M70 78h1M62 79h1M67 79h3M62 80h1M65 80h2M62 81h2M65 81h1M63 82h1" />
<path stroke="#fbefe4" d="M69 56h3M68 57h4M66 58h1M68 58h5M66 59h7M64 60h2M68 60h1M70 60h3M62 61h4M68 61h5M62 62h2M65 62h1M68 62h1M71 62h2M62 63h4M71 63h2M62 64h3M70 64h3M62 65h1M68 65h5M62 66h1M65 66h1M68 66h5M62 67h4M68 67h1M70 67h3M62 68h2M65 68h1M68 68h5M62 69h11M62 70h7M71 70h2M62 71h6M71 71h2M62 72h4M71 72h2M62 73h3M71 73h2M62 74h1M71 74h2M71 75h2M70 76h2M69 77h2M67 78h3M65 79h2M63 80h2M64 81h1" />
<path stroke="#842a23" d="M127 56h1M127 57h1M127 59h1M127 60h1" />
<path stroke="#593e2c" d="M205 59h2M205 60h2" />
<path stroke="#c4aa94" d="M59 60h1M59 61h1M59 62h1M59 63h1M59 64h1M59 65h1M59 66h1M59 67h1M59 68h1M59 69h1M59 70h1M59 71h1M59 72h1M59 73h1M59 74h1M59 75h1M59 76h1M59 77h1M59 78h1M59 79h1M59 80h1M59 81h1M59 82h1M59 83h1" />
<path stroke="#df6051" d="M66 60h2M69 60h1M66 61h2M64 62h1M66 62h2M69 62h2M66 63h5M65 64h5M63 65h5M63 66h2M66 66h2M66 67h2M69 67h1M64 68h1M66 68h2M54 110h3M60 110h2M55 111h6M55 112h7M54 113h1M56 113h5M55 114h4M57 115h1M59 115h1" />
<path stroke="#fceddf" d="M180 60h1" />
<path stroke="#777371" d="M95 63h4M93 64h2M91 65h2M89 66h2M87 67h2M85 68h2M83 69h2M81 70h2M79 71h2M79 72h1M79 73h1M79 74h1M79 75h1M79 76h1M79 77h1M99 77h1M79 78h1M97 78h2M79 79h1M95 79h2M79 80h1M93 80h2M79 81h1M91 81h2M79 82h1M89 82h2M79 83h1M87 83h2M79 84h1M85 84h2M79 85h1M83 85h2M79 86h4" />
<path stroke="#8d8988" d="M95 64h4M93 65h4M98 65h1M91 66h4M98 66h1M89 67h4M98 67h1M87 68h4M98 68h1M85 69h4M98 69h1M83 70h4M98 70h1M81 71h4M98 71h1M80 72h3M98 72h1M80 73h2M98 73h1M80 74h2M98 74h1M80 75h2M98 75h1M80 76h2M97 76h2M80 77h2M95 77h4M80 78h2M93 78h4M80 79h2M91 79h4M80 80h2M89 80h4M80 81h2M87 81h4M80 82h2M85 82h4M80 83h2M83 83h4M80 84h5M80 85h3M200 97h1M203 97h1M200 98h4M200 99h4" />
<path stroke="#949291" d="M99 64h1M99 65h1M99 66h1M99 67h1M99 68h1M99 69h1M99 70h1M99 71h1M99 72h1M99 73h1M99 74h1M99 75h1M99 76h1M91 82h1M89 83h3M89 84h2M90 85h1" />
<path stroke="#9b784b" d="M107 64h1M105 65h1M103 66h1M101 67h1" />
<path stroke="#2b2929" d="M97 65h1M95 66h3M93 67h5M91 68h3M97 68h1M89 69h4M97 69h1M87 70h6M97 70h1M85 71h8M97 71h1M83 72h6M90 72h3M96 72h2M82 73h4M88 73h5M94 73h4M82 74h2M88 74h10M82 75h1M85 75h5M91 75h7M82 76h6M91 76h6M82 77h4M89 77h6M82 78h3M86 78h7M82 79h1M85 79h6M82 80h1M85 80h4M82 81h5M82 82h3M82 83h1" />
<path stroke="#9e6a66" d="M140 65h1" />
<path stroke="#ffeed0" d="M201 65h2M201 66h1M209 66h2M202 67h9M201 68h10M201 69h1M209 69h1M201 70h3M205 70h2M209 70h2M201 71h1M209 71h2M201 72h1M208 72h1M210 72h1M201 73h1M203 73h1M209 73h2M201 74h3M209 74h2M201 75h1M209 75h2M204 76h1M207 76h3M200 77h1M202 77h2M206 77h3M210 77h1M203 78h1M206 78h1M210 78h1M203 79h1M205 79h1M207 79h1M205 80h1" />
<path stroke="#e8c1be" d="M138 66h3M137 67h2M131 70h1M129 71h2M129 72h1M129 73h1M129 74h1M129 75h1M129 76h1M129 77h1M129 78h1M129 79h1M129 80h1M132 81h1" />
<path stroke="#985f5a" d="M141 66h1M141 67h1M141 68h1M141 69h1M141 77h1" />
<path stroke="#feebce" d="M202 66h1" />
<path stroke="#f7dfc2" d="M203 66h1" />
<path stroke="#f2dfbe" d="M204 66h1M208 66h1M201 67h1M210 69h1M202 72h2M208 74h1M202 75h2M208 75h1M202 76h2M204 77h2M204 78h2M198 83h1M198 84h1M198 85h2M198 86h2M208 88h1M208 89h2M208 90h2" />
<path stroke="#c9a19e" d="M136 67h1M133 69h1" />
<path stroke="#b1bab0" d="M94 68h3M93 69h4M93 70h4M93 71h4M93 72h3M93 73h1" />
<path stroke="#432925" d="M134 68h2M134 70h2M134 71h2M134 72h2M134 73h2M134 74h2M134 75h2M134 76h1M134 77h1M134 78h1M134 79h1M134 80h1" />
<path stroke="#76504a" d="M132 69h1" />
<path stroke="#6e534d" d="M134 69h2M135 76h1M135 77h1M135 78h1M135 79h1M135 80h1" />
<path stroke="#fdebcd" d="M202 69h1" />
<path stroke="#d99b42" d="M203 69h1M206 69h1M206 71h1M208 73h1" />
<path stroke="#f8e0c3" d="M204 69h1M207 69h1" />
<path stroke="#f9e1c5" d="M205 69h1" />
<path stroke="#feebcd" d="M208 69h1" />
<path stroke="#64492d" d="M69 70h2M67 72h1M65 73h1M63 74h3M70 74h1M63 75h1M70 75h1M65 77h1M67 77h1M65 78h1M63 79h1" />
<path stroke="#ad7570" d="M141 70h1M141 71h1M141 72h1" />
<path stroke="#f39305" d="M204 70h1M207 70h2M204 71h2M207 71h1M205 72h1" />
<path stroke="#76593b" d="M68 71h3M66 72h1M70 72h1M70 73h1M66 74h4M66 75h2M63 76h1M65 76h3M63 77h1M66 77h1M68 77h1M66 78h1M64 79h1" />
<path stroke="#fde9cb" d="M202 71h1" />
<path stroke="#da9c44" d="M203 71h1M200 86h2M200 87h2M200 88h2" />
<path stroke="#e24033" d="M208 71h1" />
<path stroke="#84613c" d="M68 72h2M66 73h4M64 75h1M68 75h2M68 76h2M64 77h1M63 78h1" />
<path stroke="#134911" d="M89 72h1M86 73h2M84 74h4M83 75h2M90 75h1M88 76h3M86 77h3M85 78h1M83 79h2M83 80h2" />
<path stroke="#7f4c42" d="M136 72h1M137 73h1M136 74h1M132 75h1M133 77h1" />
<path stroke="#78564e" d="M137 72h1M137 74h1M133 75h1M133 76h1M136 76h1M139 79h3M137 80h1M139 80h1M130 82h1M132 82h1M130 83h1" />
<path stroke="#99362e" d="M204 72h1M206 72h2M204 73h2M207 73h1M204 74h2M207 74h1M204 75h1M206 75h2M205 76h2M201 93h2M200 94h2M203 94h1M199 95h1M201 95h3M199 96h4M204 96h1" />
<path stroke="#feecce" d="M209 72h1" />
<path stroke="#4e2e1f" d="M136 73h1M133 74h1" />
<path stroke="#834a46" d="M141 73h1M141 74h1M141 75h1M141 76h1" />
<path stroke="#ffedcf" d="M202 73h1M197 82h3M197 83h1M199 83h2M197 84h1M199 84h2M197 85h1M200 85h1M197 86h1M207 86h2M198 87h2M207 87h3M207 88h1M209 88h1M207 89h1M202 94h1M200 95h1M203 96h1" />
<path stroke="#6b231d" d="M206 73h1M206 74h1M205 75h1" />
<path stroke="#996457" d="M132 74h1M136 75h1M133 78h1" />
<path stroke="#775a3c" d="M65 75h1M64 76h1M64 78h1" />
<path stroke="#4d8da3" d="M150 75h2M149 76h2M156 76h1M148 77h5M156 77h2M147 78h2M154 78h2M157 78h2M146 79h2M151 79h1M145 80h2M151 80h1M155 80h2M145 81h2M151 81h1M156 81h2M146 82h1M151 82h1M156 82h2M159 82h1M146 83h2M151 83h1M159 83h1M147 84h1M151 84h1M157 84h1M159 84h1M147 85h1M157 85h1M159 85h1M151 87h2M165 117h1M165 118h2M166 119h1M149 120h1M165 120h2M149 121h1M165 121h2M148 122h1M152 122h1M148 123h1M159 123h1M159 124h1M154 125h1M156 125h2M150 126h2M158 126h2M155 129h1" />
<path stroke="#569cb4" d="M152 75h3M148 76h1M151 76h5M100 77h2M147 77h1M153 77h3M99 78h2M102 78h1M146 78h1M149 78h5M156 78h1M97 79h4M145 79h1M148 79h3M152 79h8M95 80h6M147 80h4M152 80h3M157 80h3M93 81h8M147 81h4M152 81h4M158 81h2M93 82h8M110 82h1M147 82h4M152 82h4M158 82h1M93 83h8M110 83h3M148 83h3M152 83h7M87 84h1M96 84h5M110 84h5M148 84h3M152 84h5M158 84h1M85 85h3M96 85h4M110 85h5M148 85h9M158 85h1M83 86h5M94 86h4M110 86h5M149 86h11M80 87h6M94 87h2M110 87h1M113 87h1M150 87h1M153 87h5M80 88h5M91 88h3M79 89h7M89 89h3M102 89h1M77 90h14M102 90h1M75 91h2M81 91h8M100 91h2M73 92h4M80 92h1M82 92h5M99 92h2M103 92h1M71 93h5M82 93h4M98 93h2M71 94h5M81 94h5M96 94h3M72 95h5M80 95h6M97 95h1M74 96h14M76 97h13M92 97h1M78 98h15M80 99h11M82 100h6M84 101h2M159 114h1M167 114h1M159 115h1M166 115h2M166 116h3M151 117h5M166 117h2M150 118h2M167 118h1M149 119h1M165 119h1M167 119h1M148 120h1M167 120h2M147 121h2M164 121h1M167 121h1M151 122h1M163 122h4M151 123h2M157 123h2M160 123h6M151 124h2M155 124h4M160 124h5M150 125h2M155 125h1M158 125h6M154 126h4M160 126h2M154 127h7M158 128h1" />
<path stroke="#5090a6" d="M100 76h4M102 77h3M103 78h4M108 79h1M109 80h2M109 81h4M111 82h4M113 83h4M115 84h3M115 85h3M115 86h1M78 87h2M76 88h4M74 89h5M72 90h5M70 91h5M68 92h5M68 93h3M67 94h1M69 94h2M70 95h2M72 96h2M73 97h3M74 98h4M93 98h2M76 99h4M91 99h4M78 100h4M88 100h5M80 101h4M86 101h5M82 102h7M84 103h2" />
<path stroke="#d7bc78" d="M101 78h1M101 79h7M101 80h4M102 81h2M103 82h1M108 85h1M104 87h2M107 87h1M104 88h3" />
<path stroke="#e89666" d="M142 78h3M142 79h3M140 80h5M138 81h6M115 82h5M136 82h7M117 83h5M133 83h9M118 84h5M131 84h11M118 85h24M118 86h24M118 87h25M159 87h3M118 88h25M158 88h6M118 89h26M157 89h9M118 90h12M131 90h1M137 90h7M156 90h12M118 91h9M128 91h1M130 91h1M138 91h8M154 91h16M118 92h8M128 92h1M140 92h30M118 93h5M124 93h1M126 93h2M142 93h29M118 94h5M124 94h2M144 94h26M119 95h1M122 95h2M146 95h24M119 96h1M148 96h22M150 97h20M117 98h1M151 98h19M153 99h18M155 100h16M157 101h14M159 102h12M161 103h11M163 104h14M165 105h12M167 106h10M65 107h2M168 107h9M64 108h4M74 108h2M170 108h7M64 109h5M73 109h8M172 109h5M65 110h17M174 110h3M65 111h17M65 112h17M65 113h17M88 113h1M65 114h17M88 114h1M51 115h1M65 115h18M50 116h3M64 116h19M52 117h2M63 117h26M54 118h36M56 119h36M58 120h36M179 120h1M196 120h4M60 121h36M179 121h5M191 121h13M62 122h36M175 122h1M177 122h25M64 123h36M175 123h25M66 124h36M175 124h23M68 125h36M169 125h3M173 125h23M70 126h36M171 126h23M72 127h35M165 127h1M168 127h24M74 128h35M167 128h23M76 129h35M161 129h1M163 129h1M166 129h22M78 130h35M159 130h1M162 130h24M80 131h35M158 131h1M160 131h24M82 132h35M156 132h1M158 132h24M84 133h35M155 133h1M158 133h22M86 134h35M153 134h1M157 134h21M88 135h35M150 135h1M152 135h1M154 135h22M90 136h34M149 136h1M151 136h23M92 137h34M145 137h3M149 137h23M94 138h34M145 138h1M147 138h23M96 139h34M142 139h1M146 139h22M98 140h34M141 140h25M100 141h34M138 141h1M142 141h22M102 142h35M140 142h22M104 143h34M140 143h20M106 144h52M108 145h48M110 146h44M112 147h40M114 148h36M116 149h32M118 150h28M120 151h24M122 152h20M124 153h16M126 154h12M128 155h8M130 156h4" />
<path stroke="#be7b54" d="M116 79h2M114 80h5M113 81h8M144 81h1M120 82h2M143 82h2M122 83h2M142 83h3M123 84h2M142 84h3M142 85h3M142 86h4M143 87h3M143 88h4M144 89h4M144 90h7M155 90h1M146 91h8M95 99h2M75 100h3M93 100h6M74 101h6M91 101h6M171 101h1M74 102h8M89 102h6M171 102h3M176 102h2M74 103h8M88 103h6M172 103h6M74 104h8M88 104h6M177 104h1M66 105h1M74 105h8M88 105h6M177 105h1M64 106h3M74 106h8M88 106h6M177 106h1M64 107h1M74 107h8M88 107h6M177 107h1M63 108h1M76 108h6M88 108h6M177 108h1M81 109h1M88 109h4M177 109h1M205 109h3M64 110h1M88 110h2M177 110h2M205 110h3M64 111h1M89 111h1M176 111h2M198 111h1M205 111h4M52 112h1M64 112h1M89 112h1M91 112h2M198 112h2M205 112h4M50 113h3M64 113h1M89 113h1M198 113h2M205 113h5M214 113h1M49 114h4M63 114h2M197 114h3M205 114h5M214 114h1M49 115h2M52 115h2M63 115h2M196 115h4M205 115h6M213 115h2M53 116h2M62 116h2M195 116h5M205 116h9M54 117h9M194 117h6M205 117h7M185 118h1M189 118h3M195 118h5M205 118h5M181 119h1M183 119h9M195 119h5M205 119h4M182 120h14M184 121h7" />
<path stroke="#c3ae7b" d="M105 80h3M106 81h2M107 82h2M102 83h3M104 84h1M103 85h2M107 85h1M103 86h2M107 86h2M103 87h1M130 111h2M130 112h3M132 113h3M131 114h3M131 115h2M131 116h2M131 117h2" />
<path stroke="#a99668" d="M108 80h1M108 81h1" />
<path stroke="#f4d5ae" d="M101 81h1M101 82h1M102 84h2M100 85h3M100 86h3M101 87h2M102 88h2M92 93h2M92 94h3M92 95h2M161 107h2M160 108h1M162 108h2M154 109h1M160 109h1M162 109h2M155 110h1M159 110h5M155 111h2M160 111h4M157 112h1M162 112h1M154 113h1M154 114h2M154 115h4M155 116h3M159 118h2M159 119h2M137 120h3M137 121h3M137 123h2M136 124h1M141 125h2M140 126h1M145 127h2M145 128h4M150 128h2M150 129h3M150 130h2" />
<path stroke="#cab37a" d="M104 81h2M102 82h1M104 82h3M105 83h4M105 84h4M105 85h2M105 86h2M106 87h1" />
<path stroke="#674b40" d="M137 81h1M133 82h3M131 83h2M128 84h3" />
<path stroke="#595553" d="M92 82h1M92 83h1M88 84h1M91 84h5M88 85h2M91 85h5M88 86h2M91 86h3M86 87h8M98 87h2M85 88h6M96 88h2M100 88h2M86 89h3M94 89h2M98 89h2M92 90h2M97 90h1M91 91h1M94 91h2M98 91h1M89 92h2M92 92h1M96 92h1M91 93h1M94 93h1M87 94h1M89 94h1M88 95h1M91 95h1M89 96h2" />
<path stroke="#9a885c" d="M109 82h1M109 83h1M109 84h1M109 85h1M109 86h1" />
<path stroke="#386c7e" d="M145 82h1M145 83h1M145 84h2M145 85h2M146 86h2M114 87h2M146 87h2M149 87h1M158 87h1M114 88h2M147 88h4M153 88h2M156 88h2M115 89h1M148 89h3M153 89h2M156 89h1M151 90h4M72 97h1M71 98h2M115 98h1M71 99h2M115 99h1M71 100h2M114 100h2M71 101h2M71 102h2M71 103h2M86 103h1M71 104h2M86 104h1M71 105h2M86 105h1M71 106h2M86 106h1M71 107h2M86 107h1M71 108h1M86 108h1M86 109h1M86 110h1M86 111h1M86 112h1M86 113h1M86 114h1M168 117h1M168 118h1M168 119h1M147 122h1M167 122h1M147 123h1M155 123h2M166 123h1M147 124h1M165 124h1M147 125h1M164 125h1M162 126h2M161 127h1M156 128h2M159 128h1M154 129h1M156 129h3" />
<path stroke="#fae7d8" d="M101 83h1" />
<path stroke="#625b55" d="M101 84h1" />
<path stroke="#a9a6a5" d="M90 86h1" />
<path stroke="#697f87" d="M98 86h2M96 87h2M94 88h2M92 89h2M91 90h1M100 90h2M89 91h2M99 91h1M87 92h2M97 92h2M76 93h1M81 93h1M86 93h1M95 93h3M76 94h2M80 94h1M86 94h1M95 94h1M77 95h3M86 95h2M88 96h1M91 96h2M89 97h3M116 106h1M116 107h1" />
<path stroke="#102d38" d="M116 86h2M116 87h2M116 88h2M116 89h2M117 90h1M117 91h1M116 92h2M116 93h2M116 94h2M69 95h1M116 95h2M68 96h1M71 96h1M116 96h2M68 97h1M71 97h1M116 97h2M68 98h1M73 98h1M116 98h1M73 99h1M73 100h1M73 101h1M73 102h1M82 103h1M73 104h1M82 104h1M67 105h1M73 105h1M82 105h1M67 106h2M73 106h1M67 107h2M73 107h1M69 108h1M70 109h2M82 109h1M82 110h1M82 111h1M82 112h1M82 113h1M82 114h1M83 115h1M83 116h1M85 116h2" />
<path stroke="#336677" d="M148 86h1M148 87h1M151 88h2M155 88h1M151 89h2M155 89h1M174 102h2" />
<path stroke="#766f6c" d="M100 87h1M98 88h2M96 89h2M101 89h1M94 90h1M98 90h2M92 91h2M96 91h2M91 92h1M95 92h1M90 93h1M88 94h1M91 94h1M89 95h2" />
<path stroke="#998a65" d="M108 87h2M107 88h2M103 89h5" />
<path stroke="#91847d" d="M111 87h2M110 88h3M108 89h4M107 90h3M107 91h2M181 91h2M105 92h2M181 92h3M105 93h1M182 93h4M99 94h1M105 94h1M184 94h3M98 95h1M105 95h1M185 95h2M102 96h1M105 96h1M187 96h2M105 97h1M188 97h1M95 98h1M105 98h1M188 98h1M97 99h2M105 99h1M188 99h1M105 100h1M188 100h1M105 101h1M188 101h1M105 102h1M188 102h1M188 103h1M188 104h1M188 105h1M188 106h1" />
<path stroke="#827067" d="M109 88h1M105 90h2M105 91h2M104 92h1M184 92h2M104 93h1M104 94h1M187 94h1M104 95h1M187 95h2M104 96h1M189 96h1M104 97h1M189 97h1M104 98h1M189 98h1M104 99h1M189 99h1M104 100h1M189 100h1M104 101h1M189 101h1M104 102h1M189 102h1M105 103h4M189 103h1M189 104h1M189 105h1M189 106h1M185 107h4" />
<path stroke="#7d7069" d="M113 88h1M114 89h1M114 90h2M115 91h1M115 92h1M180 92h1M115 93h1M179 93h1M115 94h1M178 94h2M115 95h1M178 95h1M115 96h1M178 96h1M178 97h1M178 98h1M113 99h1M178 99h1M112 100h2M178 100h1M111 101h2M111 102h1M111 103h1M180 103h1M111 104h1M180 104h2M111 105h1M181 105h2M111 106h1M182 106h1M111 107h1M114 107h2M182 107h1M113 108h3M182 108h1M113 109h1M182 109h1M112 110h1M182 110h1M107 111h3M178 111h2M182 111h1M108 112h1M178 112h3M180 113h1M181 114h1M184 115h3M185 116h1" />
<path stroke="#6e6662" d="M100 89h1M95 90h1M94 92h1M89 93h1" />
<path stroke="#877c75" d="M112 89h2M110 90h4M109 91h6M101 92h1M107 92h8M100 93h1M106 93h9M180 93h2M106 94h9M180 94h4M95 95h2M99 95h1M102 95h1M106 95h9M179 95h6M97 96h2M101 96h1M106 96h9M179 96h8M93 97h3M101 97h1M106 97h9M179 97h9M96 98h2M100 98h1M106 98h8M179 98h9M99 99h2M106 99h7M179 99h9M106 100h6M179 100h9M106 101h5M179 101h9M106 102h2M110 102h1M180 102h8M110 103h1M181 103h7M110 104h1M182 104h6M110 105h1M183 105h5M110 106h1M183 106h1M186 106h2M110 107h1M183 107h1M110 108h1M183 108h1M183 109h1M183 110h1M183 111h1M183 112h1" />
<path stroke="#625d5a" d="M96 90h1M93 92h1M87 93h2M90 94h1" />
<path stroke="#c6ad8e" d="M103 90h2" />
<path stroke="#143f4e" d="M116 90h1M116 91h1M67 95h1M67 96h1M67 97h1M67 98h1M67 99h1M67 100h1M67 101h1M67 102h1M67 103h1M73 103h1M67 104h1M82 106h1M82 107h1M68 108h1M72 108h2M82 108h1M69 109h1M72 109h1M84 115h1M84 116h1" />
<path stroke="#b7483f" d="M130 90h1M132 90h5M129 91h1M131 91h6M126 92h2M129 92h5M135 92h2M125 93h1M128 93h4M135 93h2M123 94h1M126 94h5M135 94h2M121 95h1M124 95h5M135 95h2M144 95h1M120 96h7M136 96h1M144 96h1M118 97h23M144 97h1M118 98h33M116 99h5M123 99h2M135 99h1M144 99h1M152 99h1M116 100h4M123 100h2M134 100h2M144 100h1M152 100h1M113 101h5M123 101h2M134 101h2M144 101h1M152 101h1M112 102h4M123 102h2M134 102h2M144 102h1M152 102h1M112 103h12M134 103h2M144 103h1M152 103h1M112 104h1M114 104h2M117 104h25M143 104h2M152 104h1M114 105h2M132 105h29M114 106h2M134 106h1M143 106h2M152 106h1M154 106h7M124 107h1M134 107h1M143 107h2M152 107h1M123 108h1M133 108h2M143 108h2M152 108h1M123 109h1M133 109h2M143 109h2M152 109h1M114 110h1M123 110h1M133 110h2M143 110h2M152 110h1M113 111h2M122 111h2M133 111h2M143 111h1M152 111h1M93 112h1M98 112h1M113 112h2M122 112h2M133 112h1M141 112h12M177 112h1M90 113h8M113 113h2M117 113h15M135 113h16M152 113h2M159 113h1M167 113h6M176 113h3M89 114h6M102 114h3M108 114h2M113 114h11M143 114h1M152 114h1M168 114h12M88 115h11M102 115h5M113 115h1M122 115h1M143 115h1M152 115h1M177 115h2M87 116h7M101 116h2M113 116h1M122 116h1M143 116h1M152 116h1M177 116h2M181 116h1M89 117h2M101 117h1M113 117h1M122 117h1M143 117h1M177 117h3M184 117h1M101 118h2M122 118h1M143 118h1M177 118h4M184 118h1M92 119h3M101 119h1M113 119h1M122 119h1M142 119h2M175 119h6M182 119h1M94 120h37M140 120h8M173 120h6M180 120h2M101 121h1M112 121h2M121 121h2M142 121h2M168 121h11M100 122h1M121 122h2M142 122h2M169 122h6M176 122h1M100 123h1M121 123h2M142 123h2M170 123h5M121 124h1M142 124h1M166 124h7M112 125h1M121 125h1M143 125h1M165 125h4M111 126h2M121 126h1M164 126h5M111 127h2M121 127h1M163 127h2M166 127h1M111 128h2M115 128h13M142 128h2M162 128h3M111 129h13M142 129h1M160 129h1M162 129h1M164 129h2M120 130h2M142 130h1M158 130h1M160 130h1M120 131h1M142 131h1M155 131h3M120 132h1M142 132h1M150 132h1M153 132h3M120 133h1M132 133h1M142 133h1M148 133h3M153 133h2M132 134h1M142 134h1M146 134h6M123 135h27M151 135h1M124 136h6M132 136h1M134 136h15M132 137h1M140 137h5M132 138h1M139 138h5M132 139h1M137 139h5M132 140h2M135 140h5M134 141h4M139 141h3" />
<path stroke="#3d3535" d="M187 90h3M186 91h6M186 92h1M190 92h4M192 93h4M194 94h4M197 95h2M198 96h1M206 99h1" />
<path stroke="#b44940" d="M77 91h1M77 92h1M77 93h1" />
<path stroke="#f0f2f5" d="M102 91h3M102 92h1M101 93h2M100 94h3M94 95h1M100 95h2M93 96h4M99 96h2M96 97h5M98 98h2" />
<path stroke="#5a2723" d="M173 92h1M176 92h1M178 92h1M55 107h1M57 107h1M60 107h1M56 108h2M59 108h2" />
<path stroke="#3c1d16" d="M187 92h3M186 93h6M188 94h1M190 94h4M190 95h7M190 96h8M190 97h10M201 97h2M190 98h10M190 99h10M204 99h1M190 100h15M190 101h10M201 101h5M190 102h16M190 103h16M179 104h1M191 104h18M179 105h2M192 105h15M179 106h2M194 106h12M210 106h2M179 107h2M196 107h8M210 107h2M179 108h2M198 108h5M210 108h2M179 109h1M210 109h2M210 110h2M210 111h2M200 112h2M210 112h2M200 113h2M210 113h3M200 114h2M210 114h2M200 115h2M200 116h2M200 117h2M200 118h2M150 119h5M200 119h2M150 120h6M150 121h8M149 122h2M153 122h5M149 123h2M153 123h2M148 124h3M153 124h2M148 125h2M152 125h2M148 126h2M152 126h2M152 127h2" />
<path stroke="#728c95" d="M103 93h1" />
<path stroke="#7b3931" d="M171 93h1M53 108h3M62 108h1M53 109h1M55 109h3M59 109h5M53 110h1M57 110h3M63 110h1M53 111h1M63 111h1M53 112h1M63 112h1M53 113h1M63 113h1" />
<path stroke="#223539" d="M173 93h2M176 93h2" />
<path stroke="#1d5163" d="M68 94h1M68 95h1M68 99h1M68 100h1M68 101h1M68 102h1M68 103h1M87 103h1M68 104h1M87 104h1M68 105h1M87 105h1M87 106h1M87 107h1M87 108h1M87 109h1M87 110h1M87 111h1M87 112h1M87 113h1M87 114h1M86 115h2" />
<path stroke="#e7b36b" d="M103 94h1M103 95h1M103 96h1M103 97h1M103 98h1M103 99h1M103 100h1M103 101h1M103 102h1M103 103h2M97 105h1M112 105h2M97 106h3M107 106h1M113 106h1M99 107h3M105 107h1M113 107h1M97 108h1M101 108h1M103 108h2M108 108h1M98 109h3M108 109h1M101 110h3M106 110h2M104 111h3" />
<path stroke="#c7644e" d="M141 94h1M141 95h3M141 96h3M126 99h3M142 99h2M145 99h1M148 99h4M126 100h1M142 100h2M145 100h1M148 100h4M138 102h1M150 102h2M154 102h2M155 103h4M116 104h1M116 105h1M150 106h2M150 107h2M160 107h1M130 108h1M157 108h1M167 108h1M129 109h2M167 109h3M128 110h3M146 110h2M168 110h4M128 111h2M146 111h2M170 111h2M174 112h2M112 115h1M127 115h4M169 115h3M111 116h2M137 116h1M145 116h2M169 116h7M111 117h2M130 117h1M137 117h2M145 117h3M171 117h3M137 118h2M146 118h3M147 119h2M137 122h2M123 126h2M123 127h2" />
<path stroke="#3e2019" d="M189 94h1" />
<path stroke="#442c28" d="M189 95h1" />
<path stroke="#1e4d5d" d="M69 96h1M69 97h1M69 98h1M69 99h1M69 100h1M69 101h1M69 102h1M69 103h1M83 103h1M69 104h1M83 104h2M69 105h1M83 105h2M69 106h2M83 106h2M69 107h2M83 107h2M83 108h2M83 109h2M83 110h2M83 111h2M83 112h2M83 113h2M83 114h2" />
<path stroke="#1b3c47" d="M70 96h1M70 97h1M70 98h1M70 99h1M70 100h1M70 101h1M70 102h1M70 103h1M70 104h1M85 104h1M70 105h1M85 105h1M85 106h1M85 107h1M70 108h1M85 108h1M85 109h1M85 110h1M85 111h1M85 112h1M85 113h1M85 114h1M85 115h1" />
<path stroke="#b54d44" d="M134 96h2M137 96h2M153 103h1M153 104h1M123 105h2M123 106h2M135 106h1M123 107h1M133 107h1M135 107h1M151 113h1M151 114h1M151 115h1M113 118h1M101 122h1M112 122h2M101 123h1M112 123h2M168 123h2M112 124h2M143 124h2M132 131h2M132 132h2M151 132h2M133 133h1M151 133h2" />
<path stroke="#d7d8db" d="M102 97h1M102 98h1M102 99h1M102 100h1M102 101h1M102 102h1" />
<path stroke="#736760" d="M115 97h1M114 98h1M114 99h1M178 101h1M108 102h2M179 102h1M179 103h1M184 106h2M111 108h2M110 109h3M98 110h3M109 110h3M100 111h4M197 111h1M102 112h6M181 112h2M197 112h1M104 113h4M181 113h3M196 113h1M182 114h3M193 114h3M190 115h4M186 116h6M186 117h4" />
<path stroke="#979797" d="M101 98h1M101 99h1M101 100h1M101 101h1M101 102h1" />
<path stroke="#365257" d="M99 100h2M102 103h1M107 104h2M96 105h1M107 105h2M96 106h1M96 107h1M96 108h1M97 109h1M97 110h1" />
<path stroke="#45666c" d="M97 101h4M95 102h1M99 102h2M94 103h1M97 103h1M101 103h1M94 104h1M96 104h4M103 104h4M94 105h1M98 105h4M106 105h1M94 106h2M100 106h3M104 106h3M94 107h2M102 107h3M94 108h2M94 109h3M95 110h2M135 115h1M135 125h2M135 126h1M133 127h8" />
<path stroke="#3d201a" d="M200 101h1" />
<path stroke="#432c28" d="M210 101h2M211 102h3M211 103h3M190 104h1M209 104h3M190 105h2M208 105h3M191 106h3M206 106h4M193 107h3M205 107h3M194 108h4M204 108h3M196 109h4M202 109h3M198 110h6M199 111h4" />
<path stroke="#b55945" d="M117 102h4M113 104h1M117 105h4M117 106h2M125 107h2M138 107h4M116 108h1M125 108h2M125 109h2M125 110h1M98 113h2M95 114h4M107 115h4M119 115h2M99 116h2M103 116h6M119 116h2M126 116h3M94 117h4M106 117h2M119 117h2M127 117h1M94 118h5M119 118h2M97 119h2M105 121h3M115 121h3M104 122h7M115 122h3M136 122h1M104 123h2M136 123h1M104 124h4M110 124h1M114 124h2M140 124h1M106 125h2M113 126h2M119 126h1M127 126h2M113 127h3M118 127h2M127 127h1M144 131h3M122 132h1M144 132h2M122 133h2M126 133h2M123 134h5M138 134h3M128 138h1M131 138h1M133 138h2M131 139h1M133 139h2" />
<path stroke="#172126" d="M178 102h1M178 103h1M178 104h1M212 104h2M178 105h1M211 105h3M178 106h1M181 106h1M212 106h2M178 107h1M181 107h1M209 107h1M213 107h1M178 108h1M181 108h1M209 108h1M213 108h1M178 109h1M209 109h1M213 109h1M179 110h1M204 110h1M209 110h1M213 110h1M204 111h1M209 111h1M213 111h1M202 112h1M204 112h1M209 112h1M213 112h1M202 113h1M204 113h1M213 113h1M202 114h1M204 114h1M212 114h2M202 115h1M204 115h1M211 115h2M202 116h1M204 116h1M202 117h1M204 117h1M202 118h1M204 118h1M202 119h1M201 120h2" />
<path stroke="#3c2824" d="M210 102h1" />
<path stroke="#8a8886" d="M109 103h1M109 104h1M109 105h1M109 106h1M109 107h1M109 108h1M109 109h1M114 109h1M108 110h1M113 110h1M98 111h2M110 111h2M99 112h3M109 112h2M102 113h2M108 113h1M179 113h1M184 113h1M197 113h1M105 114h3M180 114h1M185 114h1M196 114h1M182 115h2M194 115h2M183 116h2M192 116h3M185 117h1M190 117h2M186 118h3" />
<path stroke="#3c231f" d="M210 103h1" />
<path stroke="#876943" d="M161 105h4M161 106h6M163 107h4M164 108h3M165 109h2M165 110h2M165 111h2M164 112h3M160 113h1M164 113h3M163 114h2M166 114h1" />
<path stroke="#3d1f18" d="M207 105h1M204 107h1" />
<path stroke="#e7c0a6" d="M214 105h1" />
<path stroke="#fdc981" d="M108 106h1M112 106h1M97 107h2M106 107h3M112 107h1M98 108h3M102 108h1M105 108h3M101 109h7M104 110h2" />
<path stroke="#9b6f61" d="M190 106h1M191 107h2M193 108h1M180 109h2M194 109h2M180 110h1M196 110h2M180 111h1M196 112h1M185 113h1M193 113h3M186 114h2M190 114h3M187 115h3" />
<path stroke="#d6907c" d="M184 107h1M184 108h1M184 109h1M184 110h1M184 111h1M184 112h1M132 119h2M132 120h5M132 121h3M132 122h2M132 123h3M132 124h3M132 125h3" />
<path stroke="#dc9d8a" d="M189 107h1M187 108h3M185 109h8M181 110h1M185 110h8M181 111h1M185 111h10M185 112h11M186 113h5M134 119h2M131 120h1M131 121h1M136 121h1" />
<path stroke="#c38c7c" d="M190 107h1M185 108h2M190 108h3M193 109h1M193 110h3M195 111h2M191 113h2M188 114h2M135 121h1M131 122h1M134 122h1M131 123h1M131 124h1M131 125h1M131 126h2" />
<path stroke="#a58f80" d="M208 107h1" />
<path stroke="#3a1d17" d="M212 107h1M212 108h1" />
<path stroke="#f8efde" d="M161 108h1" />
<path stroke="#3d221d" d="M203 108h1" />
<path stroke="#d9af92" d="M208 108h1" />
<path stroke="#cb6154" d="M54 109h1M61 111h2M62 112h1M55 113h1M61 113h1M59 114h3" />
<path stroke="#86644a" d="M92 109h1M92 110h1" />
<path stroke="#7b5b41" d="M93 109h1" />
<path stroke="#502e10" d="M153 109h1M153 110h1M154 112h2M155 113h4M158 114h1" />
<path stroke="#494721" d="M161 109h1" />
<path stroke="#e4c49d" d="M164 109h1M164 110h1M164 111h1M161 112h1M163 112h1M137 124h2M137 125h1M141 126h2M141 127h1" />
<path stroke="#3d2a26" d="M200 109h1" />
<path stroke="#3d231d" d="M201 109h1" />
<path stroke="#e2b699" d="M208 109h1" />
<path stroke="#391d18" d="M212 109h1M203 111h1M203 112h1M203 113h1M203 114h1M203 115h1M203 118h1M203 119h2M200 120h1M204 120h1" />
<path stroke="#bc675d" d="M62 110h1M54 111h1M54 112h1M62 113h1M54 114h1M55 115h2M58 115h1" />
<path stroke="#e4c39a" d="M154 110h1M154 111h1M156 112h1" />
<path stroke="#bd7b54" d="M208 110h1" />
<path stroke="#371e19" d="M212 110h1" />
<path stroke="#533c29" d="M93 111h1M94 112h4" />
<path stroke="#371f0a" d="M153 111h1M153 112h1M156 114h2" />
<path stroke="#351f1a" d="M212 111h1" />
<path stroke="#595960" d="M111 112h1M100 113h2M110 113h2M101 114h1M111 114h1M182 116h1M182 117h2M192 117h2M182 118h1M192 118h1" />
<path stroke="#381e19" d="M212 112h1" />
<path stroke="#45454b" d="M112 113h1M99 114h2M110 114h1M112 114h1M99 115h3M181 117h1M181 118h1M183 118h1M193 118h2M192 119h3" />
<path stroke="#dbb79f" d="M219 113h1M219 114h1" />
<path stroke="#a05950" d="M53 114h1M62 114h1M54 115h1M60 115h3M55 116h7" />
<path stroke="#fde0bb" d="M134 114h2M133 115h2M133 116h4M133 117h3M132 118h2" />
<path stroke="#887328" d="M165 114h1M165 115h1M165 116h1M158 117h5M156 118h1M158 118h1M156 119h3M158 120h6M160 121h4" />
<path stroke="#89654d" d="M46 115h3M45 116h5M44 117h8M46 118h8M48 119h8M50 120h8M52 121h8M54 122h8M56 123h8M58 124h8M60 125h8M62 126h8M64 127h8M66 128h8M68 129h8M70 130h8M72 131h8M74 132h8M76 133h8M78 134h8M80 135h8M82 136h8M84 137h8M86 138h8M88 139h8M90 140h8M92 141h8M94 142h8M96 143h8M98 144h8M100 145h8M102 146h8M104 147h8M106 148h8M108 149h8M110 150h8M112 151h8M114 152h8M116 153h8M118 154h8M120 155h8M122 156h8M124 157h7M126 158h6M128 159h4M130 160h2" />
<path stroke="#b24c45" d="M179 115h1" />
<path stroke="#996c63" d="M180 115h1" />
<path stroke="#b34b42" d="M179 116h1" />
<path stroke="#8f6565" d="M180 116h1" />
<path stroke="#391d17" d="M203 116h1M203 117h1" />
<path stroke="#b54940" d="M180 117h1" />
<path stroke="#ac9139" d="M164 119h1" />
<path stroke="#8c6f2a" d="M164 120h1" />
<path stroke="#302220" d="M203 120h1" />
<path stroke="#d78d61" d="M205 120h1" />
<path stroke="#354f54" d="M135 124h1M133 126h2M136 126h1M131 127h2M132 128h8" />
<path stroke="#923831" d="M129 125h2M145 125h2M129 126h2M144 126h4M128 127h3M144 127h1M149 127h3M162 127h1M128 128h4M140 128h2M144 128h1M149 128h1M153 128h3M160 128h2M128 129h12M144 129h6M153 129h1M159 129h1M131 130h7M145 130h5M152 130h6M148 131h7" />
<path stroke="#d2b48e" d="M147 127h2M152 128h1" />
</svg>