<svg width="2500" height="2500" viewBox="0 0 2500 2500" fill="none" xmlns="http://www.w3.org/2000/svg">
<g clip-path="url(#clip0_2103_4776)">
<path d="M898.008 1518.52C984.188 1518.52 1054.05 1588.38 1054.05 1674.56V2343.95C1054.05 2430.14 984.188 2499.99 898.008 2499.99C811.838 2499.99 741.974 2430.14 741.974 2343.95V1674.56C741.974 1588.39 811.838 1518.53 898.008 1518.53V1518.52Z" fill="#A4C639"/>
<path d="M541.77 713.725C541.255 719.642 540.806 725.625 540.806 731.674V1745.86C540.806 1854.93 627.139 1942.8 734.314 1942.8H1765.67C1872.86 1942.8 1959.19 1854.92 1959.19 1745.86V731.674C1959.19 725.625 1958.98 719.62 1958.47 713.725H541.77Z" fill="#A4C639"/>
<path d="M1602 1518.52C1688.18 1518.52 1758.05 1588.38 1758.05 1674.56V2343.95C1758.05 2430.14 1688.18 2499.99 1602 2499.99C1515.83 2499.99 1445.97 2430.14 1445.97 2343.95V1674.56C1445.97 1588.39 1515.83 1518.53 1602 1518.53V1518.52ZM290.088 803.982C376.257 803.982 446.122 873.847 446.122 960.027V1629.42C446.122 1715.6 376.257 1785.46 290.088 1785.46C203.907 1785.46 134.043 1715.6 134.043 1629.43V960.038C134.032 873.858 203.896 803.982 290.088 803.982ZM2209.93 803.982C2296.1 803.982 2365.97 873.847 2365.97 960.027V1629.42C2365.97 1715.6 2296.1 1785.46 2209.93 1785.46C2123.75 1785.46 2053.89 1715.6 2053.89 1629.43V960.038C2053.89 873.858 2123.75 803.982 2209.93 803.982V803.982ZM546.328 647.104C550.667 335.583 822.566 80.1647 1171.58 46.5034H1328.41C1677.45 80.1757 1949.32 335.605 1953.66 647.104H546.328Z" fill="#A4C639"/>
<path d="M600.6 16.4362L765.204 301.549M1899.42 16.4362L1734.81 301.549" stroke="#A4C639" stroke-width="32.8724" stroke-linecap="round" stroke-linejoin="round"/>
<path d="M1040.38 367.93C1040.51 411.475 1004.47 446.878 959.874 446.999C915.299 447.108 879.051 411.913 878.92 368.368V367.93C878.799 324.374 914.839 288.981 959.424 288.861C1004 288.74 1040.25 323.924 1040.38 367.491V367.93ZM1642.99 367.93C1643.13 411.475 1607.09 446.878 1562.49 446.999C1517.92 447.108 1481.67 411.913 1481.54 368.368V367.93C1481.42 324.374 1517.46 288.981 1562.04 288.861C1606.62 288.74 1642.86 323.924 1642.99 367.491V367.93Z" fill="white"/>
</g>
<defs>
<clipPath id="clip0_2103_4776">
<rect width="2500" height="2500" fill="white"/>
</clipPath>
</defs>
</svg>
