<?xml version="1.0" encoding="utf-8"?>
<svg version="1.0" width="591.000000pt" height="591.000000pt" viewBox="0 0 591.000000 591.000000" preserveAspectRatio="xMidYMid meet" xmlns="http://www.w3.org/2000/svg">
  <g transform="translate(0.000000,591.000000) scale(0.100000,-0.100000)" fill="#000000" stroke="none">
    <rect x="562.526" y="-4486.322" width="4791.892" height="3000.141" style="fill: rgb(255, 255, 255);" transform="matrix(1, 0, 0, -1, 0, 0)"/>
    <circle style="fill: rgb(64, 204, 244);" transform="matrix(1, 0, 0, -1, 0, 0)" cx="2340.388" cy="-2951.528" r="574.572"/>
    <path d="M 0 2955 L 0 0 L 2955 0 L 5910 0 L 5910 2955 L 5910 5910 L 2955 5910 L 0 5910 L 0 2955 Z M 2559.944 4130.459 C 2773.306 4088.459 2975.648 3988.459 3122.897 3852.459 L 3174.986 3804.459 L 3128.907 3759.459 C 3095.852 3726.459 3079.824 3717.459 3069.808 3724.459 C 3062.796 3730.459 3025.733 3760.459 2987.669 3792.459 C 2898.518 3867.459 2729.231 3951.459 2598.009 3986.459 C 2509.86 4009.459 2478.808 4012.459 2342.576 4012.459 C 2206.346 4012.459 2175.294 4009.459 2087.145 3986.459 C 1909.844 3938.459 1761.594 3856.459 1632.375 3734.459 C 1479.116 3589.459 1392.97 3443.459 1333.87 3229.459 C 1319.846 3177.459 1315.839 3125.459 1315.839 2969.459 C 1315.839 2788.459 1317.843 2767.459 1342.885 2679.459 C 1392.97 2501.459 1467.096 2366.459 1587.298 2239.459 C 1962.934 1842.459 2574.971 1799.459 2997.685 2140.459 L 3085.834 2211.459 L 3131.913 2166.459 L 3177.991 2120.459 L 3128.907 2077.459 C 2906.531 1879.459 2642.083 1779.459 2344.58 1779.459 C 2195.327 1779.459 2083.138 1796.459 1961.933 1837.459 C 1563.258 1973.459 1275.771 2300.459 1190.628 2718.459 C 1165.585 2840.459 1163.582 3056.459 1185.619 3180.459 C 1249.728 3545.459 1485.126 3864.459 1809.675 4028.459 C 1892.815 4070.459 2031.049 4115.459 2128.215 4133.459 C 2246.414 4154.459 2442.747 4153.459 2559.944 4130.459 Z M 4419.091 3509.459 C 4641.467 3473.459 4776.696 3281.459 4776.696 3002.459 L 4776.696 2909.459 L 4381.026 2909.459 L 3985.356 2909.459 L 3985.356 2866.459 C 3985.356 2843.459 3992.369 2797.459 4000.383 2766.459 C 4033.438 2639.459 4095.543 2561.459 4200.721 2513.459 C 4321.926 2457.459 4508.241 2480.459 4644.472 2568.459 L 4706.577 2609.459 L 4706.577 2539.459 C 4706.577 2475.459 4704.574 2469.459 4677.528 2450.459 C 4568.343 2372.459 4336.952 2336.459 4190.704 2374.459 C 3964.321 2433.459 3835.102 2636.459 3835.102 2931.459 C 3836.104 3116.459 3891.197 3265.459 4001.384 3375.459 C 4115.577 3489.459 4259.821 3535.459 4419.091 3509.459 Z M 3698.872 3499.459 C 3723.914 3490.459 3724.916 3486.459 3724.916 3418.459 C 3724.916 3354.459 3722.912 3348.459 3707.887 3354.459 C 3580.672 3406.459 3463.474 3370.459 3396.36 3259.459 C 3325.24 3140.459 3321.232 3112.459 3315.222 2729.459 L 3309.212 2384.459 L 3242.099 2381.459 L 3173.983 2378.459 L 3173.983 2934.459 L 3173.983 3489.459 L 3244.102 3489.459 L 3314.221 3489.459 L 3314.221 3382.459 L 3315.222 3274.459 L 3342.269 3328.459 C 3399.365 3442.459 3498.533 3509.459 3611.724 3509.459 C 3645.782 3509.459 3684.848 3505.459 3698.872 3499.459 Z M 2485.819 3344.459 C 2553.934 3320.459 2634.07 3243.459 2667.126 3170.459 C 2702.186 3092.459 2717.211 2974.459 2703.187 2881.459 C 2684.155 2742.459 2615.038 2638.459 2505.853 2584.459 C 2430.726 2547.459 2285.48 2537.459 2200.336 2563.459 C 2053.087 2610.459 1964.938 2735.459 1953.919 2911.459 C 1939.895 3149.459 2049.081 3318.459 2243.409 3359.459 C 2304.513 3372.459 2427.721 3364.459 2485.819 3344.459 Z" style="fill: rgb(12, 44, 101);"/>
    <path d="M 4221.613 3375.459 C 4104.613 3338.459 4020.613 3229.459 3984.613 3067.459 L 3978.613 3039.459 L 4302.613 3039.459 L 4626.613 3039.459 L 4621.613 3082.459 C 4608.613 3192.459 4560.613 3295.459 4500.613 3338.459 C 4430.613 3388.459 4312.613 3403.459 4221.613 3375.459 Z" style="fill: rgb(12, 44, 101);"/>
  </g>
</svg>