<svg width="25" height="24" viewBox="0 0 25 24" fill="none" xmlns="http://www.w3.org/2000/svg">
<g clip-path="url(#clip0_1_28)">
<path d="M8.30914 14.3316C8.2668 14.2581 8.23749 14.1778 8.2225 14.0943C8.23916 14.1773 8.26837 14.2574 8.30914 14.3316ZM8.41571 14.4627C8.45643 14.5031 8.50223 14.5385 8.55322 14.5636L12.0269 16.5072L8.55322 14.5636C8.50227 14.5376 8.45584 14.5035 8.41571 14.4627V14.4627Z" fill="#083042"/>
<path d="M12.562 18.9658H12.5365C12.2818 18.9658 12.0271 18.9053 11.798 18.779L6.61276 15.8814C6.30705 15.7098 6.11855 15.3918 6.11855 15.0485V9.15232C6.11855 8.89978 6.16447 8.65751 6.2714 8.44545L2.21708 6.18913C2.04913 6.54256 1.96249 6.94131 1.96756 7.36036V17.0981C1.97264 17.6685 2.2833 18.1936 2.78754 18.4763L11.3396 23.2619C11.7165 23.4738 12.1393 23.5749 12.5569 23.5749V23.5698C12.5672 22.959 12.5621 20.5107 12.5621 18.9659L12.562 18.9658Z" fill="#083042"/>
<path d="M16.6314 9.5153L16.6008 9.46987C16.5755 9.43459 16.55 9.40438 16.5246 9.3691C16.55 9.3993 16.5755 9.43459 16.6008 9.46987C16.611 9.48002 16.6211 9.49512 16.6314 9.5153ZM12.3635 7.15301C12.3891 7.15301 12.4095 7.14794 12.4351 7.14794C12.4095 7.15301 12.3839 7.15301 12.3635 7.15301Z" fill="#3DDB85"/>
<path d="M6.26621 8.44037C6.37834 8.20813 6.55162 8.01625 6.78579 7.87487L11.6654 5.02284C12.1188 4.7552 12.6791 4.75024 13.1426 5.00762L18.0731 7.76902C18.2944 7.89252 18.4843 8.0652 18.6283 8.27374L22.6165 5.91628C22.3792 5.57486 22.0674 5.29179 21.7047 5.08845L13.5602 0.530017C13.1873 0.321734 12.7665 0.214494 12.3395 0.218924C11.9124 0.223354 11.494 0.339299 11.1255 0.555271L3.0727 5.25992C2.68555 5.48708 2.40039 5.81019 2.21696 6.18876L6.26633 8.44025L6.26621 8.44037Z" fill="#3DDC84"/>
<path d="M12.1602 7.19385C12.1706 7.18866 12.181 7.18866 12.1914 7.18358C12.181 7.18866 12.1706 7.18866 12.1602 7.19385ZM8.31869 9.57632C8.32884 9.55615 8.33898 9.53597 8.34926 9.52086C8.33898 9.54104 8.32884 9.55615 8.31869 9.57632L8.30346 9.62164L8.31869 9.57632Z" fill="#3DDB85"/>
<path d="M22.6112 5.9164L18.623 8.27386C18.7757 8.49595 18.8674 8.7584 18.8725 9.02593V14.6395C18.8756 14.8966 18.8102 15.1499 18.6832 15.3735C18.5561 15.597 18.3718 15.7827 18.1493 15.9116L13.2697 18.7638C13.0506 18.89 12.8062 18.9607 12.5616 18.9657C12.5668 20.5053 12.5668 22.9538 12.5565 23.5646V23.5695C12.9842 23.5649 13.4035 23.4502 13.7739 23.2364L21.8268 18.5266C22.5756 18.0873 23.034 17.2897 23.0237 16.4265V7.16316C23.0187 6.7139 22.8659 6.28482 22.6112 5.91628V5.9164Z" fill="#4285F4"/>
<path d="M16.724 14.0388C16.7188 14.0491 16.7188 14.0594 16.7137 14.0696C16.7188 14.0594 16.724 14.0491 16.724 14.0388ZM16.6727 9.5814C16.6625 9.55603 16.6471 9.53585 16.6318 9.51047C16.6471 9.53585 16.6625 9.56122 16.6727 9.5814ZM13.0157 16.5024L16.2857 14.5891C16.3061 14.5791 16.3214 14.5638 16.3418 14.5538C16.3214 14.5638 16.3061 14.5791 16.2857 14.5891L13.0157 16.5024V16.5024ZM16.6828 14.1548C16.6725 14.1802 16.6572 14.2056 16.6469 14.2309C16.6572 14.2005 16.6674 14.1751 16.6828 14.1548Z" fill="#4285F4"/>
<path d="M8.30406 9.62164C8.2626 9.71962 8.23682 9.82352 8.2277 9.92952C8.2225 9.96988 8.2225 10.0104 8.2225 10.0558V14.0085C8.2225 14.0387 8.2225 14.064 8.2277 14.0943C8.23785 14.1801 8.26842 14.2608 8.31421 14.3315C8.34478 14.382 8.38043 14.4223 8.41608 14.4627C8.45692 14.5032 8.50271 14.5385 8.55358 14.5637L12.0274 16.5072C12.1802 16.5931 12.3534 16.6335 12.5215 16.6335H12.5572C12.7191 16.628 12.8769 16.581 13.0156 16.4972L16.2856 14.5839C16.306 14.5739 16.3212 14.5586 16.3417 14.5486C16.3773 14.5234 16.4129 14.4981 16.4435 14.4678C16.4914 14.4243 16.5357 14.3771 16.5759 14.3264C16.6013 14.2911 16.6268 14.2558 16.6472 14.2204C16.6625 14.1952 16.6727 14.1699 16.6829 14.1447C16.693 14.1195 16.7084 14.0892 16.7185 14.0589C16.7236 14.0489 16.7236 14.0387 16.7287 14.0287C16.7596 13.9307 16.7751 13.8285 16.7746 13.7257V9.96492C16.7746 9.89424 16.7643 9.82863 16.7491 9.76301C16.739 9.71758 16.7236 9.6771 16.7084 9.63674L16.6778 9.5762C16.6675 9.55095 16.6523 9.53077 16.6371 9.50552C16.6269 9.4904 16.6167 9.47525 16.6065 9.46008C16.581 9.42468 16.5555 9.39447 16.53 9.35907C16.447 9.26245 16.3469 9.18203 16.2346 9.12187L12.929 7.26925C12.8729 7.23892 12.8117 7.2086 12.7507 7.18842C12.668 7.1631 12.5824 7.14785 12.496 7.14298H12.4298C12.4043 7.14298 12.384 7.14298 12.3585 7.14806C12.3024 7.15313 12.2413 7.16316 12.1854 7.17827C12.1751 7.18334 12.1649 7.18334 12.1548 7.18842C12.0783 7.2086 12.007 7.244 11.9357 7.28436L8.66572 9.19763C8.57073 9.25321 8.48763 9.32695 8.42115 9.41465C8.39578 9.44993 8.37028 9.48534 8.34986 9.52062C8.33971 9.5408 8.32956 9.55603 8.31929 9.5762L8.30406 9.62164V9.62164Z" fill="#D6F0FF"/>
<path d="M12.5564 16.6334H12.5208C12.3527 16.6334 12.1795 16.593 12.0267 16.5072L8.55298 14.5637C8.50199 14.5334 8.45619 14.5031 8.41547 14.4627C8.37568 14.4238 8.3414 14.3797 8.31361 14.3315C8.27125 14.258 8.24194 14.1777 8.22697 14.0942C8.2219 14.064 8.2219 14.0387 8.2219 14.0084V10.0557C8.2219 10.0153 8.2219 9.96988 8.22697 9.92952C8.23671 9.82358 8.26246 9.71974 8.30334 9.62152L7.36615 9.05118L6.26597 8.44025C6.1641 8.65231 6.11311 8.89458 6.11311 9.14713V15.0433C6.11621 15.2131 6.1634 15.3791 6.25004 15.5251C6.33668 15.6712 6.4598 15.7921 6.60732 15.8762L11.7873 18.7789C12.0165 18.905 12.2713 18.9706 12.5259 18.9657H12.5514C12.5514 18.2135 12.5463 17.6783 12.5463 17.6783L12.5564 16.6334V16.6334Z" fill="#083042"/>
<path d="M12.5564 16.6334H12.5208C12.3527 16.6334 12.1795 16.593 12.0267 16.5072L8.55298 14.5637C8.50199 14.5334 8.45619 14.5031 8.41547 14.4627C8.37568 14.4238 8.3414 14.3797 8.31361 14.3315C8.27125 14.258 8.24194 14.1777 8.22697 14.0942C8.2219 14.064 8.2219 14.0387 8.2219 14.0084V10.0557C8.2219 10.0153 8.2219 9.96988 8.22697 9.92952C8.23671 9.82358 8.26246 9.71974 8.30334 9.62152L7.36615 9.05118L6.26597 8.44025C6.1641 8.65231 6.11311 8.89458 6.11311 9.14713V15.0433C6.11621 15.2131 6.1634 15.3791 6.25004 15.5251C6.33668 15.6712 6.4598 15.7921 6.60732 15.8762L11.7873 18.7789C12.0165 18.905 12.2713 18.9706 12.5259 18.9657H12.5514C12.5514 18.2135 12.5463 17.6783 12.5463 17.6783L12.5564 16.6334V16.6334Z" fill="#041619"/>
<path d="M18.0675 7.76902L13.137 5.00762C12.6786 4.75024 12.1183 4.75532 11.66 5.02284L6.78035 7.87499C6.54594 8.01129 6.3729 8.20813 6.26077 8.44049L7.36615 9.05118L8.30334 9.62164L8.31856 9.5762C8.32883 9.55602 8.33898 9.53585 8.34913 9.52062C8.36955 9.48534 8.39505 9.45005 8.42042 9.41465C8.48664 9.32886 8.5682 9.25817 8.66499 9.19763L11.935 7.28436C12.0046 7.24515 12.078 7.21301 12.1541 7.18842C12.1642 7.18346 12.1744 7.18346 12.1845 7.17839C12.2412 7.16301 12.2992 7.15289 12.3578 7.14818C12.3832 7.14818 12.4036 7.14298 12.4291 7.14298H12.4953C12.5816 7.1483 12.667 7.16354 12.7499 7.18842C12.8124 7.20803 12.8723 7.23517 12.9282 7.26925L16.2339 9.12187C16.346 9.18253 16.4428 9.26325 16.5293 9.35919C16.5548 9.3894 16.5803 9.4248 16.6057 9.46008L16.6362 9.50552L17.4818 8.94521L18.6278 8.26371C18.4802 8.06675 18.2917 7.8901 18.0675 7.76902V7.76902Z" fill="#3DDB85"/>
<path d="M18.0675 7.76902L13.137 5.00762C12.6786 4.75024 12.1183 4.75532 11.66 5.02284L6.78035 7.87499C6.54594 8.01129 6.3729 8.20813 6.26077 8.44049L7.36615 9.05118L8.30334 9.62164L8.31856 9.5762C8.32883 9.55602 8.33898 9.53585 8.34913 9.52062C8.36955 9.48534 8.39505 9.45005 8.42042 9.41465C8.48664 9.32886 8.5682 9.25817 8.66499 9.19763L11.935 7.28436C12.0046 7.24515 12.078 7.21301 12.1541 7.18842C12.1642 7.18346 12.1744 7.18346 12.1845 7.17839C12.2412 7.16301 12.2992 7.15289 12.3578 7.14818C12.3832 7.14818 12.4036 7.14298 12.4291 7.14298H12.4953C12.5816 7.1483 12.667 7.16354 12.7499 7.18842C12.8124 7.20803 12.8723 7.23517 12.9282 7.26925L16.2339 9.12187C16.346 9.18253 16.4428 9.26325 16.5293 9.35919C16.5548 9.3894 16.5803 9.4248 16.6057 9.46008L16.6362 9.50552L17.4818 8.94521L18.6278 8.26371C18.4802 8.06675 18.2917 7.8901 18.0675 7.76902V7.76902Z" fill="#37BF6E"/>
<path d="M16.6314 9.51543C16.6468 9.54068 16.6569 9.56086 16.6721 9.58611L16.7027 9.64665C16.7181 9.68713 16.7333 9.73256 16.7435 9.77292C16.7588 9.83853 16.7689 9.90415 16.7689 9.97483V13.7356C16.7694 13.8384 16.754 13.9406 16.7231 14.0386C16.718 14.0486 16.718 14.0588 16.713 14.0688C16.7027 14.0991 16.6926 14.1244 16.6773 14.1547C16.6671 14.18 16.6518 14.2051 16.6417 14.2303C16.6213 14.2657 16.5958 14.301 16.5703 14.3364C16.5302 14.3872 16.4859 14.4344 16.4378 14.4777C16.4073 14.508 16.3716 14.5333 16.336 14.5585C16.3157 14.5686 16.3003 14.5838 16.28 14.5938L13.0099 16.5071C12.8693 16.5865 12.7126 16.633 12.5515 16.6434V17.6884C12.5515 17.6884 12.5515 18.2234 12.5567 18.9756C12.8062 18.9711 13.0503 18.9015 13.2646 18.7737L18.1442 15.9215C18.5975 15.654 18.8726 15.1693 18.8674 14.6494V9.03584C18.8624 8.76324 18.7708 8.50586 18.6179 8.28365L17.4718 8.96515L16.6314 9.51543Z" fill="#4285F4"/>
<path d="M16.6314 9.51543C16.6468 9.54068 16.6569 9.56086 16.6721 9.58611L16.7027 9.64665C16.7181 9.68713 16.7333 9.73256 16.7435 9.77292C16.7588 9.83853 16.7689 9.90415 16.7689 9.97483V13.7356C16.7694 13.8384 16.754 13.9406 16.7231 14.0386C16.718 14.0486 16.718 14.0588 16.713 14.0688C16.7027 14.0991 16.6926 14.1244 16.6773 14.1547C16.6671 14.18 16.6518 14.2051 16.6417 14.2303C16.6213 14.2657 16.5958 14.301 16.5703 14.3364C16.5302 14.3872 16.4859 14.4344 16.4378 14.4777C16.4073 14.508 16.3716 14.5333 16.336 14.5585C16.3157 14.5686 16.3003 14.5838 16.28 14.5938L13.0099 16.5071C12.8693 16.5865 12.7126 16.633 12.5515 16.6434V17.6884C12.5515 17.6884 12.5515 18.2234 12.5567 18.9756C12.8062 18.9711 13.0503 18.9015 13.2646 18.7737L18.1442 15.9215C18.5975 15.654 18.8726 15.1693 18.8674 14.6494V9.03584C18.8624 8.76324 18.7708 8.50586 18.6179 8.28365L17.4718 8.96515L16.6314 9.51543Z" fill="#3870B2"/>
<path d="M12.1596 7.19361C12.0831 7.21379 12.0118 7.2492 11.9405 7.28955L8.67055 9.20271L11.9405 7.28955C12.0087 7.24737 12.0824 7.21507 12.1596 7.19361V7.19361Z" fill="#D6F0FF"/>
<path opacity="0.1" d="M12.1596 7.19361C12.0831 7.21379 12.0118 7.2492 11.9405 7.28955L8.67055 9.20271L11.9405 7.28955C12.0087 7.24737 12.0824 7.21507 12.1596 7.19361V7.19361Z" fill="black"/>
<path d="M16.5247 9.36909C16.4417 9.27246 16.3416 9.192 16.2294 9.13178L12.9236 7.27916L16.2294 9.13178C16.3416 9.192 16.4417 9.27246 16.5247 9.36909V9.36909Z" fill="#D6F0FF"/>
<path opacity="0.1" d="M16.5247 9.36909C16.4417 9.27246 16.3416 9.192 16.2294 9.13178L12.9236 7.27916L16.2294 9.13178C16.3416 9.192 16.4417 9.27246 16.5247 9.36909V9.36909Z" fill="black"/>
<path d="M16.7026 9.64194C16.7178 9.68217 16.733 9.72761 16.7432 9.76784C16.733 9.72761 16.7178 9.68725 16.7026 9.64194Z" fill="#D6F0FF"/>
<path opacity="0.1" d="M16.7026 9.64194C16.7178 9.68217 16.733 9.72761 16.7432 9.76784C16.733 9.72761 16.7178 9.68725 16.7026 9.64194Z" fill="black"/>
<path d="M16.7228 14.0386C16.7536 13.9406 16.7691 13.8384 16.7686 13.7356V9.97483V13.7356C16.7691 13.8384 16.7536 13.9406 16.7228 14.0386Z" fill="#D6F0FF"/>
<path opacity="0.1" d="M16.7228 14.0386C16.7536 13.9406 16.7691 13.8384 16.7686 13.7356V9.97483V13.7356C16.7691 13.8384 16.7536 13.9406 16.7228 14.0386Z" fill="black"/>
</g>
<defs>
<clipPath id="clip0_1_28">
<rect width="24" height="24" fill="white" transform="translate(0.5)"/>
</clipPath>
</defs>
</svg>