<svg width="2122" height="2122" viewBox="0 0 2122 2122" fill="none" xmlns="http://www.w3.org/2000/svg">
<path d="M2096 1061C2096 1632.61 1632.61 2096 1061 2096C489.385 2096 26 1632.61 26 1061C26 489.385 489.385 26 1061 26C1632.61 26 2096 489.385 2096 1061Z" fill="white"/>
<path d="M991.511 0.57104C986.949 0.985836 972.428 2.43764 959.36 3.47464C657.964 30.6439 375.653 193.244 196.85 443.161C97.2844 582.118 33.6036 739.74 9.54174 906.697C1.03715 964.975 0 982.189 0 1061.21C0 1140.23 1.03715 1157.44 9.54174 1215.72C67.2071 1614.13 350.762 1948.87 735.337 2072.9C804.202 2095.09 876.802 2110.23 959.36 2119.36C991.511 2122.89 1130.49 2122.89 1162.64 2119.36C1305.14 2103.59 1425.87 2068.33 1544.93 2007.57C1563.19 1998.23 1566.71 1995.75 1564.22 1993.67C1562.56 1992.43 1484.78 1888.11 1391.43 1762.01L1221.76 1532.83L1009.14 1218.21C892.152 1045.24 795.905 903.792 795.075 903.792C794.245 903.586 793.416 1043.37 793.002 1214.06C792.38 1512.92 792.172 1524.95 788.438 1532C783.046 1542.17 778.897 1546.31 770.184 1550.88C763.547 1554.2 757.739 1554.82 726.418 1554.82H690.531L680.99 1548.8C674.766 1544.86 670.204 1539.68 667.093 1533.66L662.737 1524.33L663.772 692.453L670.204 684.364C673.523 680.01 680.574 674.41 685.552 671.713C694.057 667.564 697.376 667.15 733.261 667.15C775.578 667.15 782.63 668.81 793.624 680.839C796.735 684.156 911.86 857.542 1049.59 1066.39C1187.32 1275.24 1375.67 1560.42 1468.18 1700.41L1636.2 1954.89L1644.7 1949.29C1720 1900.34 1799.66 1830.66 1862.71 1758.07C1996.92 1603.97 2083.42 1416.07 2112.46 1215.72C2120.96 1157.44 2122 1140.23 2122 1061.21C2122 982.189 2120.96 964.975 2112.46 906.697C2054.79 508.283 1771.24 173.542 1386.66 49.5172C1318.83 27.5329 1246.65 12.3927 1165.75 3.26721C1145.84 1.19322 1008.73 -1.08815 991.511 0.57104ZM1425.87 642.261C1435.82 647.24 1443.91 656.78 1446.82 666.734C1448.48 672.129 1448.89 787.442 1448.48 1047.31L1447.86 1420.21L1382.1 1319.42L1316.14 1218.62V947.554C1316.14 772.302 1316.97 673.788 1318.21 669.018C1321.53 657.402 1328.79 648.277 1338.75 642.885C1347.25 638.529 1350.36 638.115 1382.93 638.115C1413.63 638.115 1419.02 638.529 1425.87 642.261Z" fill="black"/>
</svg>
