<?xml version="1.0" encoding="utf-8"?>
<svg id="Ebene_1" data-name="Ebene 1" width="600" height="400" viewBox="0 0 265 264.484" xmlns="http://www.w3.org/2000/svg">
  <defs>
    <style>.cls-1{fill:#cfd8dc;}.cls-2{fill:#b71c1c;}</style>
  </defs>
  <path class="cls-1" d="M 121.835 55.046 C 111.185 39.046 108.835 17.726 108.375 8.946 C 81.315 14.806 54.435 25.296 55.985 33.026 C 56.185 34.026 57.405 35.166 59.445 36.306 L 56.235 41.996 C 52.345 39.816 50.155 37.306 49.565 34.306 C 47.815 25.556 57.715 17.646 79.845 10.116 C 90.008 6.736 100.359 3.948 110.845 1.766 L 114.745 0.986 L 114.745 4.986 C 114.745 5.256 114.915 32.986 127.245 51.446 Z"/>
  <path class="cls-1" d="M 133.095 261.986 L 131.455 261.986 C 78.015 261.986 18.545 245.206 11.515 217.116 C 7.235 199.956 21.245 180.996 52.055 162.316 L 55.445 167.886 C 27.725 184.706 14.375 201.616 17.855 215.536 C 23.955 239.916 80.315 255.116 129.745 255.456 C 135.625 246.666 167.195 195.056 149.175 125.816 L 155.485 124.176 C 176.025 203.056 134.485 260.096 134.075 260.666 Z"/>
  <path class="cls-1" d="M 36.415 237.486 C 34.557 237.54 32.698 237.386 30.875 237.026 C 28.442 236.444 27.551 233.446 29.272 231.63 C 29.299 231.601 29.327 231.574 29.355 231.546 C 29.825 231.076 76.295 184.546 82.575 146.896 L 89.005 147.956 C 83.615 180.346 51.725 217.256 39.065 230.856 C 51.715 230.126 83.655 224.206 144.965 189.856 C 97.115 184.606 89.545 146.306 89.465 145.856 L 95.885 144.676 C 96.185 146.276 103.885 183.886 156.185 183.886 L 156.235 183.886 C 157.707 183.882 158.997 184.873 159.375 186.296 C 159.763 187.721 159.148 189.229 157.875 189.976 C 84.585 232.536 49.045 237.486 36.415 237.486 Z"/>
  <path class="cls-1" d="M 66.375 253.486 C 63.857 253.474 62.297 250.741 63.566 248.568 C 63.796 248.174 64.106 247.833 64.475 247.566 C 64.705 247.406 76.305 238.846 88.655 219.986 C 83.73 217.814 78.944 215.34 74.325 212.576 C 69.283 209.659 64.748 205.944 60.895 201.576 C 44.125 205.996 28.655 207.746 15.065 206.576 L 15.615 200.076 C 27.855 201.076 41.765 199.666 56.845 195.906 C 46.585 178.376 56.005 160.966 56.135 160.736 L 61.835 163.906 C 61.395 164.706 53.585 179.366 63.465 194.136 C 79.157 189.478 94.393 183.403 108.985 175.986 C 113.007 162.64 115.687 148.925 116.985 135.046 C 117.093 133.999 117.695 133.066 118.605 132.536 C 119.522 132.004 120.641 131.952 121.605 132.396 C 121.815 132.496 142.895 142.126 158.155 148.396 C 159.261 148.857 160.028 149.885 160.155 151.076 C 160.271 152.259 159.729 153.41 158.745 154.076 C 144.573 163.803 129.8 172.624 114.515 180.486 C 110.569 193.205 105.202 205.439 98.515 216.956 C 113.057 222.408 128.377 225.501 143.895 226.116 C 146.404 226.104 147.986 228.813 146.741 230.993 C 146.442 231.516 146.004 231.947 145.475 232.236 C 115.865 248.686 68.715 253.316 66.735 253.506 Z M 94.985 222.616 C 89.684 230.924 83.501 238.636 76.545 245.616 C 89.545 243.696 112.435 239.496 131.395 231.666 C 118.938 230.138 106.712 227.106 94.985 222.636 Z M 67.985 199.546 C 70.912 202.41 74.176 204.908 77.705 206.986 C 82.361 209.773 87.198 212.245 92.185 214.386 C 97.803 204.928 102.492 194.948 106.185 184.586 C 93.842 190.539 81.065 195.547 67.965 199.566 Z M 122.985 140.176 C 121.755 150.851 119.75 161.422 116.985 171.806 C 127.815 166.036 138.865 159.436 149.985 152.066 C 139.945 147.806 128.835 142.836 122.985 140.196 Z"/>
  <path class="cls-1" d="M 88.555 50.636 C 87.779 50.63 87.029 50.354 86.435 49.856 C 75.935 40.856 63.575 22.576 63.055 21.796 C 61.66 19.71 63.046 16.896 65.55 16.731 C 66.163 16.691 66.775 16.824 67.315 17.116 C 67.385 17.116 73.435 19.626 114.395 26.446 C 116.876 26.87 117.968 29.821 116.361 31.758 C 116.336 31.788 116.311 31.817 116.285 31.846 C 108.87 39.882 99.807 46.22 89.715 50.426 C 89.343 50.564 88.951 50.635 88.555 50.636 Z M 73.705 25.486 C 77.815 31.026 83.705 38.486 89.175 43.546 C 95.684 40.535 101.716 36.583 107.075 31.816 C 90.235 28.946 79.945 26.906 73.705 25.486 Z"/>
  <path class="cls-2" d="M 114.125 140.656 C 113.67 140.658 113.22 140.562 112.805 140.376 C 111.509 139.806 110.729 138.465 110.875 137.056 C 112.785 119.126 85.265 111.926 84.985 111.856 C 82.558 111.249 81.698 108.242 83.438 106.444 C 83.453 106.428 83.469 106.412 83.485 106.396 C 84.835 105.046 117.015 73.136 157.375 55.616 C 159.673 54.609 162.2 56.468 161.923 58.962 C 161.912 59.064 161.896 59.166 161.875 59.266 C 154.135 96.736 118.095 137.826 116.575 139.556 C 115.948 140.249 115.059 140.648 114.125 140.656 Z M 92.015 107.286 C 99.745 110.186 113.275 116.906 116.695 129.176 C 126.145 117.386 146.325 90.176 153.855 64.376 C 125.235 78.146 101.145 98.896 92.015 107.286 Z"/>
  <path class="cls-2" d="M 56.955 166.486 L 53.855 160.746 C 66.135 154.126 80.205 141.936 91.735 127.746 C 81.925 134.466 76.305 139.066 76.125 139.216 L 71.965 134.216 C 81.595 126.604 91.684 119.591 102.175 113.216 C 107.305 104.956 111.255 96.466 113.275 88.326 C 113.625 86.946 113.925 85.606 114.165 84.326 C 103.753 80.548 93.004 77.776 82.065 76.046 C 80.862 75.875 79.853 75.051 79.445 73.906 C 79.049 72.761 79.309 71.492 80.125 70.596 C 80.685 69.996 93.935 55.806 110.485 48.006 C 111.776 47.403 113.31 47.707 114.275 48.756 C 114.715 49.226 123.675 59.286 121.395 80.096 C 129.233 83.127 136.843 86.72 144.165 90.846 C 163.438 82.051 183.628 75.424 204.365 71.086 C 206.815 70.582 208.892 72.92 208.103 75.295 C 208.085 75.349 208.066 75.403 208.045 75.456 C 199.565 97.196 176.825 120.406 175.865 121.386 C 174.491 122.784 172.202 122.662 170.985 121.126 C 163.675 111.946 154.125 104.336 143.825 98.126 C 131.088 104.029 118.707 110.67 106.745 118.016 C 93.575 138.596 73.685 157.486 56.955 166.486 Z M 150.955 94.966 C 159.385 100.289 167.032 106.762 173.675 114.196 C 179.075 108.336 192.035 93.526 199.395 78.826 C 182.8 82.731 166.594 88.134 150.975 94.966 Z M 120.335 86.656 C 120.125 87.716 119.875 88.806 119.595 89.916 C 118.083 95.699 115.951 101.302 113.235 106.626 C 120.385 102.536 128.305 98.326 136.845 94.246 C 131.491 91.416 125.986 88.882 120.355 86.656 Z M 89.335 70.656 C 98.06 72.409 106.652 74.775 115.045 77.736 C 116.045 65.736 112.785 58.346 110.825 55.086 C 103.042 59.356 95.831 64.594 89.365 70.676 Z"/>
  <path class="cls-2" d="M 89.375 102.166 C 89.375 130.736 65.565 153.436 48.375 170.006 C 45.505 172.816 35.785 173.266 35.785 173.266 C 38.195 170.796 40.935 168.186 43.875 165.376 C 60.175 149.596 82.815 127.996 82.815 102.166 C 82.815 71.576 70.485 59.506 60.765 49.856 C 56.465 45.476 52.765 41.306 50.595 36.216 L 52.595 35.366 L 59.315 38.306 C 61.122 40.788 63.15 43.1 65.375 45.216 C 75.415 55.196 89.375 68.896 89.375 102.166 Z"/>
  <path class="cls-2" d="M 251.705 110.606 C 251.705 110.606 247.765 111.166 246.655 111.296 C 189.505 117.626 130.535 134.066 96.815 147.566 C 84.291 152.547 72.129 158.391 60.415 165.056 C 60.332 165.108 60.245 165.151 60.155 165.186 C 53.365 169.096 36.865 177.186 23.495 184.296 C 43.065 163.486 79.725 147.486 94.335 141.566 C 127.405 128.326 184.235 112.346 240.125 105.486 C 233.545 97.786 217.425 81.486 185.725 69.346 C 167.195 62.166 139.015 58.126 114.165 54.536 C 74.635 48.866 52.165 45.076 49.975 34.316 C 49.545 32.151 49.844 29.904 50.825 27.926 C 52.718 30.861 55.18 33.387 58.065 35.356 C 58.707 35.789 59.375 36.183 60.065 36.536 L 60.125 36.596 C 69.395 41.496 94.375 45.076 115.185 48.076 C 140.365 51.736 168.875 55.846 188.115 63.216 C 232.925 80.496 248.385 105.216 249.045 106.216 C 249.705 107.216 251.705 110.606 251.705 110.606 Z"/>
</svg>