<svg width="50" height="50" viewBox="0 0 50 52" fill="none" xmlns="http://www.w3.org/2000/svg">
<path d="M2.5 9V43.5882C2.5 47.6894 12.5 51 25 51C37.5 51 47.5 47.6894 47.5 43.5882V9" fill="#8A9CFF"/>
<path d="M2.5 9V43.5882C2.5 47.6894 12.5 51 25 51C37.5 51 47.5 47.6894 47.5 43.5882V9" stroke="black" stroke-width="2" stroke-linecap="round" stroke-linejoin="round"/>
<path d="M47.5 19.5C47.5 23.9267 37.5 27.5 25 27.5C12.5 27.5 2.5 23.9267 2.5 19.5" stroke="black" stroke-width="2" stroke-linecap="round" stroke-linejoin="round"/>
<path d="M47.5 32C47.5 36.4267 37.5 40 25 40C12.5 40 2.5 36.4267 2.5 32" stroke="black" stroke-width="2" stroke-linecap="round" stroke-linejoin="round"/>
<path d="M25 16C37.4264 16 47.5 12.6421 47.5 8.5C47.5 4.35786 37.4264 1 25 1C12.5736 1 2.5 4.35786 2.5 8.5C2.5 12.6421 12.5736 16 25 16Z" fill="#D1D7F5" stroke="black" stroke-width="2" stroke-linecap="round" stroke-linejoin="round"/>
</svg>
